<svg width="220" height="160" fill="none" xmlns="http://www.w3.org/2000/svg"><path d="M56.479 83.478c2.367-4.709 1.703-10.702 1.076-13.11 7.172.802 23.56 3.05 31.735 5.618 8.176 2.569 8.428 13.022 7.531 17.927-1.972 8.383-6.024 25.257-6.455 25.685-.43.429-1.793.892-2.42 1.071.269-6.422.753-20.549.538-25.686-.215-5.137-5.469-7.135-8.069-7.492L56.48 83.478zM42.763 20.602h42.494c-.807 2.319-1.937 8.134 0 12.843H79.34c1.255 4.46 3.98 14.448 4.841 18.729 1.076 5.351-1.345 8.294-2.958 10.97-1.291 2.14-2.51 2.14-2.959 1.873 1.506-6.422-.269-23.724-1.344-31.572H50.563c-.216 6.207 1.882 10.435 2.958 11.772 1.255 1.873 3.389 7.117 1.883 13.11-1.506 5.994-11.565 6.066-16.406 5.352 1.936-1.284 1.882-9.097 1.614-12.843 4.84.803 10.757 0 8.875-5.084-1.506-4.066-1.883-9.9-1.883-12.307h-5.917c1.076-1.249 2.797-5.565 1.076-12.843zM89.829 31.84c1.936-2.783.986-9.9.269-13.111l32.274 2.14c10.542 1.713 11.027 14.984 9.951 21.405l-3.228 23.545-2.689 1.338-1.076-20.067c0-10.06-4.124-12.932-6.186-13.11l-29.315-2.14zm45.453 0c2.366-3.854 2.241-10.525 1.882-13.379 1.255.268 4.68 1.017 8.338 1.873 3.657.857 4.393 3.39 4.303 4.549v6.689c6.67-.642 6.544-7.76 5.648-11.238h11.834c9.144-.267 12.013 10.97 12.64 15.519l2.421 27.29h-32.005c2.151-4.494 1.614-10.612 1.076-13.11h25.819c1.936-12.628-5.648-16.856-9.951-16.856h-17.751c-1.972 8.562-5.971 25.793-6.186 26.22-.269.536-2.151 3.747-2.42 4.282-.215.428-1.166.357-1.614.267.269-5.618 5.917-30.234 4.572-30.234-1.076 0-6.186-1.248-8.606-1.873zm53.789 2.408c2.797-4.924 4.034-13.468 4.303-17.124l7.262 2.675c.861-2.14.538-9.81.269-13.378l-1.614-1.337 1.345-3.211 3.765 1.338-1.075 3.21h-1.345c.43 5.994 0 11.416-.269 13.378.896.357 2.636 1.017 2.42.803-.215-.214 3.676-10.792 5.648-16.054l-1.076-1.337L210.049 0l3.766 1.873-1.614 3.478-1.345-.267c-.861.428-4.303 10.88-5.917 16.053l2.69 1.07c-.861-1.712 4.841-8.026 7.799-10.97l-1.076-.802 1.883-3.21L220 9.364l-2.151 3.21-1.345-.802c-5.594 4.066-7.71 8.829-8.068 10.702l5.379 2.408c-1.722 2.14-4.304 11.95-5.379 16.589-2.062-.982-6.348-2.783-6.993-2.14-.807.802-1.345 4.815-2.959 15.785-1.291 8.776-2.151 12.219-2.42 12.843-2.421 3.924-7.316 11.826-7.531 12.04-.269.268-1.075-.268-1.344-1.07-.216-.642.627-5.084 1.075-7.224 1.704-7.135 5.541-22.529 7.262-27.024 1.721-4.495 1.614-6.867 1.345-7.491l-7.8-2.944z" fill="#202020"/><path d="M173.203 70.1H168.9v4.282h2.152v11.504h-4.035c0-.802-1.075-4.013-1.613-4.816-.431-.642-.538-.089-.538.268 1.506 4.067.627 14.18 0 18.729l38.19.268c2.152 10.488 2.869 18.64 2.959 21.404v7.76c0 1.605-.538 3.745-.538 4.816 0 .856.538.891.807.802 6.024-4.067 6.455-9.543 5.917-11.772-1.255-5.619-3.873-17.285-4.303-18.997-.431-1.712-.359-3.389-.269-4.013h4.572v-7.492c0-1.498.538-4.727.807-6.154.627-.98 1.882-3.103 1.882-3.746 0-.642-.358-.624-.538-.535l-2.42 3.478h-40.343V74.382h1.614V70.1zm-7.799 50.837l5.917-10.703c1.075-.214 1.524.625 1.613 1.071-.627 1.159-1.667 4.013-.807 6.153 1.937 1.927 7.083 2.765 9.414 2.944-2.367 2.996-3.497 10.524-3.766 13.913-2.779-.179-9.036-1.017-11.833-2.944-2.798-1.926-1.524-7.759-.538-10.434zm-64.279-50.569c-.269 5.886-1.345 13.2-2.152 16.053l10.22 6.69c-.807 4.013-2.528 13.698-2.958 20.334-.431 6.635-3.766 15.072-5.379 18.461.645.554 1.753 1.044 2.958 1.606 1.614-1.606 6.993-2.944 11.565-2.141 3.658.642 4.034 2.408 3.765 3.211l-1.613 3.746 1.882.535c5.648-7.492 6.186-17.392 5.917-18.462-.215-.856-1.345-1.962-1.883-2.408-2.42-1.338-7.853-3.96-10.22-3.746-2.366.214-2.779-.981-2.689-1.605.627-4.727 1.936-14.502 2.152-15.786.215-1.284 1.165-.713 1.613-.267l31.467 28.361c3.228 3.121 10.382 8.776 13.179 6.421-1.076-6.956 3.765-17.391 4.034-18.997.215-1.284-.448-1.248-.807-1.07-.269.268-1.076 1.124-2.152 2.408-1.075 1.284-2.42.535-2.958 0L140.66 98.194l15.33-10.167c2.69-2.14 2.69-3.479 2.152-6.957-.658-4.252-6.993-9.81-10.758-12.04.43-1.927.538-4.37.538-5.351h-1.883c-.86 4.495-2.869 7.937-3.765 9.097l-6.993 8.294 8.338 6.957c.806.802 2.151 2.408 0 4.548-2.152 2.14-5.379 2.676-6.724 2.676l-17.482-15.786c-11.565-9.097-13.537-30.77-12.909-41.74l-4.572 9.9c-.09 4.906-.377 16.321-.807 22.743zM34.694 84.281c3.873-4.923 1.255-14.716-.538-18.997.43-.856 1.076-.178 1.345.268l1.614 4.816c1.076.1 8.158 2.539 11.565 3.746 6.723 4.548 4.303 8.294 1.075 17.926-2.581 7.706-11.475 19.086-15.599 23.813 8.607 17.659 16.675 41.204 16.406 42.274-.215.856-1.344 1.606-1.882 1.873l-16.406-33.712-13.716-31.037-8.607 2.676C8.875 92.575 5.38 86.422 3.765 84.013l5.648-2.407c-1.29-4.067-5.02-7.581-6.724-8.83l-1.075.268L0 70.1l3.227-1.605 1.345 2.676-.807 1.07.27.267c2.796 2.355 5.468 6.868 6.454 8.83.807-.268 2.367-.856 2.152-1.07-.216-.214-3.317-9.008-4.841-13.378l-1.345-.268-1.345-2.675 3.496-1.606 1.614 3.211-1.345 1.07c-.215.642 3.138 9.365 4.841 13.646l2.152-.803c-1.076-1.284-.807-8.027-.538-11.237l-.807.267-1.075-3.478 3.227-1.07 1.076 3.478-1.345.535c-1.291 6.421-.359 10.167.269 11.238l4.572-1.338c.43 3.21 4.662 10.791 6.724 14.18a742.754 742.754 0 01-5.38 1.873c-.645.214-.627.624-.537.803.86 1.712 7.172 12.843 10.22 18.194 2.6-2.587 8.445-9.151 11.027-14.716 3.227-6.956 1.613-8.83.538-10.435-.861-1.284-6.455-2.854-9.145-3.478zm34.314 61.647v12.216h-.768v-10.412c0-.149.008-.308.025-.474l-4.808 8.538c-.08.149-.196.224-.346.224h-.138c-.15 0-.264-.075-.345-.224l-4.938-8.556c.017.173.026.337.026.492v10.412h-.777v-12.216h.613c.08 0 .144.009.19.026.046.017.092.063.138.138l4.93 8.495c.085.161.16.334.224.518a3.56 3.56 0 01.112-.267c.04-.093.083-.179.13-.259l4.79-8.487c.047-.075.093-.121.139-.138a.647.647 0 01.198-.026h.605zm6.865 8.063c-.817.029-1.522.095-2.115.199-.587.098-1.073.233-1.459.406-.38.172-.662.38-.846.621a1.284 1.284 0 00-.276.812c0 .288.046.538.138.751a1.6 1.6 0 00.38.518c.161.132.345.23.553.294.207.063.422.094.647.094.334 0 .639-.034.915-.103.282-.075.541-.176.777-.302.242-.133.466-.288.673-.466a9.74 9.74 0 00.613-.579v-2.245zm-5.05-3.22a4.97 4.97 0 011.416-1.018c.495-.231 1.056-.346 1.683-.346.46 0 .864.075 1.209.225.345.144.63.354.855.63.23.27.402.601.518.993.115.385.172.817.172 1.295v5.594h-.328c-.172 0-.279-.081-.32-.242l-.12-1.105c-.236.23-.472.438-.708.622-.23.184-.472.339-.725.466a3.722 3.722 0 01-.82.294 4.226 4.226 0 01-.967.103c-.294 0-.579-.043-.855-.129a2.22 2.22 0 01-.742-.397 2.013 2.013 0 01-.518-.682c-.127-.282-.19-.619-.19-1.011 0-.362.103-.699.31-1.01.208-.31.533-.581.976-.811.443-.23 1.01-.415 1.7-.553.697-.138 1.532-.218 2.504-.241v-.898c0-.795-.172-1.405-.518-1.831-.34-.431-.846-.647-1.519-.647-.414 0-.768.058-1.062.173a3.727 3.727 0 00-.734.38 4.648 4.648 0 00-.492.379c-.126.115-.233.173-.32.173a.26.26 0 01-.155-.043.39.39 0 01-.103-.112l-.147-.251zm13.518-.069a1.014 1.014 0 01-.087.078.173.173 0 01-.104.026c-.057 0-.135-.038-.233-.112a2.604 2.604 0 00-.397-.259 3.14 3.14 0 00-.63-.251 2.972 2.972 0 00-.906-.121c-.495 0-.936.09-1.321.268-.38.173-.703.423-.967.751a3.417 3.417 0 00-.605 1.191c-.132.467-.198.99-.198 1.572 0 .604.069 1.139.207 1.605.144.467.345.861.604 1.183.26.317.573.559.941.725.369.167.777.251 1.226.251.415 0 .76-.049 1.036-.147.282-.098.513-.204.691-.319a2.88 2.88 0 00.432-.32c.103-.098.19-.147.259-.147s.126.029.172.087l.216.276c-.132.173-.3.334-.5.483-.202.15-.43.28-.683.389-.253.109-.53.193-.828.25a4.326 4.326 0 01-.924.095 3.772 3.772 0 01-1.502-.293 3.366 3.366 0 01-1.166-.864 4.176 4.176 0 01-.76-1.39c-.178-.546-.267-1.168-.267-1.864 0-.656.086-1.255.259-1.796a4.008 4.008 0 01.76-1.399c.333-.391.74-.693 1.217-.906.483-.219 1.036-.328 1.657-.328.559 0 1.054.089 1.485.267a3.67 3.67 0 011.131.726l-.215.293zm2.334.302a4.848 4.848 0 011.355-1.156 3.445 3.445 0 011.718-.432c.472 0 .886.075 1.243.224.363.15.662.366.898.648.236.282.414.621.535 1.019.121.397.182.846.182 1.346v5.491h-.83v-5.491c0-.805-.183-1.436-.552-1.89-.368-.461-.93-.691-1.683-.691-.558 0-1.082.144-1.572.432a4.396 4.396 0 00-1.294 1.182v6.458h-.83v-12.561h.83v5.421zm11.202-1.588c.616 0 1.166.106 1.649.319a3.32 3.32 0 011.235.89c.333.385.587.851.759 1.398.179.541.268 1.148.268 1.822 0 .673-.089 1.28-.268 1.821a3.907 3.907 0 01-.759 1.39 3.317 3.317 0 01-1.235.889c-.483.208-1.033.311-1.649.311-.616 0-1.168-.103-1.657-.311a3.406 3.406 0 01-1.235-.889 4.01 4.01 0 01-.768-1.39 5.973 5.973 0 01-.26-1.821c0-.674.087-1.281.26-1.822a3.995 3.995 0 01.768-1.398c.34-.386.751-.683 1.234-.89.49-.213 1.042-.319 1.658-.319zm0 8.193c.512 0 .958-.087 1.338-.259.386-.179.705-.432.959-.76.259-.328.451-.722.578-1.183.127-.466.19-.987.19-1.562 0-.57-.063-1.088-.19-1.554a3.297 3.297 0 00-.578-1.192 2.51 2.51 0 00-.959-.768c-.38-.178-.826-.268-1.338-.268-.512 0-.961.09-1.347.268-.38.178-.699.435-.958.768a3.49 3.49 0 00-.578 1.192c-.127.466-.19.984-.19 1.554 0 .575.063 1.096.19 1.562.132.461.325.855.578 1.183.259.328.578.581.958.76.386.172.835.259 1.347.259zm6.149-6.553a4.885 4.885 0 011.373-1.191 3.443 3.443 0 011.744-.449c.471 0 .886.075 1.243.224.362.15.662.366.898.648.236.282.414.621.535 1.019.121.397.181.846.181 1.346v5.491h-.829v-5.491c0-.805-.184-1.436-.552-1.89-.369-.461-.93-.691-1.684-.691-.558 0-1.082.144-1.571.432a4.402 4.402 0 00-1.295 1.182v6.458h-.829v-8.59h.458c.144 0 .227.072.25.216l.078 1.286zm19.905-4.826a.67.67 0 01-.121.354l-7.753 10.826h7.813v.734h-8.996v-.319a.47.47 0 01.026-.164 1.14 1.14 0 01.078-.147l7.77-10.852h-7.649v-.734h8.832v.302zm2.067 3.324v8.59h-.82v-8.59h.82zm.354-2.961a.647.647 0 01-.069.293.8.8 0 01-.406.397.712.712 0 01-.293.061.774.774 0 01-.535-.225.804.804 0 01-.165-.233.728.728 0 01-.06-.293.73.73 0 01.06-.294.752.752 0 01.406-.414.73.73 0 01.587 0 .75.75 0 01.406.414c.046.092.069.19.069.294zm1.712 11.551v-8.59h.458c.144 0 .227.072.25.216l.078 1.243a4.48 4.48 0 011.148-1.157 2.54 2.54 0 011.459-.44c.627 0 1.128.181 1.502.544.38.362.636.866.769 1.511.103-.352.247-.657.431-.916a2.7 2.7 0 01.648-.638c.241-.173.503-.3.785-.38a3.24 3.24 0 01.881-.121c.426 0 .809.072 1.148.216.34.138.628.345.864.621.235.277.417.616.543 1.019.127.403.19.863.19 1.381v5.491h-.82v-5.491c0-.84-.181-1.479-.544-1.916-.362-.443-.88-.665-1.554-.665a2.33 2.33 0 00-.863.164 2.093 2.093 0 00-.725.492 2.398 2.398 0 00-.501.803 3.181 3.181 0 00-.181 1.122v5.491h-.829v-5.491c0-.834-.167-1.473-.501-1.916-.328-.443-.811-.665-1.45-.665-.466 0-.898.138-1.295.414-.397.277-.751.659-1.062 1.149v6.509h-.829zm13.817-6.518c.132-.351.282-.662.449-.932.172-.277.368-.51.587-.7a2.39 2.39 0 01.742-.431c.276-.104.581-.156.915-.156.179 0 .354.017.527.052.172.029.325.083.457.164l-.069.57c-.028.092-.083.138-.164.138-.069 0-.175-.02-.319-.06a2.006 2.006 0 00-.553-.061c-.334 0-.63.052-.889.156a2.043 2.043 0 00-.691.448 3.049 3.049 0 00-.535.752 7.184 7.184 0 00-.414 1.018v5.56h-.829v-8.59h.44c.098 0 .167.02.207.06.041.041.067.11.078.208l.061 1.804zm9.078 2.365c-.817.029-1.522.095-2.115.199-.587.098-1.074.233-1.459.406-.38.172-.662.38-.846.621a1.28 1.28 0 00-.277.812c0 .288.046.538.138.751a1.6 1.6 0 00.38.518c.162.132.346.23.553.294.207.063.423.094.647.094.334 0 .639-.034.915-.103.283-.075.542-.176.777-.302.242-.133.467-.288.674-.466.207-.179.411-.372.613-.579v-2.245zm-5.051-3.22a4.984 4.984 0 011.416-1.018c.495-.231 1.056-.346 1.684-.346.46 0 .863.075 1.208.225.346.144.631.354.855.63.23.27.403.601.518.993.115.385.173.817.173 1.295v5.594h-.328c-.173 0-.279-.081-.32-.242l-.121-1.105c-.236.23-.472.438-.708.622-.23.184-.472.339-.725.466a3.708 3.708 0 01-.82.294 4.225 4.225 0 01-.967.103c-.293 0-.578-.043-.855-.129a2.224 2.224 0 01-.742-.397 2.007 2.007 0 01-.518-.682c-.127-.282-.19-.619-.19-1.011 0-.362.104-.699.311-1.01.207-.31.532-.581.975-.811.444-.23 1.011-.415 1.701-.553.697-.138 1.531-.218 2.504-.241v-.898c0-.795-.173-1.405-.518-1.831-.34-.431-.846-.647-1.52-.647-.414 0-.768.058-1.061.173a3.712 3.712 0 00-.734.38 4.535 4.535 0 00-.492.379c-.127.115-.234.173-.32.173a.258.258 0 01-.155-.043.386.386 0 01-.104-.112l-.147-.251zm9.989 7.511c-.581 0-1.036-.161-1.364-.483-.322-.323-.483-.82-.483-1.494v-5.87h-1.235a.232.232 0 01-.155-.052.186.186 0 01-.061-.147v-.319l1.468-.104.207-3.073a.331.331 0 01.069-.139.185.185 0 01.147-.06h.389v3.281h2.71v.613h-2.71v5.827c0 .236.028.44.086.613.063.167.147.305.25.414.11.11.236.19.38.242.144.052.299.078.466.078.208 0 .386-.029.536-.087.149-.063.279-.129.388-.198.109-.075.199-.141.268-.199.069-.063.123-.095.164-.095.046 0 .092.029.138.087l.224.362a2.408 2.408 0 01-.837.587 2.612 2.612 0 01-1.045.216zm16.347-12.354v12.216h-.889v-5.853h-7.649v5.853h-.889v-12.216h.889v5.698h7.649v-5.698h.889zm6.86 8.063c-.817.029-1.522.095-2.115.199-.587.098-1.073.233-1.459.406-.38.172-.662.38-.846.621a1.285 1.285 0 00-.276.812c0 .288.046.538.138.751a1.6 1.6 0 00.38.518c.161.132.345.23.553.294.207.063.423.094.647.094.334 0 .639-.034.915-.103.282-.075.541-.176.777-.302.242-.133.466-.288.674-.466.207-.179.411-.372.612-.579v-2.245zm-5.05-3.22a4.984 4.984 0 011.416-1.018c.495-.231 1.056-.346 1.683-.346.461 0 .864.075 1.209.225.345.144.63.354.855.63.23.27.403.601.518.993.115.385.172.817.172 1.295v5.594h-.328c-.172 0-.279-.081-.319-.242l-.121-1.105c-.236.23-.472.438-.708.622-.23.184-.472.339-.725.466a3.726 3.726 0 01-.82.294 4.23 4.23 0 01-.967.103c-.294 0-.579-.043-.855-.129a2.214 2.214 0 01-.742-.397 2.007 2.007 0 01-.518-.682c-.127-.282-.19-.619-.19-1.011 0-.362.103-.699.311-1.01.207-.31.532-.581.975-.811.443-.23 1.01-.415 1.701-.553.696-.138 1.531-.218 2.503-.241v-.898c0-.795-.172-1.405-.518-1.831-.339-.431-.846-.647-1.519-.647-.414 0-.768.058-1.062.173a3.74 3.74 0 00-.734.38 4.741 4.741 0 00-.492.379c-.126.115-.233.173-.319.173a.261.261 0 01-.156-.043.397.397 0 01-.103-.112l-.147-.251zm8.059-5.672c.196.351.328.728.397 1.131.075.397.087.794.035 1.192a3.712 3.712 0 01-.328 1.148 3.35 3.35 0 01-.682.958l-.233-.155c-.046-.035-.069-.075-.069-.121a.183.183 0 01.051-.112c.185-.242.326-.513.423-.812a3.341 3.341 0 00.104-1.839 2.843 2.843 0 00-.311-.837c-.092-.161-.066-.274.078-.337l.535-.216zm6.427 8.892c-.817.029-1.522.095-2.115.199-.587.098-1.073.233-1.459.406-.38.172-.662.38-.846.621a1.285 1.285 0 00-.276.812c0 .288.046.538.138.751.098.207.224.38.38.518.161.132.345.23.552.294.208.063.423.094.648.094.334 0 .639-.034.915-.103.282-.075.541-.176.777-.302.242-.133.466-.288.673-.466.208-.179.412-.372.613-.579v-2.245zm-5.05-3.22a4.984 4.984 0 011.416-1.018c.495-.231 1.056-.346 1.683-.346.461 0 .864.075 1.209.225.345.144.63.354.855.63.23.27.402.601.518.993.115.385.172.817.172 1.295v5.594h-.328c-.173 0-.279-.081-.319-.242l-.121-1.105c-.236.23-.472.438-.708.622-.23.184-.472.339-.725.466a3.726 3.726 0 01-.82.294 4.23 4.23 0 01-.967.103c-.294 0-.579-.043-.855-.129a2.214 2.214 0 01-.742-.397 2.007 2.007 0 01-.518-.682c-.127-.282-.19-.619-.19-1.011 0-.362.103-.699.31-1.01.208-.31.533-.581.976-.811.443-.23 1.01-.415 1.701-.553.696-.138 1.531-.218 2.503-.241v-.898c0-.795-.172-1.405-.518-1.831-.339-.431-.846-.647-1.519-.647-.415 0-.768.058-1.062.173a3.74 3.74 0 00-.734.38 4.741 4.741 0 00-.492.379c-.127.115-.233.173-.319.173a.261.261 0 01-.156-.043.383.383 0 01-.103-.112l-.147-.251zm8.527.855c.133-.351.282-.662.449-.932.173-.277.369-.51.587-.7.225-.19.472-.334.743-.431.276-.104.581-.156.915-.156.178 0 .354.017.527.052.172.029.325.083.457.164l-.069.57c-.029.092-.083.138-.164.138-.069 0-.176-.02-.319-.06a2.016 2.016 0 00-.553-.061c-.334 0-.63.052-.889.156a2.034 2.034 0 00-.691.448c-.201.202-.38.452-.535.752-.15.293-.288.633-.414 1.018v5.56h-.829v-8.59h.44c.098 0 .167.02.207.06.041.041.066.11.078.208l.06 1.804zm9.992 1.355c0-.46-.066-.872-.198-1.234a2.583 2.583 0 00-.544-.933 2.333 2.333 0 00-.846-.578 2.692 2.692 0 00-1.071-.207c-.443 0-.84.069-1.191.207a2.65 2.65 0 00-.915.596 3.008 3.008 0 00-.613.932 4.327 4.327 0 00-.311 1.217h5.689zm-5.732.527v.164c0 .645.075 1.212.224 1.701.15.489.363.901.639 1.234.276.328.61.576 1.002.743.391.167.828.25 1.312.25a4.04 4.04 0 001.122-.138c.317-.098.582-.204.794-.319a5.04 5.04 0 00.518-.32c.127-.098.219-.147.277-.147.075 0 .132.029.172.087l.225.276a2.275 2.275 0 01-.553.483 3.86 3.86 0 01-.759.389 5.623 5.623 0 01-.898.25 4.828 4.828 0 01-.959.095 4.12 4.12 0 01-1.605-.302 3.431 3.431 0 01-1.243-.898 4.113 4.113 0 01-.803-1.433c-.185-.57-.277-1.22-.277-1.951 0-.616.087-1.183.259-1.701.179-.523.432-.972.76-1.346.334-.38.74-.677 1.217-.89.484-.213 1.031-.319 1.641-.319.483 0 .932.083 1.346.25.415.167.775.412 1.08.734.305.317.544.708.716 1.174.179.466.268 1.002.268 1.606 0 .127-.017.213-.052.259-.035.046-.092.069-.173.069h-6.25zm10.162 4.774c-.582 0-1.036-.161-1.364-.483-.323-.323-.484-.82-.484-1.494v-5.87h-1.234a.235.235 0 01-.156-.052.185.185 0 01-.06-.147v-.319l1.467-.104.208-3.073a.31.31 0 01.069-.139c.034-.04.083-.06.147-.06h.388v3.281h2.711v.613h-2.711v5.827c0 .236.029.44.086.613.064.167.147.305.251.414.109.11.236.19.38.242.143.052.299.078.466.078.207 0 .385-.029.535-.087a2.7 2.7 0 00.389-.198c.109-.075.198-.141.267-.199.069-.063.124-.095.164-.095.046 0 .092.029.138.087l.225.362a2.421 2.421 0 01-.838.587 2.607 2.607 0 01-1.044.216zm8.344-8.728v.345c0 .121-.04.231-.121.328l-5.378 7.27h5.283v.647h-6.276v-.328c0-.098.043-.204.129-.319l5.396-7.296h-5.24v-.647h6.207zm-144.318-48.15v-4.816c.09-.178.269-.428.269 0s.18 1.249.269 1.606c.807-.357 2.42-.535 2.42 1.605 0 2.676-1.344 3.746-1.613 3.746-.215 0-.27-.178-.27-.268.861-.642.897-2.051.808-2.675h-1.345v.802h-.538zm-12.91 12.575c.364-.523.135-1.936 0-2.54h5.853c1.984.322 2.075 2.819 1.873 4.027l-.465 3.33c-.145.309-.312.433-.806.535l-.27-3.211c0-1.893-.55-2.181-.939-2.215l-5.246.074zm16.405-.585c.407-.679.385-1.854.324-2.357.215.047.802.179 1.429.33.627.151.753.597.738.801v1.179c1.143-.113 1.122-1.367.968-1.98h2.029c1.567-.048 2.059 1.933 2.166 2.734l.415 4.809h-5.486c.369-.792.276-1.87.184-2.31h4.426c.332-2.225-.968-2.97-1.706-2.97h-3.043c-.338 1.508-1.023 4.545-1.06 4.62-.046.094-.369.66-.415.754-.037.076-.2.063-.276.047.046-.99 1.014-5.327.783-5.327-.184 0-1.06-.22-1.475-.33zm-9.614 11.29H57.19c0-.126-.172-.632-.258-.758-.068-.101-.085-.014-.085.042.24.64.1 2.233 0 2.949l6.084.042c.342 1.652.457 2.935.47 3.371v1.221c0 .253-.085.59-.085.759 0 .134.086.14.129.126.96-.64 1.028-1.503.942-1.854-.2-.884-.617-2.721-.685-2.991a1.814 1.814 0 01-.043-.632h.728v-1.179c0-.236.086-.745.129-.969.1-.155.3-.489.3-.59 0-.101-.057-.099-.086-.084l-.385.547zm-7.412 5.519l.942-1.685c.171-.034.243.098.257.169-.1.182-.266.631-.128.968.308.304 1.128.436 1.5.464-.378.472-.558 1.657-.6 2.191-.443-.028-1.44-.16-1.886-.464-.445-.303-.243-1.222-.085-1.643z" fill="#202020"/><path d="M73.452 111.381h-7.727c0-.138-.185-.691-.278-.829-.074-.11-.093-.015-.093.046.26.7.109 2.44 0 3.223l6.57.046c.371 1.804.494 3.206.51 3.682v1.335c0 .276-.093.644-.093.829 0 .147.093.153.14.138 1.036-.7 1.11-1.642 1.017-2.026-.216-.966-.666-2.973-.74-3.268a2.005 2.005 0 01-.046-.69h.786v-1.289c0-.258.093-.814.139-1.059.108-.169.324-.534.324-.645 0-.11-.062-.107-.093-.092l-.416.599zm-11.594-5.428v-2.408h1.345c.645-.214.269-1.873 0-2.676h-.807v-2.675h7.53v2.675h-.806c.09.446.322 1.445.537 1.873.27.535 0 1.873-.269 2.943-.215.857-.448.357-.537 0 .43-.428-.18-3.389-.538-4.816H64.01c0 .09.107.696.537 2.408.43 1.713-.179 2.498-.537 2.676h-2.152zm12.642-5.351c.43-.214 0-2.23-.27-3.21.09 0 .323.053.538.267.215.214.27.446.27.535h5.647l.538-.535c.215-.214.09.624 0 1.07v4.816c.269-.178.807-.589.807-.803 0-.267.269 0 .269.268 0 .267-1.076 2.943-.807 2.943h-6.993v-2.408h5.917v-2.943h-5.917zm-5.111 26.488c.43-.214 0-2.23-.27-3.211.09 0 .323.054.538.268.216.214.27.446.27.535h5.647l.538-.535c.215-.214.09.624 0 1.07v4.816c.27-.178.807-.588.807-.802 0-.268.27 0 .27.267 0 .268-1.077 2.943-.808 2.943H69.39v-2.408h5.916v-2.943H69.39zm-22.323-13.11v-2.408h2.958v2.408H48.95l.806 2.408.807-.268c.538-.357 1.668-1.177 1.883-1.605.215-.428-.986-.714-1.614-.803v-3.478h.538c-.18.357-.269 1.124.807 1.338 2.151.267 1.345 2.14 1.345 2.943 0 .642-1.793 1.694-2.69 2.14h2.69c.269-.089 1.075-.481 2.151-1.337 1.076-.857-.448-1.249-1.344-1.338l.268-2.676c1.614.535 2.959-.535 2.152 3.478-.645 3.211-5.11 4.549-7.261 4.816l-.27-2.943-.806-2.675h-1.345zm30.929 13.378v-2.408h2.69v2.408h-.538c.269.535 1.882 3.21 2.151 4.281.27 1.07-1.076 1.337-.807 1.07.216-.214-.09-1.516-.269-2.141h-.537c0 .357-.054 1.231-.27 1.873-.215.642-1.882.268-2.689 0 .43 0 .538-1.605.538-2.408.269.09 1.022.214 1.883 0 .86-.214-.18-1.873-.807-2.675h-1.345zm-12.64-2.676v2.675h1.882c.43.642.538 3.835.538 5.351.807-.535.538-5.083.538-6.421 0-1.07-.538-1.516-.807-1.605h-2.151z" fill="#202020"/></svg>