<svg width="1160" height="875" fill="none" xmlns="http://www.w3.org/2000/svg"><g opacity=".3"><circle cx="580.5" cy="439.5" r="337" stroke="#C4C4C4"/><circle cx="579.5" cy="436.5" r="6.5" fill="#C4C4C4"/><path stroke="#C4C4C4" d="M0 436.5h1160"/><path d="M1076.38 435.633c0 3.616-3.06 6.588-6.88 6.588s-6.88-2.972-6.88-6.588c0-3.615 3.06-6.587 6.88-6.587s6.88 2.972 6.88 6.587z" stroke="#C4C4C4" stroke-width="1.25"/><path transform="scale(1.01935 .98027) rotate(-45 1068.59 -1029.029)" stroke="#C4C4C4" stroke-width="1.25" d="M0-.625h24.526"/><path transform="scale(1.01935 .98027) rotate(45 -7.04 1474.57)" stroke="#C4C4C4" stroke-width="1.25" d="M0-.625h24.526"/><path stroke="#C4C4C4" stroke-width="1.25" d="M1057 436.21h25"/><path stroke="#C4C4C4" d="M91.5 430.552h12v12.224h-12z"/><path d="M97.5 440.099c-1.862 0-3.375-1.536-3.375-3.435s1.513-3.435 3.375-3.435 3.375 1.536 3.375 3.435-1.513 3.435-3.375 3.435z" fill="#C4C4C4" stroke="#C4C4C4" stroke-width=".25"/><path transform="matrix(-.70103 .71313 -.70057 -.71358 106.678 427)" stroke="#C4C4C4" d="M0-.5h25.217"/><path transform="matrix(.70103 .71313 -.70149 .71268 88 428.017)" stroke="#C4C4C4" d="M0-.5h25.217"/><path stroke="#C4C4C4" d="M85 436.682h25"/><path stroke="#C4C4C4" stroke-width=".869" d="M361.434 57.564l437.5 757.772m-438.252.665l437.5-757.772"/><path stroke="#C4C4C4" d="M580.5 0v875M200.864 655.817l757.772-437.5m-757.272 0l757.772 437.5"/></g></svg>