<svg width="807" height="608" fill="none" xmlns="http://www.w3.org/2000/svg"><g opacity=".5"><circle cx="403.365" cy="305.39" r="234.167" stroke="#C4C4C4" stroke-width=".695"/><circle cx="402.67" cy="303.305" r="4.517" fill="#C4C4C4"/><path stroke="#C4C4C4" stroke-width=".695" d="M0 303.305h806.034"/><path d="M747.927 302.703c0 2.512-2.123 4.577-4.777 4.577-2.655 0-4.777-2.065-4.777-4.577s2.122-4.577 4.777-4.577c2.654 0 4.777 2.065 4.777 4.577z" stroke="#C4C4C4" stroke-width=".869"/><path transform="scale(1.01935 .98027) rotate(-45 742.517 -715.029)" stroke="#C4C4C4" stroke-width=".869" d="M0-.434h17.042"/><path transform="scale(1.01935 .98027) rotate(45 -4.892 1024.615)" stroke="#C4C4C4" stroke-width=".869" d="M0-.434h17.042"/><path stroke="#C4C4C4" stroke-width=".869" d="M734.464 303.104h17.372"/><path stroke="#C4C4C4" stroke-width=".695" d="M63.58 299.172h8.338v8.494H63.58z"/><path d="M67.749 305.806c-1.294 0-2.346-1.067-2.346-2.387s1.052-2.387 2.346-2.387 2.345 1.067 2.345 2.387-1.051 2.387-2.345 2.387z" fill="#C4C4C4" stroke="#C4C4C4" stroke-width=".174"/><path transform="matrix(-.70103 .71313 -.70057 -.71358 74.126 296.704)" stroke="#C4C4C4" stroke-width=".695" d="M0-.347h17.522"/><path transform="matrix(.70103 .71313 -.70149 .71268 61.148 297.411)" stroke="#C4C4C4" stroke-width=".695" d="M0-.347h17.522"/><path stroke="#C4C4C4" stroke-width=".695" d="M59.063 303.432h17.371"/><path stroke="#C4C4C4" stroke-width=".604" d="M251.145 39.999l304 526.543m-304.522.462L554.622 40.461"/><path stroke="#C4C4C4" stroke-width=".695" d="M403.365 0v608M139.572 455.699l526.543-304m-526.196 0l526.544 304"/></g></svg>