<svg width="1160" height="536" fill="none" xmlns="http://www.w3.org/2000/svg"><path d="M271 91l-87.5 113.5M271 91l313 229.5M271 91h675.5m-827.709 52a496.628 496.628 0 00405.097 210.065A496.628 496.628 0 00994.367 17" stroke="#C4C4C4"/><g clip-path="url(#clip0_218_96)"><path d="M284.106 88.05l-11.613 2.832s-.008-.005-.002-.008l9.652-7.094a.473.473 0 00.075-.691c-.163-.187-.45-.2-.65-.054l-9.612 7.066s-.008-.002-.005-.007l6.194-10.193a.486.486 0 00-.11-.643.471.471 0 00-.681.134l-6.266 10.305s-.01.002-.009-.002l1.656-11.946a.469.469 0 10-.931-.13l-1.629 11.75s-.007.007-.008.003l-2.804-11.503a.486.486 0 00-.533-.377.47.47 0 00-.386.576l2.836 11.637s-.004.007-.007.002l-7.095-9.648a.47.47 0 00-.758.555l7.078 9.632s-.002.008-.007.006l-10.21-6.209a.47.47 0 00-.667.196c-.111.222-.014.493.199.62l10.283 6.253s.002.01-.002.008l-11.947-1.657a.47.47 0 10-.129.93l11.75 1.63s.006.007.002.008l-11.503 2.804a.484.484 0 00-.376.532.47.47 0 00.576.387l11.637-2.837s.007.005.002.008l-9.649 7.095a.473.473 0 00-.101.657.475.475 0 00.657.101l9.631-7.079s.009.002.006.007l-6.195 10.189c-.141.232-.076.55.161.679a.468.468 0 00.628-.169L269.51 94.1s.01-.002.009.002l-1.656 11.946a.469.469 0 00.576.522.47.47 0 00.355-.393l1.629-11.75s.007-.006.008-.002l2.804 11.501a.485.485 0 00.532.377.47.47 0 00.387-.576l-2.837-11.637s.004-.008.008-.002l7.093 9.652a.473.473 0 00.657.102.472.472 0 00.102-.657l-7.079-9.632s.002-.008.007-.005l10.213 6.21a.468.468 0 00.635-.14c.152-.223.063-.537-.169-.676l-10.281-6.251s-.002-.01.002-.009l11.946 1.656a.469.469 0 00.53-.4.469.469 0 00-.401-.531l-11.75-1.63s-.006-.006-.002-.007l11.527-2.81a.47.47 0 00.333-.608.486.486 0 00-.579-.3l-.003-.001z" fill="#606060"/></g><defs><clipPath id="clip0_218_96"><path fill="#fff" transform="rotate(-13.7 463.58 -1008.337)" d="M0 0h30v30H0z"/></clipPath></defs></svg>