<svg width="360" height="562" fill="none" xmlns="http://www.w3.org/2000/svg"><path d="M332.5 14L122 113M332.5 13L272 267.501M333 13.5L106.5 381.499" stroke="#C4C4C4"/><g clip-path="url(#clip0_374_2177)"><path d="M344.623 12.96h-9.961s-.005-.005 0-.007l9.215-3.838a.394.394 0 00.196-.545c-.095-.183-.325-.25-.515-.172l-9.176 3.824s-.007-.004-.004-.007l7.027-7.03a.404.404 0 00.038-.542.393.393 0 00-.578-.026l-7.107 7.106s-.008 0-.006-.003l3.698-9.345a.39.39 0 10-.728-.288l-3.639 9.191s-.006.004-.006 0V1.412a.405.405 0 00-.357-.41.392.392 0 00-.427.39v9.981s-.005.005-.006 0l-3.84-9.211a.392.392 0 00-.724.3l3.83 9.195s-.003.006-.006.003l-7.042-7.042a.39.39 0 00-.578.027.402.402 0 00.038.542l7.092 7.091s0 .009-.004.007l-9.345-3.7a.39.39 0 10-.288.728l9.192 3.639s.003.006 0 .006h-9.867a.404.404 0 00-.41.357.392.392 0 00.39.427h9.982s.005.005 0 .006l-9.212 3.84a.394.394 0 00-.212.512.395.395 0 00.512.212l9.195-3.83s.007.003.003.006l-7.026 7.027c-.16.16-.17.43-.004.582a.391.391 0 00.542-.014l7.107-7.106s.008 0 .006.003l-3.698 9.345a.39.39 0 00.363.537.39.39 0 00.365-.249l3.639-9.191s.006-.004.006 0v9.865c0 .206.15.391.357.41a.392.392 0 00.427-.39v-9.982s.005-.005.006 0l3.839 9.215a.393.393 0 00.511.212.393.393 0 00.212-.512l-3.83-9.195s.003-.007.007-.003l7.043 7.043a.392.392 0 00.542.013c.166-.151.156-.423-.004-.581l-7.09-7.09s0-.009.004-.007l9.345 3.698a.392.392 0 00.288-.728l-9.192-3.638s-.003-.007 0-.007h9.887c.228 0 .41-.195.39-.427a.405.405 0 00-.41-.356l-.002-.002z" fill="#202020"/></g><defs><clipPath id="clip0_374_2177"><path fill="#fff" transform="translate(320 1)" d="M0 0h25v25H0z"/></clipPath></defs></svg>