<svg width="220" height="160" fill="none" xmlns="http://www.w3.org/2000/svg"><path d="M56.48 83.478c2.367-4.709 1.703-10.702 1.076-13.11 7.172.802 23.56 3.05 31.736 5.618 8.175 2.569 8.427 13.022 7.53 17.927-1.972 8.383-6.024 25.257-6.455 25.685-.43.429-1.793.892-2.42 1.071.269-6.422.753-20.549.538-25.686-.216-5.137-5.469-7.135-8.069-7.492L56.48 83.478zM42.763 20.602h42.494c-.807 2.319-1.937 8.134 0 12.843H79.34c1.255 4.46 3.98 14.448 4.841 18.729 1.076 5.351-1.345 8.294-2.958 10.97-1.291 2.14-2.51 2.14-2.959 1.873 1.506-6.422-.269-23.724-1.344-31.572H50.563c-.216 6.207 1.882 10.435 2.958 11.772 1.255 1.873 3.389 7.117 1.883 13.11-1.506 5.994-11.565 6.066-16.406 5.352 1.936-1.284 1.882-9.097 1.614-12.843 4.84.803 10.757 0 8.875-5.084-1.506-4.066-1.883-9.9-1.883-12.307h-5.917c1.076-1.249 2.797-5.565 1.076-12.843zM89.829 31.84c1.936-2.783.986-9.9.269-13.111l32.274 2.14c10.542 1.713 11.027 14.984 9.951 21.405l-3.228 23.545-2.689 1.338-1.076-20.067c0-10.06-4.124-12.932-6.186-13.11l-29.315-2.14zm45.453 0c2.367-3.854 2.241-10.525 1.883-13.379 1.255.268 4.679 1.017 8.337 1.873 3.658.857 4.393 3.39 4.303 4.549v6.689c6.67-.642 6.545-7.76 5.648-11.238h11.834c9.144-.267 12.013 10.97 12.64 15.519l2.421 27.29h-32.005c2.152-4.494 1.614-10.612 1.076-13.11h25.819c1.936-12.628-5.648-16.856-9.951-16.856h-17.751c-1.972 8.562-5.97 25.793-6.186 26.22-.269.536-2.151 3.747-2.42 4.282-.215.428-1.166.357-1.614.267.269-5.618 5.917-30.234 4.572-30.234-1.075 0-6.185-1.248-8.606-1.873zm53.789 2.408c2.797-4.924 4.034-13.468 4.303-17.124l7.262 2.675c.86-2.14.538-9.81.269-13.378l-1.614-1.337 1.345-3.211 3.765 1.338-1.076 3.21h-1.344c.43 5.994 0 11.416-.269 13.378.896.357 2.635 1.017 2.42.803-.215-.214 3.676-10.792 5.648-16.054l-1.076-1.337L210.049 0l3.765 1.873-1.613 3.478-1.345-.267c-.861.428-4.303 10.88-5.917 16.053l2.689 1.07c-.86-1.712 4.842-8.026 7.8-10.97l-1.076-.802 1.883-3.21L220 9.364l-2.151 3.21-1.345-.802c-5.594 4.066-7.71 8.829-8.069 10.702l5.379 2.408c-1.721 2.14-4.303 11.95-5.379 16.589-2.062-.982-6.347-2.783-6.992-2.14-.807.802-1.345 4.815-2.959 15.785-1.291 8.776-2.151 12.219-2.42 12.843-2.421 3.924-7.316 11.826-7.531 12.04-.269.268-1.076-.268-1.345-1.07-.215-.642.628-5.084 1.076-7.224 1.703-7.135 5.54-22.529 7.262-27.024 1.721-4.495 1.613-6.867 1.344-7.491l-7.799-2.944z" fill="#202020"/><path d="M173.203 70.1H168.9v4.282h2.151v11.504h-4.034c0-.802-1.076-4.013-1.614-4.816-.43-.642-.537-.089-.537.268 1.506 4.067.627 14.18 0 18.729l38.19.268c2.152 10.488 2.869 18.64 2.959 21.404v7.76c0 1.605-.538 3.745-.538 4.816 0 .856.538.891.807.802 6.024-4.067 6.454-9.543 5.916-11.772-1.255-5.619-3.872-17.285-4.303-18.997-.43-1.712-.358-3.389-.269-4.013h4.572v-7.492c0-1.498.538-4.727.807-6.154.628-.98 1.883-3.103 1.883-3.746 0-.642-.359-.624-.538-.535l-2.42 3.478h-40.343V74.382h1.614V70.1zm-7.8 50.837l5.917-10.703c1.076-.214 1.524.625 1.614 1.071-.628 1.159-1.668 4.013-.807 6.153 1.937 1.927 7.082 2.765 9.413 2.944-2.366 2.996-3.496 10.524-3.765 13.913-2.779-.179-9.037-1.017-11.834-2.944-2.797-1.926-1.524-7.759-.538-10.434z" fill="#202020"/><path d="M101.125 70.368c-.268 5.886-1.344 13.2-2.151 16.053l10.22 6.69c-.807 4.013-2.528 13.698-2.959 20.334-.43 6.635-3.765 15.072-5.378 18.461.644.554 1.753 1.044 2.958 1.606 1.614-1.606 6.993-2.944 11.565-2.141 3.657.642 4.034 2.408 3.765 3.211l-1.614 3.746 1.883.535c5.648-7.492 6.186-17.392 5.917-18.462-.215-.856-1.345-1.962-1.883-2.408-2.42-1.338-7.853-3.96-10.22-3.746-2.367.214-2.779-.981-2.689-1.605.627-4.727 1.936-14.502 2.151-15.786.215-1.284 1.166-.713 1.614-.267l31.467 28.361c3.227 3.121 10.381 8.776 13.178 6.421-1.075-6.956 3.766-17.391 4.035-18.997.215-1.284-.449-1.248-.807-1.07-.269.268-1.076 1.124-2.152 2.408-1.076 1.284-2.42.535-2.958 0l-16.406-15.518 15.33-10.167c2.689-2.14 2.689-3.479 2.152-6.957-.658-4.252-6.993-9.81-10.758-12.04.43-1.927.538-4.37.538-5.351h-1.883c-.861 4.495-2.869 7.937-3.765 9.097l-6.993 8.294 8.337 6.957c.807.802 2.152 2.408 0 4.548-2.151 2.14-5.379 2.676-6.723 2.676l-17.482-15.786c-11.565-9.097-13.537-30.77-12.91-41.74l-4.572 9.9c-.089 4.906-.376 16.321-.807 22.743z" fill="url(#paint0_linear_479_1432)"/><path d="M34.694 84.281c3.873-4.923 1.255-14.716-.538-18.997.43-.856 1.076-.178 1.345.268l1.614 4.816c1.076.1 8.158 2.539 11.565 3.746 6.723 4.548 4.303 8.294 1.075 17.926-2.581 7.706-11.475 19.086-15.599 23.813 8.607 17.659 16.675 41.204 16.406 42.274-.215.856-1.344 1.606-1.882 1.873l-16.406-33.712-13.716-31.037-8.607 2.676C8.875 92.575 5.38 86.422 3.765 84.013l5.648-2.407c-1.29-4.067-5.02-7.581-6.724-8.83l-1.075.268L0 70.1l3.227-1.605 1.345 2.676-.807 1.07.27.267c2.796 2.355 5.468 6.868 6.454 8.83.807-.268 2.367-.856 2.152-1.07-.216-.214-3.317-9.008-4.841-13.378l-1.345-.268-1.345-2.675 3.496-1.606 1.614 3.211-1.345 1.07c-.215.642 3.138 9.365 4.841 13.646l2.152-.803c-1.076-1.284-.807-8.027-.538-11.237l-.807.267-1.075-3.478 3.227-1.07 1.076 3.478-1.345.535c-1.291 6.421-.359 10.167.269 11.238l4.572-1.338c.43 3.21 4.662 10.791 6.724 14.18a742.754 742.754 0 01-5.38 1.873c-.645.214-.627.624-.537.803.86 1.712 7.172 12.843 10.22 18.194 2.6-2.587 8.445-9.151 11.027-14.716 3.227-6.956 1.613-8.83.538-10.435-.861-1.284-6.455-2.854-9.145-3.478zm28.008 60.2v6.663h-.42v-5.679c0-.082.005-.168.015-.259l-2.623 4.657c-.044.082-.107.123-.189.123h-.075c-.081 0-.144-.041-.188-.123l-2.694-4.666c.01.094.014.183.014.268v5.679h-.424v-6.663h.335a.29.29 0 01.103.014c.026.009.05.034.076.075l2.689 4.634c.047.088.087.182.122.282a2.302 2.302 0 01.132-.287l2.613-4.629c.026-.041.05-.066.076-.075a.333.333 0 01.108-.014h.33zm3.745 4.398c-.446.016-.83.052-1.154.108-.32.054-.586.127-.796.222a1.175 1.175 0 00-.462.339.698.698 0 00-.15.442c0 .157.025.294.075.41a.876.876 0 00.207.283.881.881 0 00.302.16c.113.034.23.051.353.051.182 0 .348-.018.5-.056a1.964 1.964 0 00.79-.419c.113-.097.225-.203.335-.316v-1.224zm-2.755-1.756a2.71 2.71 0 01.772-.556c.27-.126.576-.188.918-.188.251 0 .471.04.66.122.188.078.343.193.466.344.125.147.22.328.282.541.063.211.094.446.094.707v3.051h-.178c-.095 0-.153-.044-.175-.132l-.066-.603a4.49 4.49 0 01-.386.339 2.065 2.065 0 01-.843.415c-.16.038-.336.056-.527.056-.16 0-.316-.023-.466-.07a1.088 1.088 0 01-.688-.589 1.336 1.336 0 01-.103-.551c0-.198.056-.381.17-.551.112-.169.29-.317.531-.442.242-.126.551-.226.928-.302.38-.075.835-.119 1.365-.132v-.489c0-.434-.094-.766-.282-.999-.185-.235-.462-.353-.829-.353-.226 0-.419.031-.579.094a2.095 2.095 0 00-.669.415c-.069.062-.127.094-.174.094a.14.14 0 01-.085-.024.204.204 0 01-.056-.061l-.08-.136zm7.373-.038a.445.445 0 01-.047.042c-.013.01-.032.014-.057.014-.031 0-.073-.02-.127-.061a1.426 1.426 0 00-.216-.141 1.765 1.765 0 00-.839-.203c-.27 0-.51.049-.72.146a1.438 1.438 0 00-.528.41 1.87 1.87 0 00-.33.65c-.071.254-.107.54-.107.857 0 .33.037.622.113.876.078.254.188.469.33.645.14.173.311.304.512.396.201.091.424.136.67.136a1.72 1.72 0 001.176-.428c.057-.054.104-.08.142-.08.037 0 .069.015.094.047l.118.15a1.388 1.388 0 01-.273.264 1.85 1.85 0 01-.373.212c-.138.06-.288.105-.452.136-.16.035-.328.052-.504.052a2.05 2.05 0 01-.819-.16 1.84 1.84 0 01-.636-.471 2.285 2.285 0 01-.414-.758 3.272 3.272 0 01-.146-1.017c0-.358.047-.684.141-.98a2.19 2.19 0 01.415-.762c.182-.214.403-.379.664-.495.263-.119.565-.179.904-.179.304 0 .574.049.81.146a2 2 0 01.617.396l-.118.16zm1.273.165c.217-.264.463-.474.74-.631a1.88 1.88 0 01.936-.236c.258 0 .484.041.679.123.197.081.36.199.49.353.128.154.225.339.291.555.066.217.1.462.1.735v2.995h-.453v-2.995c0-.439-.1-.783-.301-1.031-.201-.251-.507-.377-.919-.377-.304 0-.59.079-.857.236a2.379 2.379 0 00-.706.645v3.522h-.452v-6.852h.452v2.958zm6.11-.867c.336 0 .636.058.9.174.267.113.491.275.673.485.182.211.32.465.415.763.097.295.146.627.146.994s-.049.698-.146.994a2.137 2.137 0 01-.415.758 1.81 1.81 0 01-.673.485 2.264 2.264 0 01-.9.169c-.335 0-.637-.056-.904-.169a1.866 1.866 0 01-.673-.485 2.197 2.197 0 01-.42-.758 3.268 3.268 0 01-.14-.994c0-.367.047-.699.14-.994.098-.298.238-.552.42-.763.185-.21.41-.372.673-.485a2.25 2.25 0 01.904-.174zm0 4.469c.28 0 .523-.047.73-.141a1.39 1.39 0 00.523-.415c.141-.179.247-.394.316-.645a3.25 3.25 0 00.103-.852c0-.311-.034-.593-.103-.848a1.795 1.795 0 00-.316-.65 1.371 1.371 0 00-.523-.419 1.706 1.706 0 00-.73-.146c-.279 0-.524.049-.734.146a1.421 1.421 0 00-.523.419 1.905 1.905 0 00-.315.65 3.24 3.24 0 00-.104.848c0 .314.035.598.104.852.072.251.177.466.315.645.141.179.316.317.523.415.21.094.455.141.734.141zm3.355-3.574c.216-.27.466-.487.748-.65.286-.163.603-.245.951-.245.258 0 .484.041.678.123.198.081.361.199.49.353.129.154.226.339.292.555.066.217.1.462.1.735v2.995h-.453v-2.995c0-.439-.1-.783-.301-1.031-.201-.251-.507-.377-.919-.377-.304 0-.59.079-.857.236a2.379 2.379 0 00-.706.645v3.522h-.452v-4.685h.25c.078 0 .124.039.136.117l.042.702zm10.856-2.632a.366.366 0 01-.065.193l-4.23 5.905h4.262v.4H87.72v-.174c0-.035.004-.065.014-.09a.646.646 0 01.042-.08l4.238-5.919h-4.172v-.4h4.817v.165zm1.128 1.813v4.685h-.447v-4.685h.447zm.193-1.616a.44.44 0 01-.259.377.395.395 0 01-.32 0 .437.437 0 01-.221-.217.397.397 0 010-.32.407.407 0 01.221-.226.395.395 0 01.32 0 .422.422 0 01.222.226c.025.05.037.104.037.16zm.934 6.301v-4.685h.25c.078 0 .124.039.136.117l.043.678c.182-.26.39-.471.626-.631.236-.16.5-.24.796-.24.342 0 .615.099.82.297.207.198.346.472.418.824a1.492 1.492 0 011.017-1.055c.157-.044.318-.066.48-.066.233 0 .442.039.627.118.185.075.342.188.471.339.129.151.228.336.297.556.069.219.103.471.103.753v2.995h-.447v-2.995c0-.458-.099-.807-.297-1.045-.197-.242-.48-.363-.847-.363-.164 0-.32.03-.471.09a1.14 1.14 0 00-.396.268 1.296 1.296 0 00-.273.438c-.066.176-.099.38-.099.612v2.995h-.452v-2.995c0-.455-.09-.804-.273-1.045-.179-.242-.443-.363-.791-.363-.254 0-.49.075-.707.226a2.17 2.17 0 00-.579.626v3.551h-.452zm7.536-3.555c.073-.192.154-.361.245-.509.095-.151.201-.278.321-.381.122-.104.257-.182.405-.236a1.42 1.42 0 01.499-.084c.097 0 .193.009.287.028a.677.677 0 01.249.089l-.037.311c-.016.05-.046.075-.09.075a.733.733 0 01-.174-.033 1.109 1.109 0 00-.301-.033c-.182 0-.344.029-.485.085a1.123 1.123 0 00-.377.245c-.11.11-.207.247-.292.41a3.87 3.87 0 00-.226.555v3.033h-.452v-4.685h.24c.053 0 .091.011.113.033.022.021.036.059.042.113l.033.984zm4.952 1.29c-.446.016-.83.052-1.153.108a3.272 3.272 0 00-.796.222 1.175 1.175 0 00-.462.339.7.7 0 00-.15.442c0 .157.025.294.075.41a.868.868 0 00.207.283.88.88 0 00.301.16c.113.034.231.051.354.051.182 0 .348-.018.499-.056a1.968 1.968 0 00.791-.419c.113-.097.224-.203.334-.316v-1.224zm-2.755-1.756c.245-.245.503-.431.773-.556.27-.126.576-.188.918-.188.251 0 .471.04.659.122.189.078.344.193.466.344.126.147.22.328.283.541.063.211.094.446.094.707v3.051h-.179c-.094 0-.152-.044-.174-.132l-.066-.603a4.504 4.504 0 01-.386.339 2.06 2.06 0 01-.843.415c-.16.038-.336.056-.527.056-.161 0-.316-.023-.467-.07a1.22 1.22 0 01-.405-.217 1.085 1.085 0 01-.282-.372 1.338 1.338 0 01-.104-.551c0-.198.057-.381.17-.551.113-.169.29-.317.532-.442.242-.126.551-.226.928-.302a8.185 8.185 0 011.365-.132v-.489c0-.434-.094-.766-.282-.999-.186-.235-.462-.353-.829-.353-.226 0-.419.031-.579.094a2.105 2.105 0 00-.669.415c-.069.062-.127.094-.174.094a.14.14 0 01-.085-.024.21.21 0 01-.057-.061l-.08-.136zm5.449 4.096c-.317 0-.565-.088-.744-.263-.176-.176-.264-.448-.264-.815v-3.202h-.673a.13.13 0 01-.085-.028.1.1 0 01-.033-.08v-.175l.801-.056.113-1.677a.166.166 0 01.037-.075.1.1 0 01.08-.033h.212v1.79h1.479v.334h-1.479v3.178c0 .129.016.241.047.335.035.091.08.166.137.226.06.059.129.103.207.132a.752.752 0 00.254.042.82.82 0 00.292-.047 1.54 1.54 0 00.212-.108c.06-.041.109-.077.146-.109.038-.034.068-.051.09-.051.025 0 .05.015.075.047l.122.197a1.328 1.328 0 01-.456.321 1.432 1.432 0 01-.57.117zm8.917-6.738v6.663h-.485v-3.193h-4.173v3.193h-.485v-6.663h.485v3.108h4.173v-3.108h.485zm3.741 4.398a8.69 8.69 0 00-1.153.108 3.272 3.272 0 00-.796.222 1.182 1.182 0 00-.462.339.7.7 0 00-.15.442c0 .157.025.294.075.41a.868.868 0 00.207.283.885.885 0 00.302.16c.113.034.23.051.353.051.182 0 .348-.018.499-.056a1.968 1.968 0 00.791-.419c.113-.097.225-.203.334-.316v-1.224zM120 147.123c.244-.245.502-.431.772-.556.27-.126.576-.188.918-.188.251 0 .471.04.659.122.189.078.344.193.467.344.125.147.219.328.282.541.063.211.094.446.094.707v3.051h-.179c-.094 0-.152-.044-.174-.132l-.066-.603a4.357 4.357 0 01-.386.339 2.087 2.087 0 01-1.37.471c-.16 0-.316-.023-.466-.07a1.2 1.2 0 01-.405-.217 1.075 1.075 0 01-.283-.372 1.338 1.338 0 01-.104-.551c0-.198.057-.381.17-.551.113-.169.29-.317.532-.442.242-.126.551-.226.928-.302.38-.075.835-.119 1.365-.132v-.489c0-.434-.094-.766-.282-.999-.185-.235-.462-.353-.829-.353-.226 0-.419.031-.579.094a2.065 2.065 0 00-.4.207c-.11.076-.2.145-.269.208-.069.062-.127.094-.174.094a.14.14 0 01-.085-.024.194.194 0 01-.056-.061l-.08-.136zm4.395-3.094c.107.191.179.397.217.617.041.216.047.433.019.649a2.017 2.017 0 01-.179.627 1.8 1.8 0 01-.372.522l-.127-.084c-.025-.019-.038-.041-.038-.066a.102.102 0 01.028-.061c.101-.132.178-.28.231-.443a1.797 1.797 0 00.057-1.003 1.552 1.552 0 00-.17-.457c-.05-.088-.036-.149.043-.184l.291-.117zm3.506 4.85c-.446.016-.83.052-1.154.108-.32.054-.585.127-.795.222a1.175 1.175 0 00-.462.339.7.7 0 00-.151.442c0 .157.026.294.076.41a.868.868 0 00.207.283.88.88 0 00.301.16c.113.034.231.051.354.051.182 0 .348-.018.499-.056a1.968 1.968 0 00.791-.419c.113-.097.224-.203.334-.316v-1.224zm-2.755-1.756c.245-.245.503-.431.773-.556.27-.126.576-.188.918-.188.251 0 .471.04.659.122.189.078.344.193.466.344.126.147.22.328.283.541.063.211.094.446.094.707v3.051h-.179c-.094 0-.152-.044-.174-.132l-.066-.603a4.504 4.504 0 01-.386.339 2.06 2.06 0 01-.843.415c-.16.038-.336.056-.527.056-.161 0-.316-.023-.467-.07a1.22 1.22 0 01-.405-.217 1.085 1.085 0 01-.282-.372 1.338 1.338 0 01-.104-.551c0-.198.057-.381.17-.551.113-.169.29-.317.532-.442.242-.126.551-.226.928-.302a8.185 8.185 0 011.365-.132v-.489c0-.434-.094-.766-.282-.999-.186-.235-.462-.353-.829-.353-.226 0-.419.031-.579.094a2.105 2.105 0 00-.669.415c-.069.062-.127.094-.174.094a.14.14 0 01-.085-.024.21.21 0 01-.057-.061l-.08-.136zm4.652.466a2.94 2.94 0 01.245-.509c.094-.151.201-.278.32-.381.122-.104.257-.182.405-.236.151-.056.317-.084.499-.084.097 0 .193.009.287.028a.682.682 0 01.25.089l-.038.311c-.016.05-.045.075-.089.075a.73.73 0 01-.175-.033 1.104 1.104 0 00-.301-.033c-.182 0-.344.029-.485.085a1.123 1.123 0 00-.377.245c-.11.11-.207.247-.292.41-.081.16-.157.345-.226.555v3.033h-.452v-4.685h.24c.054 0 .091.011.113.033.022.021.037.059.043.113l.033.984zm5.45.739c0-.251-.036-.476-.108-.673a1.4 1.4 0 00-.297-.509 1.276 1.276 0 00-.462-.315 1.45 1.45 0 00-.583-.113c-.242 0-.459.037-.65.113a1.435 1.435 0 00-.499.324c-.139.142-.25.311-.335.509a2.351 2.351 0 00-.169.664h3.103zm-3.127.287v.09c0 .351.041.661.123.927.081.267.197.492.348.674.151.179.333.314.546.405.214.091.452.136.716.136.236 0 .44-.025.612-.075a2.368 2.368 0 00.716-.348c.069-.054.119-.08.151-.08.041 0 .072.015.094.047l.122.15a1.257 1.257 0 01-.301.264 2.144 2.144 0 01-.414.212 3.094 3.094 0 01-1.013.188c-.32 0-.612-.055-.876-.165a1.896 1.896 0 01-.678-.489 2.266 2.266 0 01-.438-.782c-.1-.311-.15-.666-.15-1.064 0-.336.047-.645.141-.928.097-.286.235-.53.414-.735.182-.207.404-.368.664-.485.264-.116.562-.174.895-.174.264 0 .508.046.734.137.227.091.423.224.589.4.166.173.297.386.391.64.097.255.146.547.146.876 0 .069-.009.117-.028.142-.019.025-.051.037-.095.037h-3.409zm5.543 2.604c-.317 0-.565-.088-.744-.263-.176-.176-.264-.448-.264-.815v-3.202h-.673a.13.13 0 01-.085-.028.1.1 0 01-.033-.08v-.175l.801-.056.113-1.677a.176.176 0 01.037-.075.1.1 0 01.08-.033h.212v1.79h1.479v.334h-1.479v3.178c0 .129.016.241.047.335.035.091.08.166.137.226.06.059.129.103.207.132a.752.752 0 00.254.042.82.82 0 00.292-.047 1.54 1.54 0 00.212-.108c.06-.041.109-.077.146-.109.038-.034.068-.051.09-.051.025 0 .05.015.075.047l.123.197c-.12.132-.272.239-.457.321a1.432 1.432 0 01-.57.117zm4.551-4.76v.188a.274.274 0 01-.065.179l-2.934 3.965h2.882v.353h-3.424v-.179a.3.3 0 01.071-.174l2.943-3.979h-2.858v-.353h3.385zm-71.751-45.054v-4.816c.09-.178.269-.428.269 0s.179 1.249.268 1.606c.807-.357 2.421-.535 2.421 1.605 0 2.676-1.345 3.746-1.614 3.746-.215 0-.269-.178-.269-.268.861-.642.897-2.051.807-2.675h-1.345v.802h-.537zm-12.91 12.575c.364-.523.135-1.936 0-2.54h5.853c1.984.322 2.075 2.819 1.873 4.027l-.464 3.329c-.146.31-.313.434-.807.536l-.27-3.211c0-1.893-.55-2.181-.939-2.215l-5.246.074zm16.406-.585c.406-.679.384-1.855.323-2.357.215.047.802.179 1.429.33.627.15.753.597.738.801v1.179c1.143-.113 1.122-1.367.968-1.98h2.028c1.568-.048 2.06 1.933 2.168 2.734l.414 4.809h-5.486c.369-.792.276-1.87.184-2.31h4.426c.332-2.225-.968-2.97-1.706-2.97h-3.042c-.339 1.508-1.024 4.545-1.06 4.62-.047.094-.37.66-.416.754-.037.076-.2.063-.276.047.046-.99 1.014-5.327.783-5.327-.184 0-1.06-.22-1.475-.33zm-9.616 11.29H57.19c0-.126-.172-.632-.258-.758-.068-.101-.085-.014-.085.042.24.64.1 2.233 0 2.949l6.084.042c.342 1.652.457 2.935.47 3.371v1.221c0 .253-.085.59-.085.759 0 .134.086.14.129.126.96-.64 1.028-1.503.942-1.854-.2-.884-.617-2.721-.685-2.991a1.816 1.816 0 01-.043-.632h.728v-1.179c0-.236.086-.745.129-.969.1-.155.3-.489.3-.59 0-.101-.057-.099-.086-.084l-.386.547zm-7.412 5.519l.943-1.685c.172-.034.243.098.257.168-.1.183-.265.632-.128.969.308.304 1.128.436 1.5.464-.378.472-.558 1.657-.6 2.191-.443-.028-1.44-.16-1.886-.464-.445-.303-.243-1.222-.086-1.643z" fill="#202020"/><path d="M73.45 111.382h-7.726c0-.138-.185-.691-.278-.829-.074-.11-.093-.015-.093.046.26.7.109 2.44 0 3.222l6.571.047c.37 1.804.493 3.206.509 3.682v1.335c0 .276-.093.644-.093.829 0 .147.093.153.14.138 1.036-.7 1.11-1.642 1.017-2.026-.216-.966-.666-2.973-.74-3.268a2.001 2.001 0 01-.046-.69h.786v-1.289c0-.258.093-.814.139-1.059.108-.169.324-.534.324-.645 0-.11-.062-.107-.093-.092l-.416.599zm-11.593-5.428v-2.408h1.345c.645-.214.269-1.873 0-2.676h-.807v-2.675h7.53v2.675h-.806c.09.446.323 1.445.538 1.873.269.535 0 1.873-.27 2.943-.214.857-.448.357-.537 0 .43-.428-.18-3.389-.538-4.816h-4.303c0 .09.107.696.538 2.408.43 1.713-.18 2.498-.538 2.676h-2.152zm12.641-5.351c.43-.214 0-2.23-.269-3.21.09 0 .323.053.538.267.215.214.27.446.27.535h5.647l.538-.535c.215-.214.09.624 0 1.07v4.816c.269-.178.807-.589.807-.803 0-.267.269 0 .269.268 0 .267-1.076 2.943-.807 2.943h-6.993v-2.408h5.917v-2.943h-5.917zm-5.109 26.488c.43-.214 0-2.23-.27-3.211.09 0 .323.053.538.267.216.214.27.446.27.536h5.647l.538-.536c.216-.214.09.625 0 1.071v4.816c.27-.179.807-.589.807-.803 0-.268.27 0 .27.268 0 .267-1.077 2.943-.808 2.943H69.39v-2.408h5.916v-2.943H69.39zm-22.324-13.11v-2.408h2.958v2.408h-1.075l.806 2.408.807-.268c.538-.357 1.668-1.177 1.883-1.605.215-.428-.986-.714-1.614-.803v-3.478h.538c-.18.357-.269 1.124.807 1.338 2.152.267 1.345 2.14 1.345 2.943 0 .642-1.793 1.694-2.69 2.14h2.69c.269-.089 1.075-.481 2.151-1.338 1.076-.856-.448-1.248-1.344-1.337l.269-2.676c1.613.535 2.958-.535 2.151 3.478-.645 3.211-5.11 4.549-7.261 4.816l-.27-2.943-.806-2.675h-1.345zm30.93 13.377v-2.408h2.69v2.408h-.539c.27.535 1.883 3.211 2.152 4.281.269 1.07-1.076 1.338-.807 1.07.215-.214-.09-1.516-.269-2.14h-.538c0 .357-.053 1.231-.269 1.873-.215.642-1.882.267-2.69 0 .431 0 .539-1.606.539-2.408.269.089 1.022.214 1.882 0 .861-.214-.179-1.873-.806-2.676h-1.345zm-12.642-2.675v2.676h1.883c.43.642.538 3.835.538 5.351.807-.535.538-5.084.538-6.422 0-1.07-.538-1.516-.807-1.605h-2.151z" fill="#202020"/><defs><linearGradient id="paint0_linear_479_1432" x1="99.001" y1="64.14" x2="156.793" y2="129.258" gradientUnits="userSpaceOnUse"><stop stop-color="#BD22C0"/><stop offset="1" stop-color="#643793"/></linearGradient></defs></svg>