<svg width="82" height="60" fill="none" xmlns="http://www.w3.org/2000/svg"><path d="M21.051 31.304c.882-1.766.635-4.013.401-4.916 2.673.3 8.782 1.143 11.83 2.107 3.047.963 3.14 4.883 2.806 6.722-.735 3.144-2.245 9.472-2.406 9.632-.16.16-.668.335-.902.402.1-2.408.28-7.706.2-9.633-.08-1.926-2.038-2.675-3.007-2.809l-8.922-1.505zM15.94 7.726h15.838c-.301.87-.722 3.05 0 4.816h-2.206c.468 1.672 1.484 5.418 1.805 7.023.4 2.007-.502 3.11-1.103 4.114-.481.802-.936.802-1.103.702.562-2.408-.1-8.896-.5-11.84h-9.825c-.08 2.328.702 3.914 1.103 4.415.468.703 1.263 2.67.702 4.917-.562 2.247-4.311 2.274-6.115 2.006.721-.481.701-3.41.601-4.816 1.805.301 4.01 0 3.308-1.906-.561-1.525-.701-3.712-.701-4.615h-2.206c.401-.469 1.043-2.087.401-4.816zm17.542 4.214c.721-1.044.367-3.713.1-4.917l12.03.803c3.929.642 4.11 5.619 3.708 8.027l-1.203 8.83-1.002.501-.401-7.525c0-3.773-1.537-4.85-2.306-4.916l-10.926-.803zm16.941 0c.882-1.445.835-3.947.702-5.017.468.1 1.744.381 3.107.702 1.364.321 1.638 1.271 1.604 1.706v2.508c2.486-.24 2.44-2.91 2.105-4.214h4.411c3.408-.1 4.478 4.114 4.712 5.82l.902 10.234h-11.93c.803-1.686.602-3.98.402-4.917h9.623c.722-4.736-2.105-6.32-3.709-6.32h-6.616c-.735 3.21-2.225 9.671-2.306 9.832-.1.2-.801 1.405-.902 1.605-.08.16-.434.134-.601.1.1-2.106 2.205-11.337 1.704-11.337-.401 0-2.306-.468-3.208-.702zm20.049.903c1.043-1.846 1.504-5.05 1.604-6.422l2.706 1.004c.321-.803.2-3.68.1-5.017l-.6-.502.5-1.204 1.404.502-.401 1.204h-.501c.16 2.248 0 4.281-.1 5.017.334.134.982.381.902.3-.08-.08 1.37-4.046 2.105-6.02l-.401-.501.5-1.204 1.403.702-.601 1.305-.501-.1c-.321.16-1.604 4.08-2.206 6.02l1.003.4c-.321-.641 1.804-3.01 2.907-4.113l-.401-.301.702-1.204L82 3.512l-.802 1.204-.501-.301c-2.085 1.525-2.874 3.31-3.008 4.013l2.005.903c-.641.803-1.603 4.482-2.005 6.22-.768-.367-2.365-1.043-2.606-.802-.3.301-.501 1.806-1.102 5.92-.482 3.29-.802 4.582-.903 4.816-.902 1.471-2.726 4.435-2.807 4.515-.1.1-.4-.1-.5-.401-.081-.241.233-1.907.4-2.71.635-2.675 2.065-8.447 2.707-10.133.641-1.686.601-2.575.501-2.81l-2.907-1.103z" fill="#202020"/><path d="M64.558 26.288h-1.604v1.605h.801v4.315h-1.503c0-.301-.401-1.505-.602-1.806-.16-.241-.2-.034-.2.1.561 1.525.234 5.318 0 7.024l14.235.1c.802 3.933 1.069 6.99 1.102 8.027v2.91c0 .601-.2 1.404-.2 1.805 0 .321.2.335.3.301 2.246-1.525 2.406-3.578 2.206-4.414-.468-2.107-1.444-6.482-1.604-7.124a4.396 4.396 0 01-.1-1.505h1.704v-2.81c0-.561.2-1.772.3-2.307.235-.368.702-1.164.702-1.405 0-.24-.133-.234-.2-.2l-.902 1.304H63.956v-4.315h.602v-1.605zM61.65 45.352l2.206-4.014c.4-.08.568.234.601.402-.234.434-.621 1.505-.3 2.307.721.723 2.64 1.037 3.508 1.104-.882 1.124-1.303 3.946-1.403 5.217-1.036-.067-3.369-.38-4.411-1.103-1.043-.723-.568-2.91-.2-3.913z" fill="#202020"/><path d="M37.692 26.388c-.1 2.208-.501 4.95-.802 6.02l3.81 2.509c-.302 1.505-.943 5.137-1.104 7.625-.16 2.488-1.403 5.652-2.004 6.923.24.208.653.392 1.102.602.602-.602 2.607-1.103 4.31-.803 1.364.241 1.505.903 1.404 1.204l-.601 1.405.701.2c2.106-2.809 2.306-6.52 2.206-6.922-.08-.321-.501-.736-.702-.903-.902-.502-2.927-1.485-3.81-1.405-.881.08-1.035-.368-1.002-.602.234-1.773.722-5.438.802-5.92.08-.481.435-.267.602-.1l11.728 10.636c1.203 1.17 3.87 3.29 4.912 2.407-.4-2.608 1.404-6.521 1.504-7.123.08-.482-.167-.468-.3-.402-.1.1-.402.422-.803.903-.4.482-.902.201-1.102 0l-6.115-5.819 5.714-3.813c1.002-.802 1.002-1.304.802-2.608-.245-1.595-2.607-3.68-4.01-4.515.16-.723.2-1.64.2-2.007h-.701c-.321 1.686-1.07 2.977-1.404 3.411l-2.606 3.11 3.108 2.61c.3.3.801.902 0 1.705-.803.803-2.005 1.003-2.507 1.003l-6.516-5.92c-4.31-3.41-5.045-11.538-4.811-15.651l-1.704 3.712c-.034 1.84-.14 6.12-.301 8.528z" fill="url(#paint0_linear_501_488)"/><path d="M12.931 31.605c1.444-1.846.468-5.518-.2-7.123.16-.322.401-.067.501.1l.602 1.806c.4.037 3.04.952 4.31 1.405 2.506 1.705 1.604 3.11.401 6.722-.962 2.89-4.277 7.157-5.814 8.93 3.208 6.622 6.215 15.451 6.115 15.853-.08.32-.501.602-.702.702L12.03 47.358 6.917 35.719l-3.208 1.003c-.4-2.006-1.704-4.314-2.306-5.217l2.106-.903c-.482-1.525-1.872-2.843-2.507-3.311l-.4.1L0 26.288l1.203-.602.501 1.003-.3.401.1.1c1.042.884 2.038 2.576 2.406 3.312.3-.1.882-.321.801-.402-.08-.08-1.236-3.378-1.804-5.016l-.501-.1-.501-1.004 1.303-.602.601 1.204-.5.401c-.081.241 1.169 3.512 1.803 5.117l.802-.3c-.4-.482-.3-3.01-.2-4.215l-.3.1-.402-1.304 1.203-.401.401 1.304-.501.201c-.481 2.408-.134 3.813.1 4.214l1.704-.502c.16 1.204 1.738 4.047 2.506 5.318-.568.2-1.764.622-2.004.702-.241.08-.234.235-.2.301.32.642 2.672 4.816 3.808 6.823.97-.97 3.148-3.431 4.11-5.518 1.203-2.609.602-3.311.2-3.913-.32-.482-2.405-1.07-3.407-1.305zm12.791 22.52v4.554h-.287v-3.881c0-.056.004-.115.01-.177l-1.793 3.182c-.03.056-.073.084-.128.084h-.052c-.056 0-.099-.028-.129-.084l-1.84-3.189c.006.065.01.126.01.184v3.88h-.29v-4.553h.228c.03 0 .054.003.07.01.018.006.035.023.052.051l1.838 3.167c.032.06.06.124.084.193a1.42 1.42 0 01.09-.196l1.786-3.164c.017-.028.034-.045.051-.051a.24.24 0 01.074-.01h.226zm2.559 3.006c-.305.01-.567.035-.788.074-.22.036-.4.087-.544.151a.806.806 0 00-.316.232.479.479 0 00-.103.302c0 .108.017.2.052.28a.594.594 0 00.141.193c.06.05.13.086.206.11a.821.821 0 00.242.035c.124 0 .238-.013.34-.039a1.333 1.333 0 00.541-.286c.078-.066.154-.138.229-.215v-.837zm-1.883-1.2a1.86 1.86 0 01.528-.38c.185-.086.394-.13.628-.13.171 0 .322.029.45.085a.798.798 0 01.319.234c.086.101.15.225.193.37.043.144.064.305.064.483v2.086h-.122c-.064 0-.104-.03-.12-.09l-.044-.412a3.183 3.183 0 01-.264.231 1.399 1.399 0 01-.576.283c-.11.026-.23.04-.36.04a1.05 1.05 0 01-.32-.05.747.747 0 01-.47-.402.915.915 0 01-.07-.376c0-.135.039-.26.116-.376a.95.95 0 01.364-.303c.165-.086.376-.154.634-.206.26-.051.57-.081.933-.09v-.335c0-.296-.064-.523-.193-.682-.127-.16-.316-.241-.567-.241a1.08 1.08 0 00-.395.064 1.37 1.37 0 00-.274.142 1.738 1.738 0 00-.183.141c-.048.043-.087.065-.12.065a.097.097 0 01-.057-.017.144.144 0 01-.039-.041l-.055-.094zm5.04-.026a.383.383 0 01-.033.029.064.064 0 01-.039.01c-.021 0-.05-.015-.087-.043a.989.989 0 00-.148-.096 1.187 1.187 0 00-.572-.139 1.16 1.16 0 00-.493.1.977.977 0 00-.36.28c-.099.123-.174.27-.226.444-.049.174-.073.37-.073.586 0 .225.025.425.077.599.053.173.128.32.225.44a.961.961 0 00.35.27c.138.063.29.094.458.094a1.171 1.171 0 00.804-.293c.039-.036.071-.054.097-.054a.08.08 0 01.064.032l.08.103a.94.94 0 01-.186.18c-.075.056-.16.104-.254.145a1.48 1.48 0 01-.31.093 1.63 1.63 0 01-.344.035 1.4 1.4 0 01-.56-.109 1.255 1.255 0 01-.434-.322 1.563 1.563 0 01-.283-.518 2.237 2.237 0 01-.1-.695c0-.245.032-.468.097-.67a1.49 1.49 0 01.283-.52 1.25 1.25 0 01.454-.339 1.49 1.49 0 01.617-.122 1.366 1.366 0 01.975.37l-.08.11zm.87.112a1.79 1.79 0 01.505-.431c.19-.107.404-.16.64-.16.176 0 .33.027.463.083a.852.852 0 01.335.241c.088.105.155.232.2.38.045.148.067.315.067.502v2.047h-.309v-2.047c0-.3-.068-.535-.206-.705-.137-.172-.346-.257-.627-.257-.208 0-.404.053-.586.16a1.66 1.66 0 00-.483.442v2.407h-.309v-4.683h.31v2.021zm4.175-.592c.23 0 .435.04.615.12.182.076.336.187.46.33.124.144.219.318.283.522.067.202.1.428.1.68 0 .25-.033.476-.1.678a1.458 1.458 0 01-.283.518 1.236 1.236 0 01-.46.332 1.55 1.55 0 01-.615.116c-.23 0-.435-.04-.618-.116a1.272 1.272 0 01-.46-.332 1.497 1.497 0 01-.286-.518 2.227 2.227 0 01-.097-.679c0-.251.032-.477.097-.679.066-.204.162-.378.286-.521.127-.144.28-.255.46-.332.183-.08.389-.119.618-.119zm0 3.054c.191 0 .357-.032.499-.096a.945.945 0 00.357-.284c.097-.122.169-.269.216-.44.047-.174.07-.368.07-.583 0-.212-.023-.405-.07-.58a1.226 1.226 0 00-.216-.443.933.933 0 00-.357-.287 1.163 1.163 0 00-.499-.1c-.19 0-.358.034-.502.1a.966.966 0 00-.357.287 1.3 1.3 0 00-.216.444c-.047.174-.07.367-.07.58 0 .214.023.408.07.581.05.172.122.32.216.441a.979.979 0 00.357.284c.144.064.311.096.502.096zm2.292-2.442c.148-.185.319-.333.512-.444.195-.112.412-.168.65-.168.176 0 .33.028.464.084a.851.851 0 01.334.241c.088.105.155.232.2.38.045.148.067.315.067.502v2.047h-.309v-2.047c0-.3-.068-.535-.206-.705-.137-.172-.346-.257-.627-.257-.208 0-.404.053-.586.16a1.66 1.66 0 00-.483.442v2.407h-.308v-3.202h.17c.054 0 .085.026.093.08l.03.48zm7.42-1.8a.25.25 0 01-.045.133l-2.89 4.035h2.913v.274h-3.354v-.12c0-.023.003-.043.01-.06a.43.43 0 01.029-.055l2.896-4.046h-2.851v-.273h3.292v.113zm.77 1.24v3.202h-.305v-3.202h.306zm.133-1.104a.242.242 0 01-.026.11.303.303 0 01-.151.147.27.27 0 01-.219 0 .291.291 0 01-.151-.148.27.27 0 010-.219.284.284 0 01.26-.177.29.29 0 01.26.177.235.235 0 01.027.11zm.638 4.306v-3.202h.17c.054 0 .085.026.094.08l.029.463a1.67 1.67 0 01.428-.43.945.945 0 01.544-.165c.234 0 .42.068.56.203.141.135.237.323.286.563a1.015 1.015 0 01.695-.72 1.21 1.21 0 01.757.035.827.827 0 01.321.231c.088.103.156.23.203.38.047.15.07.322.07.515v2.047h-.305v-2.047c0-.313-.067-.551-.203-.715-.135-.165-.328-.247-.579-.247a.868.868 0 00-.322.06.787.787 0 00-.27.184.889.889 0 00-.187.3 1.19 1.19 0 00-.067.418v2.047h-.31v-2.047c0-.311-.061-.55-.186-.715-.122-.165-.302-.247-.54-.247a.828.828 0 00-.483.154 1.48 1.48 0 00-.396.428v2.427h-.309zm5.15-2.43c.05-.13.105-.247.168-.348.064-.103.137-.19.218-.26a.9.9 0 01.277-.161.965.965 0 01.341-.058c.067 0 .132.006.197.02.064.01.121.03.17.06l-.025.213c-.011.034-.032.051-.062.051a.497.497 0 01-.119-.022.76.76 0 00-.206-.023.887.887 0 00-.331.058.762.762 0 00-.258.167 1.128 1.128 0 00-.2.28 2.68 2.68 0 00-.154.38v2.073h-.309v-3.202h.165c.036 0 .062.007.077.022s.024.04.029.077l.022.673zm3.384.882c-.304.01-.567.035-.788.074a2.25 2.25 0 00-.544.151.806.806 0 00-.315.232.479.479 0 00-.103.302c0 .108.017.2.051.28a.594.594 0 00.142.193c.06.05.129.086.206.11a.821.821 0 00.241.035c.125 0 .238-.013.341-.039a1.333 1.333 0 00.54-.286c.078-.066.154-.138.23-.215v-.837zm-1.882-1.2a1.86 1.86 0 01.528-.38c.184-.086.393-.13.627-.13.172 0 .322.029.45.085a.798.798 0 01.32.234c.085.101.15.225.192.37.043.144.065.305.065.483v2.086h-.123c-.064 0-.104-.03-.119-.09l-.045-.412a3.2 3.2 0 01-.264.231 1.399 1.399 0 01-.576.283c-.11.026-.23.04-.36.04-.11 0-.216-.017-.319-.05a.747.747 0 01-.47-.402.915.915 0 01-.07-.376c0-.135.038-.26.116-.376a.95.95 0 01.363-.303c.165-.086.377-.154.634-.206.26-.051.57-.081.933-.09v-.335c0-.296-.064-.523-.193-.682-.126-.16-.315-.241-.566-.241-.155 0-.287.021-.396.064-.107.043-.198.09-.273.142a1.738 1.738 0 00-.184.141c-.047.043-.087.065-.119.065a.097.097 0 01-.058-.017.144.144 0 01-.038-.041l-.055-.094zm3.723 2.8c-.216 0-.386-.06-.508-.181-.12-.12-.18-.306-.18-.557v-2.188h-.46a.086.086 0 01-.059-.02.068.068 0 01-.022-.054v-.12l.547-.038.077-1.145a.117.117 0 01.026-.052.068.068 0 01.055-.023h.145v1.223h1.01v.229h-1.01v2.172c0 .088.01.164.032.229a.38.38 0 00.235.245.51.51 0 00.173.028c.078 0 .144-.01.2-.032.056-.024.104-.048.145-.074.04-.028.074-.053.1-.074.025-.024.046-.035.06-.035.018 0 .035.01.052.032l.084.135a.972.972 0 01-.702.3zm6.094-4.606v4.554h-.331v-2.182h-2.852v2.182h-.331v-4.554h.331v2.124h2.852v-2.124h.331zm2.557 3.006c-.304.01-.567.035-.788.074a2.25 2.25 0 00-.544.151.806.806 0 00-.316.232.479.479 0 00-.103.302c0 .108.018.2.052.28a.594.594 0 00.142.193c.06.05.128.086.206.11a.821.821 0 00.241.035c.124 0 .238-.013.341-.039a1.333 1.333 0 00.54-.286 3.54 3.54 0 00.23-.215v-.837zm-1.882-1.2a1.86 1.86 0 01.527-.38c.185-.086.394-.13.628-.13.172 0 .322.029.45.085a.798.798 0 01.32.234c.085.101.15.225.192.37.043.144.064.305.064.483v2.086h-.122c-.064 0-.104-.03-.119-.09l-.045-.412a3.183 3.183 0 01-.264.231 1.399 1.399 0 01-.576.283c-.11.026-.23.04-.36.04-.11 0-.216-.017-.319-.05a.747.747 0 01-.47-.402.915.915 0 01-.07-.376c0-.135.038-.26.115-.376a.95.95 0 01.364-.303c.165-.086.377-.154.634-.206.26-.051.57-.081.933-.09v-.335c0-.296-.064-.523-.193-.682-.126-.16-.315-.241-.566-.241-.155 0-.287.021-.396.064-.107.043-.198.09-.274.142a1.738 1.738 0 00-.183.141c-.047.043-.087.065-.12.065a.097.097 0 01-.057-.017.144.144 0 01-.039-.041l-.054-.094zm3.004-2.115c.073.13.122.271.148.422.028.148.032.296.013.444-.017.148-.058.29-.123.428a1.241 1.241 0 01-.254.357l-.087-.058c-.017-.013-.026-.028-.026-.045a.07.07 0 01.02-.042 1.245 1.245 0 00.08-1.3c-.034-.06-.024-.102.03-.126l.199-.08zm2.396 3.315c-.305.01-.568.035-.789.074a2.25 2.25 0 00-.544.151.806.806 0 00-.315.232.479.479 0 00-.103.302c0 .108.017.2.051.28a.594.594 0 00.142.193c.06.05.129.086.206.11a.821.821 0 00.241.035c.125 0 .239-.013.341-.039a1.333 1.333 0 00.541-.286 3.78 3.78 0 00.229-.215v-.837zm-1.883-1.2a1.86 1.86 0 01.528-.38c.184-.086.394-.13.627-.13.172 0 .322.029.45.085a.798.798 0 01.32.234c.085.101.15.225.193.37.043.144.064.305.064.483v2.086h-.122c-.065 0-.104-.03-.12-.09l-.044-.412a3.2 3.2 0 01-.264.231 1.399 1.399 0 01-.576.283c-.11.026-.23.04-.36.04-.11 0-.217-.017-.32-.05a.747.747 0 01-.47-.402.915.915 0 01-.07-.376c0-.135.038-.26.116-.376a.95.95 0 01.363-.303c.166-.086.377-.154.634-.206.26-.051.571-.081.934-.09v-.335c0-.296-.065-.523-.194-.682-.126-.16-.315-.241-.566-.241a1.089 1.089 0 00-.669.206 1.738 1.738 0 00-.184.141c-.047.043-.087.065-.119.065a.097.097 0 01-.058-.017.144.144 0 01-.038-.041l-.055-.094zm3.179.318c.05-.13.105-.247.167-.348a1.13 1.13 0 01.219-.26.9.9 0 01.277-.161.965.965 0 01.34-.058c.067 0 .133.006.197.02.065.01.121.03.17.06l-.025.213c-.01.034-.031.051-.061.051a.497.497 0 01-.12-.022.76.76 0 00-.205-.023.888.888 0 00-.332.058.76.76 0 00-.257.167 1.128 1.128 0 00-.2.28 2.68 2.68 0 00-.154.38v2.073h-.31v-3.202h.165c.037 0 .062.007.077.022s.025.04.03.077l.022.673zm3.725.505a1.32 1.32 0 00-.075-.46.959.959 0 00-.202-.347.872.872 0 00-.316-.216 1.207 1.207 0 00-.843 0 .99.99 0 00-.341.222c-.094.096-.17.212-.228.347a1.618 1.618 0 00-.116.454h2.12zm-2.137.197v.06c0 .241.028.452.083.635.056.182.135.335.238.46a.989.989 0 00.374.277c.146.062.309.093.489.093.16 0 .3-.017.418-.051a1.663 1.663 0 00.49-.239c.047-.036.08-.054.102-.054.028 0 .05.01.065.032l.083.103a.864.864 0 01-.206.18 1.458 1.458 0 01-.283.145 2.116 2.116 0 01-.692.129 1.54 1.54 0 01-.598-.113 1.285 1.285 0 01-.464-.335 1.538 1.538 0 01-.299-.534 2.361 2.361 0 01-.103-.727c0-.23.032-.441.097-.634a1.47 1.47 0 01.283-.502c.124-.142.275-.252.454-.332.18-.08.384-.119.611-.119.18 0 .348.031.502.093.155.063.289.154.402.274.114.118.203.264.268.438.066.173.1.373.1.598 0 .047-.007.08-.02.097-.013.017-.034.026-.064.026h-2.33zm3.788 1.78c-.217 0-.387-.06-.509-.181-.12-.12-.18-.306-.18-.557v-2.188h-.46a.086.086 0 01-.058-.02.068.068 0 01-.023-.054v-.12l.547-.038.078-1.145a.118.118 0 01.025-.052.068.068 0 01.055-.023h.145v1.223h1.01v.229h-1.01v2.172c0 .088.01.164.032.229a.379.379 0 00.235.245.547.547 0 00.174.028.552.552 0 00.344-.106c.04-.028.074-.053.1-.074.026-.024.046-.035.061-.035.017 0 .034.01.052.032l.083.135a.972.972 0 01-.702.3zm3.11-3.254v.128a.187.187 0 01-.045.123l-2.005 2.71h1.97v.24h-2.34v-.122c0-.036.016-.076.048-.119l2.012-2.719h-1.954v-.241h2.314zM26.264 38.026V36.22c.034-.066.1-.16.1 0 0 .161.067.469.1.602.301-.133.903-.2.903.602 0 1.004-.501 1.405-.602 1.405-.08 0-.1-.067-.1-.1.32-.241.334-.77.3-1.004h-.5v.301h-.2zm-4.812 4.716c.136-.197.05-.726 0-.953h2.182c.74.12.773 1.057.698 1.51l-.173 1.249c-.055.116-.117.162-.301.2l-.1-1.204c0-.71-.206-.817-.35-.83l-1.956.028zm6.115-.219c.151-.255.143-.696.12-.884.08.017.3.067.533.123.234.057.28.224.275.301v.442c.426-.042.418-.513.361-.743h.756c.584-.017.768.725.808 1.026l.154 1.803H28.53c.138-.297.104-.701.07-.866h1.649c.124-.835-.36-1.114-.636-1.114h-1.134a99.407 99.407 0 01-.395 1.733c-.017.035-.138.247-.155.283-.014.028-.074.023-.103.017.017-.371.378-1.998.292-1.998-.069 0-.395-.082-.55-.123zm-3.584 4.233h-2.666a.995.995 0 00-.096-.285c-.026-.037-.032-.005-.032.016.09.24.037.838 0 1.106l2.267.016c.128.62.17 1.1.176 1.264v.458c0 .095-.032.221-.032.284 0 .051.032.053.048.048.358-.24.383-.564.351-.695-.074-.332-.23-1.02-.255-1.122a.684.684 0 01-.016-.237h.271v-.442c0-.089.032-.28.048-.364.037-.058.112-.183.112-.22 0-.039-.021-.038-.032-.032l-.144.205zm-2.763 2.069l.352-.631c.064-.013.09.036.096.063-.037.068-.1.237-.048.363.115.114.42.163.559.174-.14.177-.208.621-.224.821-.165-.01-.536-.06-.702-.173-.166-.114-.09-.459-.032-.617z" fill="#202020"/><path d="M27.378 41.767h-2.881c0-.052-.069-.259-.103-.31-.028-.042-.035-.006-.035.017.097.262.04.915 0 1.208l2.45.017c.137.677.183 1.203.19 1.381v.5c0 .105-.035.243-.035.312 0 .055.034.057.051.051.387-.262.414-.615.38-.76a148.13 148.13 0 00-.276-1.225.758.758 0 01-.017-.259h.293v-.483c0-.097.034-.305.052-.397.04-.063.12-.2.12-.242 0-.041-.023-.04-.034-.034l-.155.224zm-4.322-2.035v-.903h.501c.241-.08.1-.702 0-1.003h-.3v-1.004h2.806v1.004h-.3c.033.167.12.541.2.702.1.2 0 .702-.1 1.104-.08.32-.167.133-.2 0 .16-.16-.067-1.271-.201-1.806h-1.604c0 .033.04.26.2.903.161.642-.066.936-.2 1.003h-.802zm4.712-2.007c.16-.08 0-.836-.1-1.203.033 0 .12.02.2.1.08.08.1.167.1.2h2.105l.2-.2c.081-.08.034.234 0 .401v1.806c.101-.067.302-.22.302-.3 0-.101.1 0 .1.1s-.401 1.103-.3 1.103h-2.607v-.903h2.205v-1.104h-2.205zm-1.905 9.933c.16-.08 0-.836-.1-1.204.033 0 .12.02.2.1.08.08.1.168.1.201h2.106l.2-.2c.08-.08.034.233 0 .4v1.807c.1-.067.301-.22.301-.301 0-.1.1 0 .1.1s-.4 1.104-.3 1.104h-2.607v-.903h2.206v-1.104h-2.206zm-8.32-4.915v-.903h1.102v.903h-.4l.3.903.3-.1c.201-.135.622-.442.703-.603.08-.16-.368-.267-.602-.3v-1.305h.2c-.066.134-.1.421.301.502.802.1.502.802.502 1.103 0 .241-.669.636-1.003.803h1.003c.1-.034.4-.18.801-.502.401-.32-.166-.468-.5-.501l.1-1.004c.601.2 1.102-.2.801 1.305-.24 1.204-1.904 1.705-2.706 1.806l-.1-1.104-.301-1.003h-.501zm11.527 5.015v-.903h1.003v.904h-.2c.1.2.702 1.203.802 1.605.1.401-.401.502-.3.401.08-.08-.034-.568-.101-.803h-.2c0 .134-.02.462-.1.703-.081.24-.703.1-1.003 0 .16 0 .2-.602.2-.903.1.033.381.08.702 0 .32-.08-.067-.703-.3-1.004h-.502zm-4.71-1.002v1.003h.701c.16.241.2 1.438.2 2.007.301-.2.201-1.907.201-2.408 0-.401-.2-.569-.3-.602h-.803z" fill="#202020"/><defs><linearGradient id="paint0_linear_501_488" x1="36.9" y1="24.053" x2="58.587" y2="48.341" gradientUnits="userSpaceOnUse"><stop stop-color="#BD22C0"/><stop offset="1" stop-color="#643793"/></linearGradient></defs></svg>