<svg width="15" height="30" fill="none" xmlns="http://www.w3.org/2000/svg"><g clip-path="url(#clip0_242_1490)"><path d="M14.548 14.352H2.594s-.006-.006 0-.008l11.058-4.606a.473.473 0 00.236-.654c-.114-.22-.39-.3-.618-.206L2.258 13.466s-.008-.004-.004-.008l8.432-8.436a.486.486 0 00.046-.65.472.472 0 00-.694-.032L1.51 12.868s-.01 0-.008-.004L5.94 1.65a.469.469 0 10-.874-.346L.7 12.334s-.008.004-.008 0V.494c0-.248-.18-.47-.428-.492A.47.47 0 00-.248.47v11.978s-.006.006-.008 0L-4.864 1.394a.47.47 0 00-.868.36l4.596 11.034s-.004.008-.008.004l-8.45-8.45a.47.47 0 00-.694.032c-.16.19-.13.476.046.65l8.51 8.51s0 .01-.004.008l-11.214-4.44a.469.469 0 10-.346.874l11.03 4.366s.004.008 0 .008h-11.84c-.248 0-.47.18-.492.428a.47.47 0 00.468.512h11.978s.006.006 0 .008l-11.054 4.608a.472.472 0 00-.254.614.472.472 0 00.614.254l11.034-4.596s.008.004.004.008l-8.432 8.432c-.192.192-.204.516-.004.698a.47.47 0 00.65-.016l8.528-8.528s.01 0 .008.004L-5.496 27.99a.469.469 0 10.874.346l4.366-11.03s.008-.004.008 0v11.838c0 .248.18.47.428.492a.47.47 0 00.512-.468V17.19s.006-.006.008 0l4.606 11.058a.472.472 0 00.614.254c.24-.1.352-.376.254-.614L1.578 16.854s.004-.008.008-.004l8.452 8.452a.468.468 0 00.65.016c.2-.182.188-.508-.004-.698l-8.508-8.508s0-.01.004-.008l11.214 4.438a.47.47 0 00.346-.874L2.71 15.302s-.004-.008 0-.008h11.864a.47.47 0 00.468-.512.487.487 0 00-.492-.428l-.002-.002z" fill="#C4C4C4"/></g><defs><clipPath id="clip0_242_1490"><path fill="#fff" d="M0 0h15v29.6H0z"/></clipPath></defs></svg>