<svg width="60" height="44" fill="none" xmlns="http://www.w3.org/2000/svg"><path d="M15.404 22.956c.645-1.295.464-2.943.293-3.605 1.956.22 6.426.839 8.655 1.545 2.23.707 2.299 3.581 2.054 4.93-.538 2.305-1.643 6.946-1.76 7.063-.117.118-.49.246-.66.295.073-1.766.205-5.651.146-7.064-.058-1.412-1.491-1.962-2.2-2.06l-6.528-1.104zm-3.741-17.29h11.59c-.22.637-.529 2.236 0 3.531h-1.615c.343 1.227 1.086 3.974 1.32 5.15.294 1.472-.366 2.282-.806 3.018-.352.588-.685.588-.807.515.41-1.766-.073-6.524-.367-8.683H13.79c-.059 1.707.514 2.87.807 3.238.342.515.924 1.957.513 3.605-.41 1.648-3.154 1.668-4.474 1.472.528-.354.513-2.502.44-3.532 1.32.22 2.934 0 2.42-1.398-.41-1.119-.513-2.722-.513-3.385H11.37c.294-.343.763-1.53.294-3.531zm12.836 3.09c.528-.765.269-2.723.073-3.606l8.802.589c2.875.47 3.007 4.12 2.714 5.886l-.88 6.475-.734.368-.293-5.518c0-2.767-1.125-3.557-1.687-3.606l-7.995-.588zm12.396 0c.646-1.06.611-2.894.514-3.679.342.074 1.276.28 2.273.515.998.236 1.199.932 1.174 1.251v1.84c1.82-.177 1.785-2.134 1.54-3.09h3.228c2.494-.074 3.276 3.016 3.447 4.267l.66 7.505h-8.728c.587-1.236.44-2.919.293-3.606h7.042c.528-3.473-1.54-4.635-2.714-4.635h-4.841c-.538 2.354-1.629 7.093-1.687 7.21-.074.148-.587 1.03-.66 1.178-.06.118-.318.098-.44.073.073-1.545 1.613-8.314 1.246-8.314-.293 0-1.687-.343-2.347-.515zm14.67.662c.763-1.354 1.1-3.703 1.173-4.709l1.98.736c.235-.589.147-2.698.074-3.68l-.44-.367.367-.883 1.026.368-.293.883h-.367c.118 1.648 0 3.14-.073 3.679.245.098.719.28.66.22-.058-.058 1.003-2.967 1.54-4.414L56.92.883 57.286 0l1.027.515-.44.957-.367-.074c-.235.118-1.174 2.992-1.614 4.415l.734.294c-.235-.47 1.32-2.207 2.127-3.017l-.294-.22.514-.883L60 2.575l-.587.883-.367-.22c-1.525 1.118-2.102 2.428-2.2 2.943l1.467.662c-.47.588-1.174 3.286-1.467 4.562-.563-.27-1.731-.765-1.907-.589-.22.22-.367 1.324-.807 4.341-.352 2.414-.587 3.36-.66 3.532-.66 1.08-1.995 3.252-2.054 3.311-.073.074-.294-.074-.367-.294-.059-.177.171-1.398.294-1.987.464-1.962 1.51-6.195 1.98-7.431.47-1.236.44-1.889.367-2.06l-2.127-.81z" fill="#fff"/><path d="M47.237 19.278h-1.174v1.177h.587v3.164h-1.1c0-.22-.293-1.104-.44-1.324-.117-.177-.147-.025-.147.073.41 1.119.171 3.9 0 5.15l10.416.074c.587 2.885.782 5.126.807 5.886v2.134c0 .442-.147 1.03-.147 1.325 0 .235.147.245.22.22 1.643-1.118 1.76-2.624 1.614-3.237a585.15 585.15 0 00-1.174-5.224 3.232 3.232 0 01-.073-1.104h1.247v-2.06c0-.412.146-1.3.22-1.692.17-.27.513-.854.513-1.03 0-.177-.098-.172-.147-.148l-.66.957H46.797v-3.164h.44v-1.177zm-2.127 13.98l1.614-2.943c.293-.06.415.171.44.294-.172.319-.455 1.104-.22 1.692.528.53 1.931.76 2.567.81-.646.824-.954 2.894-1.027 3.826-.758-.05-2.465-.28-3.227-.81-.763-.53-.416-2.134-.147-2.87zM27.58 19.351c-.074 1.619-.367 3.63-.587 4.415l2.787 1.84c-.22 1.103-.69 3.766-.807 5.591-.117 1.825-1.027 4.145-1.467 5.077.176.152.478.287.807.442.44-.442 1.907-.81 3.154-.589.998.177 1.1.662 1.027.883l-.44 1.03.513.147c1.54-2.06 1.687-4.782 1.614-5.077-.059-.235-.367-.54-.513-.662-.66-.368-2.142-1.089-2.788-1.03-.645.059-.758-.27-.733-.441.171-1.3.528-3.988.587-4.342.058-.353.317-.196.44-.073l8.582 7.8c.88.857 2.83 2.413 3.594 1.765-.294-1.913 1.027-4.783 1.1-5.224.059-.353-.122-.343-.22-.294-.073.073-.293.309-.587.662-.293.353-.66.147-.807 0l-4.474-4.268 4.18-2.796c.734-.588.734-.956.588-1.913-.18-1.17-1.907-2.698-2.934-3.31.117-.53.146-1.203.146-1.472h-.513c-.235 1.236-.782 2.183-1.027 2.501l-1.907 2.281 2.274 1.913c.22.221.587.662 0 1.251-.587.589-1.467.736-1.834.736l-4.768-4.341c-3.154-2.502-3.692-8.462-3.52-11.479L27.8 13.098c-.025 1.349-.103 4.488-.22 6.254zM9.462 23.177c1.056-1.353.342-4.046-.147-5.224.118-.235.294-.049.367.074l.44 1.324c.294.028 2.225.699 3.154 1.03 1.834 1.251 1.174 2.281.294 4.93-.704 2.12-3.13 5.249-4.255 6.549 2.348 4.856 4.548 11.33 4.475 11.625-.059.236-.367.442-.514.515l-4.474-9.27-3.74-8.536-2.348.736c-.293-1.472-1.247-3.164-1.687-3.826l1.54-.662c-.352-1.119-1.369-2.085-1.834-2.428l-.293.073-.44-.81.88-.44.367.735-.22.294.073.074c.763.647 1.492 1.888 1.76 2.428.22-.073.646-.235.587-.294-.058-.06-.904-2.477-1.32-3.68l-.367-.073-.366-.736.953-.441.44.883-.366.294c-.06.177.855 2.576 1.32 3.753l.587-.22c-.294-.354-.22-2.208-.147-3.091l-.22.073-.294-.956.88-.294.294.956-.367.147c-.352 1.766-.097 2.796.074 3.09l1.247-.367c.117.883 1.271 2.967 1.833 3.9-.415.146-1.29.455-1.467.514-.176.06-.17.172-.146.221.234.471 1.956 3.532 2.787 5.003.709-.71 2.303-2.516 3.007-4.046.88-1.914.44-2.428.147-2.87-.235-.353-1.76-.785-2.494-.957zm9.354 16.86v3.328h-.21v-2.837c0-.04.003-.083.008-.129l-1.31 2.326c-.022.04-.054.061-.094.061h-.038c-.04 0-.072-.02-.094-.06l-1.345-2.331c.004.046.007.091.007.133v2.837h-.212v-3.328h.167c.022 0 .04.002.052.007a.084.084 0 01.037.038l1.343 2.314a.957.957 0 01.062.14.995.995 0 01.065-.142l1.306-2.312a.09.09 0 01.037-.038.174.174 0 01.054-.007h.165zm1.87 2.197a4.272 4.272 0 00-.576.054c-.16.026-.293.063-.398.11a.589.589 0 00-.23.17.35.35 0 00-.075.22c0 .079.012.147.037.205a.435.435 0 00.104.141.434.434 0 00.15.08.598.598 0 00.177.026c.09 0 .174-.01.25-.028a.975.975 0 00.394-.21c.057-.048.112-.1.167-.157v-.611zm-1.376-.878c.123-.122.251-.214.386-.277.135-.063.288-.094.459-.094.125 0 .235.02.329.06.094.04.172.097.233.173.062.073.11.163.14.27.032.105.048.223.048.353v1.524h-.09c-.047 0-.076-.022-.087-.066l-.033-.301a2.32 2.32 0 01-.192.17 1.022 1.022 0 01-.684.235.777.777 0 01-.233-.036.544.544 0 01-.343-.294.668.668 0 01-.053-.275.49.49 0 01.085-.275.694.694 0 01.266-.221c.12-.063.275-.113.463-.15.19-.038.417-.06.682-.067v-.244c0-.217-.047-.383-.141-.499-.093-.117-.23-.176-.414-.176a.792.792 0 00-.29.047 1.027 1.027 0 00-.333.207c-.035.031-.064.047-.087.047a.07.07 0 01-.042-.012.106.106 0 01-.029-.03l-.04-.069zm3.683-.019a.281.281 0 01-.024.022.047.047 0 01-.028.007c-.016 0-.037-.01-.064-.03a.869.869 0 00-.527-.172.848.848 0 00-.36.072.713.713 0 00-.263.205.932.932 0 00-.164.325 1.57 1.57 0 00-.054.428c0 .164.018.31.056.437.04.127.094.234.165.322a.7.7 0 00.256.198c.1.045.212.068.334.068a.856.856 0 00.588-.214c.028-.027.052-.04.07-.04.02 0 .035.008.047.023l.06.076a.678.678 0 01-.137.131.917.917 0 01-.186.106c-.069.03-.144.053-.226.068-.08.018-.164.026-.251.026a.918.918 0 01-.727-.315 1.142 1.142 0 01-.207-.378 1.635 1.635 0 01-.073-.508c0-.18.024-.342.07-.49a1.1 1.1 0 01.208-.38.925.925 0 01.331-.247c.132-.06.282-.09.452-.09a.998.998 0 01.713.27l-.06.08zm.635.083c.109-.132.232-.237.37-.315a.939.939 0 01.468-.118.87.87 0 01.338.061c.1.041.18.1.245.177a.779.779 0 01.146.277c.033.108.05.23.05.367v1.496h-.227v-1.496c0-.22-.05-.391-.15-.515-.1-.125-.253-.188-.459-.188a.83.83 0 00-.428.117c-.132.077-.25.185-.353.323v1.759h-.225v-3.422h.225v1.477zm3.052-.433c.168 0 .318.03.45.087a.905.905 0 01.336.242c.09.105.16.232.206.381.05.148.073.313.073.497 0 .183-.024.348-.073.496a1.064 1.064 0 01-.206.378.905.905 0 01-.337.243 1.131 1.131 0 01-.449.084c-.168 0-.318-.028-.451-.084a.93.93 0 01-.337-.243 1.093 1.093 0 01-.209-.378 1.626 1.626 0 01-.07-.496c0-.184.023-.35.07-.497a1.09 1.09 0 01.21-.38.93.93 0 01.336-.243 1.12 1.12 0 01.451-.087zm0 2.232c.14 0 .261-.024.365-.07a.69.69 0 00.26-.208.897.897 0 00.158-.322c.035-.127.052-.269.052-.425 0-.156-.017-.297-.052-.424a.897.897 0 00-.157-.324.682.682 0 00-.261-.21.85.85 0 00-.365-.072.866.866 0 00-.367.072.706.706 0 00-.26.21.95.95 0 00-.158.324 1.613 1.613 0 00-.052.424c0 .156.017.298.052.425a.95.95 0 00.157.322c.07.09.158.159.261.207.105.047.228.07.367.07zm1.675-1.785c.108-.135.233-.243.374-.325a.941.941 0 01.475-.122.87.87 0 01.339.061c.099.041.18.1.244.177a.763.763 0 01.146.277c.033.108.05.23.05.367v1.496h-.226v-1.496c0-.22-.05-.391-.15-.515-.101-.125-.254-.188-.46-.188a.83.83 0 00-.427.117c-.132.077-.25.185-.353.323v1.759h-.226v-2.34h.125c.039 0 .062.02.068.059l.021.35zm5.422-1.315c0 .03-.01.062-.033.097l-2.111 2.949h2.128v.2h-2.45v-.087c0-.017.002-.032.006-.045a.315.315 0 01.021-.04l2.117-2.956h-2.084v-.2h2.406v.082zm.563.906v2.34h-.223v-2.34h.224zm.097-.807a.176.176 0 01-.019.08.224.224 0 01-.11.108.197.197 0 01-.16 0 .211.211 0 01-.127-.188c0-.028.005-.055.016-.08a.207.207 0 01.19-.13.211.211 0 01.19.13.176.176 0 01.02.08zm.466 3.147v-2.34h.125c.04 0 .062.02.068.059l.021.338a1.22 1.22 0 01.313-.315.69.69 0 01.398-.12c.17 0 .307.05.409.148a.764.764 0 01.21.412.744.744 0 01.748-.56c.115 0 .22.02.312.059a.61.61 0 01.235.17.783.783 0 01.148.277c.035.11.052.235.052.376v1.496h-.224v-1.496c0-.229-.049-.403-.148-.522a.516.516 0 00-.423-.181.574.574 0 00-.433.179.649.649 0 00-.136.218.867.867 0 00-.05.306v1.496h-.225v-1.496c0-.227-.046-.401-.137-.522a.462.462 0 00-.395-.181.606.606 0 00-.353.113c-.108.075-.204.18-.289.313v1.773h-.226zm3.764-1.776c.036-.096.077-.18.122-.254a.835.835 0 01.16-.19.657.657 0 01.203-.118.705.705 0 01.392-.028.345.345 0 01.125.045l-.019.155c-.008.025-.023.037-.045.037a.361.361 0 01-.087-.016.558.558 0 00-.15-.017.648.648 0 00-.242.043.556.556 0 00-.188.122.825.825 0 00-.146.205 1.97 1.97 0 00-.113.277v1.515h-.226v-2.34h.12c.027 0 .045.005.056.016.011.011.018.03.022.057l.016.491zm2.473.645a4.272 4.272 0 00-.576.054c-.16.026-.293.063-.398.11a.589.589 0 00-.23.17.35.35 0 00-.075.22c0 .079.012.147.037.205a.434.434 0 00.104.141.435.435 0 00.15.08.6.6 0 00.177.026c.09 0 .174-.01.249-.028a.976.976 0 00.395-.21c.056-.048.112-.1.167-.157v-.611zm-1.376-.878c.122-.122.251-.214.386-.277.135-.063.288-.094.459-.094.125 0 .235.02.329.06.094.04.171.097.233.173.062.073.11.163.14.27.032.105.048.223.048.353v1.524h-.09c-.047 0-.076-.022-.087-.066l-.033-.301a2.282 2.282 0 01-.193.17 1.025 1.025 0 01-.684.235.776.776 0 01-.233-.036.546.546 0 01-.343-.294.668.668 0 01-.052-.275.49.49 0 01.085-.275.695.695 0 01.266-.221c.12-.063.275-.113.463-.15.19-.038.417-.06.682-.067v-.244c0-.217-.047-.383-.141-.499-.093-.117-.23-.176-.414-.176a.792.792 0 00-.29.047 1.024 1.024 0 00-.333.207c-.035.031-.064.047-.087.047a.07.07 0 01-.043-.012.104.104 0 01-.028-.03l-.04-.069zm2.721 2.046a.507.507 0 01-.371-.131c-.088-.088-.132-.224-.132-.407v-1.6h-.336a.062.062 0 01-.043-.014.05.05 0 01-.016-.04v-.087l.4-.028.056-.837a.087.087 0 01.019-.038.05.05 0 01.04-.016h.106v.894h.738v.167h-.738v1.587c0 .064.008.12.023.167a.278.278 0 00.172.179c.04.014.081.02.127.02a.406.406 0 00.252-.077.98.98 0 00.073-.054c.018-.017.033-.026.044-.026.013 0 .025.008.038.024l.06.099a.711.711 0 01-.513.219zm4.453-3.365v3.328h-.242V41.77h-2.084v1.595h-.242v-3.328h.242v1.552h2.084v-1.552h.242zm1.87 2.197a4.27 4.27 0 00-.577.054c-.16.026-.293.063-.398.11a.588.588 0 00-.23.17.35.35 0 00-.075.22c0 .079.012.147.037.205a.434.434 0 00.104.141.435.435 0 00.15.08.6.6 0 00.177.026c.09 0 .174-.01.249-.028a.976.976 0 00.395-.21c.056-.048.112-.1.167-.157v-.611zm-1.377-.878c.123-.122.251-.214.386-.277.135-.063.288-.094.459-.094.125 0 .235.02.329.06.094.04.172.097.233.173.062.073.11.163.14.27.032.105.048.223.048.353v1.524h-.09c-.047 0-.076-.022-.087-.066l-.032-.301a2.87 2.87 0 01-.193.17 1.025 1.025 0 01-.684.235.776.776 0 01-.234-.036.546.546 0 01-.343-.294.668.668 0 01-.052-.275.49.49 0 01.085-.275.694.694 0 01.266-.221c.12-.063.275-.113.463-.15.19-.038.417-.06.682-.067v-.244c0-.217-.047-.383-.141-.499-.092-.117-.23-.176-.414-.176a.792.792 0 00-.29.047 1.024 1.024 0 00-.333.207c-.035.031-.064.047-.087.047a.07.07 0 01-.043-.012.104.104 0 01-.028-.03l-.04-.069zm2.196-1.545a1.075 1.075 0 01.118.633 1.008 1.008 0 01-.09.313.91.91 0 01-.186.26l-.063-.042c-.013-.009-.02-.02-.02-.033a.05.05 0 01.015-.03.91.91 0 00.059-.95c-.025-.044-.018-.075.02-.092l.147-.059zm1.75 2.423a4.27 4.27 0 00-.576.054c-.16.026-.292.063-.397.11a.588.588 0 00-.23.17.35.35 0 00-.076.22c0 .079.013.147.038.205a.436.436 0 00.103.141.435.435 0 00.15.08.6.6 0 00.177.026c.091 0 .174-.01.25-.028a.976.976 0 00.395-.21 2.2 2.2 0 00.166-.157v-.611zm-1.375-.878a1.36 1.36 0 01.385-.277c.135-.063.288-.094.459-.094.125 0 .235.02.33.06.093.04.17.097.232.173.063.073.11.163.141.27.032.105.047.223.047.353v1.524h-.09c-.046 0-.075-.022-.086-.066l-.033-.301a2.449 2.449 0 01-.193.17 1.025 1.025 0 01-.684.235.776.776 0 01-.233-.036.546.546 0 01-.343-.294.668.668 0 01-.052-.275c0-.099.028-.19.084-.275a.694.694 0 01.266-.221 1.72 1.72 0 01.464-.15c.19-.038.416-.06.681-.067v-.244c0-.217-.047-.383-.14-.499-.093-.117-.231-.176-.415-.176a.792.792 0 00-.289.047 1.024 1.024 0 00-.334.207c-.034.031-.063.047-.087.047a.07.07 0 01-.042-.012.104.104 0 01-.028-.03l-.04-.069zm2.323.233c.036-.096.076-.18.122-.254a.837.837 0 01.16-.19.656.656 0 01.202-.118.706.706 0 01.393-.028.345.345 0 01.125.045l-.02.155c-.007.025-.022.037-.044.037a.361.361 0 01-.087-.016.558.558 0 00-.15-.017.649.649 0 00-.243.043.557.557 0 00-.188.122.822.822 0 00-.146.205c-.04.08-.078.172-.113.277v1.515h-.225v-2.34h.12c.026 0 .045.005.056.016.011.011.018.03.021.057l.017.491zm2.721.37a.978.978 0 00-.053-.337.702.702 0 00-.149-.254.637.637 0 00-.23-.157.88.88 0 00-.616 0 .723.723 0 00-.417.416 1.2 1.2 0 00-.084.331h1.55zm-1.561.143v.045c0 .175.02.33.061.463.04.133.099.245.174.336.075.09.166.157.273.202a1.105 1.105 0 00.663.03 1.212 1.212 0 00.358-.173c.034-.027.06-.04.075-.04.02 0 .036.008.047.023l.061.076a.627.627 0 01-.15.131 1.06 1.06 0 01-.207.106 1.531 1.531 0 01-.506.094c-.16 0-.306-.027-.438-.082a.94.94 0 01-.338-.245 1.122 1.122 0 01-.219-.39 1.725 1.725 0 01-.075-.531c0-.168.023-.323.07-.464.05-.142.118-.265.207-.367a.951.951 0 01.332-.242c.132-.058.28-.087.447-.087.132 0 .254.023.367.068.113.046.21.112.294.2a.909.909 0 01.195.32c.048.127.073.273.073.438 0 .034-.005.058-.014.07-.01.013-.025.019-.047.019h-1.703zm2.768 1.3a.507.507 0 01-.371-.131c-.088-.088-.132-.224-.132-.407v-1.6h-.336a.063.063 0 01-.043-.014.05.05 0 01-.016-.04v-.087l.4-.028.056-.837a.087.087 0 01.019-.038.05.05 0 01.04-.016h.106v.894h.738v.167h-.738v1.587c0 .064.008.12.023.167a.277.277 0 00.172.179c.039.014.081.02.127.02a.405.405 0 00.146-.023.732.732 0 00.178-.108c.02-.017.034-.026.045-.026.013 0 .025.008.038.024l.06.099a.712.712 0 01-.513.219zm2.273-2.377v.094c0 .033-.01.063-.033.09l-1.465 1.98h1.44v.176h-1.71v-.09c0-.026.011-.055.035-.087l1.47-1.987h-1.428v-.176h1.691zM19.218 27.887v-1.324c.024-.05.073-.119.073 0 0 .117.049.342.073.44.22-.098.66-.147.66.442 0 .736-.366 1.03-.44 1.03-.058 0-.073-.049-.073-.074.235-.176.245-.564.22-.735h-.367v.22h-.146zm-3.521 3.458c.099-.144.036-.533 0-.699h1.596c.54.089.566.775.51 1.107l-.126.916c-.04.085-.085.12-.22.147l-.073-.883c0-.52-.15-.6-.257-.609l-1.43.02zm4.474-.162c.11-.186.105-.51.088-.648l.39.09c.171.042.206.165.201.221v.325c.312-.032.306-.377.264-.545h.554c.427-.013.561.531.59.752l.114 1.322h-1.497c.101-.218.076-.514.05-.635h1.208c.09-.612-.264-.817-.465-.817h-.83a72.06 72.06 0 01-.29 1.27c-.012.027-.1.182-.113.208-.01.021-.054.018-.075.013.012-.272.277-1.465.214-1.465-.05 0-.29-.06-.403-.09zm-2.622 3.105h-1.952a.734.734 0 00-.07-.208c-.019-.028-.023-.004-.023.011.065.176.027.614 0 .811l1.659.012c.093.454.125.807.128.927v.336c0 .07-.023.162-.023.208 0 .037.023.039.035.035.262-.176.28-.413.257-.51a94.224 94.224 0 00-.187-.822.503.503 0 01-.011-.174h.198v-.325c0-.064.024-.204.035-.266a.62.62 0 00.082-.162c0-.028-.015-.027-.023-.023l-.105.15zm-2.022 1.518l.257-.463c.047-.01.066.026.07.046-.027.05-.072.174-.035.266.084.084.308.12.41.128-.104.13-.153.456-.164.602-.121-.008-.393-.044-.515-.127-.121-.084-.066-.336-.023-.452z" fill="#fff"/><path d="M20.032 30.63h-2.108c0-.038-.05-.19-.075-.228-.02-.03-.025-.004-.025.013.07.192.03.67 0 .886l1.792.013c.1.496.134.882.139 1.012v.367c0 .076-.025.178-.025.228 0 .04.025.042.037.038.283-.192.303-.451.278-.557a110.26 110.26 0 00-.202-.899.557.557 0 01-.013-.19h.215v-.354c0-.07.025-.224.038-.291a.677.677 0 00.088-.177c0-.03-.017-.03-.025-.026l-.114.165zm-3.162-1.493v-.662h.367c.176-.059.074-.515 0-.736h-.22v-.736h2.054v.736h-.22c.024.123.088.398.147.515.073.147 0 .515-.074.81-.058.235-.122.098-.146 0 .117-.118-.05-.932-.147-1.325h-1.174c0 .025.03.191.147.662.117.471-.049.687-.147.736h-.587zm3.448-1.471c.117-.06 0-.614-.074-.883a.23.23 0 01.147.073.234.234 0 01.074.147h1.54l.147-.147c.058-.059.024.172 0 .295v1.324c.073-.049.22-.162.22-.22 0-.074.073 0 .073.073s-.293.81-.22.81h-1.907v-.663h1.613v-.81h-1.613zm-1.394 7.284c.118-.059 0-.613-.073-.883.024 0 .088.015.147.074a.233.233 0 01.073.147h1.54l.147-.147c.059-.06.025.171 0 .294v1.324c.073-.049.22-.162.22-.22 0-.074.074 0 .074.073 0 .074-.294.81-.22.81h-1.908v-.663h1.614v-.81h-1.614zm-6.088-3.605v-.663h.807v.663h-.293l.22.662.22-.074c.146-.098.455-.324.513-.441.059-.118-.269-.197-.44-.221v-.957h.147c-.05.099-.074.31.22.368.587.074.367.589.367.81 0 .176-.49.466-.734.588h.734c.073-.024.293-.132.586-.368.294-.235-.122-.343-.366-.367l.073-.736c.44.147.807-.147.587.956-.176.883-1.394 1.251-1.98 1.325l-.074-.81-.22-.735h-.367zm8.436 3.678v-.662h.733v.663h-.146c.073.147.513.883.586 1.177.074.294-.293.368-.22.294.059-.059-.024-.417-.073-.588h-.147a1.9 1.9 0 01-.073.515c-.059.176-.514.073-.734 0 .118 0 .147-.442.147-.663.073.025.279.06.514 0 .234-.059-.05-.515-.22-.736h-.367zm-3.448-.735v.735h.513c.118.177.147 1.055.147 1.472.22-.147.147-1.398.147-1.766 0-.294-.147-.417-.22-.441h-.587z" fill="#fff"/></svg>