<svg width="807" height="608" viewBox="0 0 807 608" fill="none" xmlns="http://www.w3.org/2000/svg">
<g opacity="0.5">
<circle cx="403.365" cy="305.39" r="234.167" stroke="#C4C4C4" stroke-width="0.694857"/>
<circle cx="402.67" cy="303.305" r="4.51657" fill="#C4C4C4"/>
<line x1="3.03732e-08" y1="303.305" x2="806.034" y2="303.305" stroke="#C4C4C4" stroke-width="0.694857"/>
<path d="M747.927 302.703C747.927 305.215 745.804 307.28 743.15 307.28C740.495 307.28 738.373 305.215 738.373 302.703C738.373 300.191 740.495 298.126 743.15 298.126C745.804 298.126 747.927 300.191 747.927 302.703Z" stroke="#C4C4C4" stroke-width="0.868571"/>
<line y1="-0.434286" x2="17.0417" y2="-0.434286" transform="matrix(0.720788 -0.693156 0.720788 0.693156 737.07 309.385)" stroke="#C4C4C4" stroke-width="0.868571"/>
<line y1="-0.434286" x2="17.0417" y2="-0.434286" transform="matrix(0.720788 0.693156 -0.720788 0.693156 737.07 297.573)" stroke="#C4C4C4" stroke-width="0.868571"/>
<line x1="734.464" y1="303.104" x2="751.836" y2="303.104" stroke="#C4C4C4" stroke-width="0.868571"/>
<rect x="63.5795" y="299.172" width="8.33829" height="8.49417" stroke="#C4C4C4" stroke-width="0.694857"/>
<path d="M67.7487 305.806C66.4549 305.806 65.4035 304.739 65.4035 303.419C65.4035 302.099 66.4549 301.032 67.7487 301.032C69.0425 301.032 70.0938 302.099 70.0938 303.419C70.0938 304.739 69.0425 305.806 67.7487 305.806Z" fill="#C4C4C4" stroke="#C4C4C4" stroke-width="0.173714"/>
<line y1="-0.347429" x2="17.522" y2="-0.347429" transform="matrix(-0.701032 0.71313 -0.700575 -0.713579 74.1259 296.704)" stroke="#C4C4C4" stroke-width="0.694857"/>
<line y1="-0.347429" x2="17.522" y2="-0.347429" transform="matrix(0.701032 0.71313 -0.701489 0.71268 61.1475 297.411)" stroke="#C4C4C4" stroke-width="0.694857"/>
<line x1="59.063" y1="303.432" x2="76.4344" y2="303.432" stroke="#C4C4C4" stroke-width="0.694857"/>
<line x1="251.145" y1="39.9989" x2="555.145" y2="566.542" stroke="#C4C4C4" stroke-width="0.603755"/>
<line x1="250.623" y1="567.004" x2="554.622" y2="40.4609" stroke="#C4C4C4" stroke-width="0.603755"/>
<line x1="403.365" y1="-1.51866e-08" x2="403.365" y2="608" stroke="#C4C4C4" stroke-width="0.694857"/>
<line x1="139.572" y1="455.699" x2="666.115" y2="151.699" stroke="#C4C4C4" stroke-width="0.694857"/>
<line x1="139.919" y1="151.699" x2="666.463" y2="455.699" stroke="#C4C4C4" stroke-width="0.694857"/>
</g>
</svg>
