<svg width="220" height="160" viewBox="0 0 220 160" fill="none" xmlns="http://www.w3.org/2000/svg">
<path d="M56.4788 83.478C58.8455 78.769 58.1821 72.7757 57.5546 70.3677C64.7265 71.1704 81.1145 73.4178 89.2905 75.9864C97.4665 78.555 97.7176 89.0076 96.8211 93.9128C94.8488 102.296 90.7966 119.17 90.3663 119.598C89.936 120.027 88.5733 120.49 87.9458 120.669C88.2147 114.247 88.6988 100.12 88.4837 94.9831C88.2685 89.8459 83.015 87.8482 80.4152 87.4914L56.4788 83.478Z" fill="#202020"/>
<path d="M42.7631 20.6021H85.257C84.4501 22.9209 83.3205 28.7358 85.257 33.4449H79.3401C80.5952 37.9042 83.3205 47.893 84.1812 52.174C85.257 57.5251 82.8364 60.4683 81.2227 63.1438C79.9318 65.2843 78.7126 65.2843 78.2643 65.0168C79.7704 58.5954 77.9954 41.2932 76.9196 33.4449H50.5626C50.3474 39.6522 52.4452 43.8796 53.521 45.2174C54.7761 47.0903 56.9098 52.3345 55.4037 58.3278C53.8976 64.3211 43.8389 64.3925 38.9978 63.679C40.9342 62.3947 40.8804 54.582 40.6115 50.8362C45.4526 51.6388 51.3694 50.8362 49.4868 45.7525C47.9807 41.6857 47.6042 35.8529 47.6042 33.4449H41.6873C42.7631 32.1963 44.4844 27.8796 42.7631 20.6021Z" fill="#202020"/>
<path d="M89.8289 31.8394C91.7653 29.0568 90.815 21.9397 90.0978 18.729L122.372 20.8695C132.914 22.5818 133.399 35.8527 132.323 42.2742L129.095 65.8193L126.406 67.1571L125.33 47.0902C125.33 37.03 121.206 34.1582 119.144 33.9798L89.8289 31.8394Z" fill="#202020"/>
<path d="M135.282 31.8394C137.648 27.9865 137.523 21.3154 137.164 18.4614C138.419 18.729 141.844 19.4781 145.502 20.3343C149.159 21.1905 149.895 23.7234 149.805 24.8828V31.5718C156.475 30.9297 156.349 23.8126 155.453 20.3343H167.287C176.431 20.0668 179.3 31.3042 179.927 35.8527L182.348 63.1437H150.343C152.494 58.6487 151.957 52.5305 151.419 50.0333H177.238C179.174 37.4046 171.59 33.1771 167.287 33.1771H149.536C147.564 41.739 143.565 58.9698 143.35 59.3979C143.081 59.933 141.199 63.1437 140.93 63.6788C140.715 64.1069 139.764 64.0356 139.316 63.9464C139.585 58.3276 145.233 33.7123 143.888 33.7123C142.812 33.7123 137.702 32.4637 135.282 31.8394Z" fill="#202020"/>
<path d="M189.071 34.2475C191.868 29.3244 193.105 20.7804 193.374 17.1237L200.636 19.7993C201.497 17.6589 201.174 9.98885 200.905 6.4214L199.291 5.08361L200.636 1.87291L204.401 3.2107L203.326 6.4214H201.981C202.411 12.4147 201.981 17.8372 201.712 19.7993C202.608 20.1561 204.348 20.8161 204.132 20.602C203.917 20.388 207.808 9.81048 209.78 4.54849L208.704 3.2107L210.049 0L213.815 1.87291L212.201 5.35117L210.856 5.08361C209.995 5.51171 206.553 15.9643 204.939 21.1371L207.629 22.2074C206.768 20.495 212.47 14.1806 215.428 11.2375L214.352 10.4348L216.235 7.22408L220 9.36455L217.849 12.5753L216.504 11.7726C210.91 15.8395 208.794 20.602 208.436 22.4749L213.815 24.8829C212.093 27.0234 209.511 36.8339 208.436 41.4716C206.374 40.4905 202.088 38.689 201.443 39.3311C200.636 40.1338 200.098 44.1472 198.484 55.1171C197.193 63.893 196.333 67.3356 196.064 67.9599C193.643 71.8841 188.748 79.7859 188.533 80C188.264 80.2676 187.458 79.7324 187.189 78.9298C186.973 78.2876 187.816 73.8462 188.264 71.7057C189.968 64.5708 193.805 49.1773 195.526 44.6823C197.247 40.1873 197.14 37.8149 196.871 37.1906L189.071 34.2475Z" fill="#202020"/>
<path d="M173.203 70.1006H168.9V74.3815H171.052V85.8865H167.017C167.017 85.0839 165.942 81.8732 165.404 81.0705C164.973 80.4283 164.866 80.9813 164.866 81.338C166.372 85.4049 165.493 95.5186 164.866 100.067L203.056 100.335C205.208 110.823 205.925 118.975 206.015 121.739V129.499C206.015 131.104 205.477 133.244 205.477 134.315C205.477 135.171 206.015 135.206 206.284 135.117C212.308 131.05 212.739 125.574 212.201 123.345C210.946 117.726 208.328 106.06 207.898 104.348C207.467 102.636 207.539 100.959 207.629 100.335H212.201V92.8431C212.201 91.3447 212.739 88.1162 213.008 86.6892C213.635 85.7082 214.89 83.5855 214.89 82.9434C214.89 82.3013 214.532 82.3191 214.352 82.4083L211.932 85.8865H171.589V74.3815H173.203V70.1006Z" fill="#202020"/>
<path d="M165.404 120.937L171.321 110.234C172.396 110.02 172.845 110.859 172.934 111.305C172.307 112.464 171.267 115.318 172.127 117.458C174.064 119.385 179.21 120.223 181.541 120.402C179.174 123.398 178.044 130.926 177.775 134.315C174.996 134.136 168.739 133.298 165.942 131.371C163.144 129.445 164.418 123.612 165.404 120.937Z" fill="#202020"/>
<path d="M101.125 70.3677C100.856 76.254 99.78 83.5673 98.9731 86.4212L109.193 93.1102C108.386 97.1236 106.665 106.809 106.235 113.445C105.804 120.08 102.469 128.517 100.856 131.906C101.501 132.46 102.609 132.95 103.814 133.512C105.428 131.906 110.807 130.568 115.379 131.371C119.037 132.013 119.413 133.779 119.144 134.582L117.531 138.328L119.413 138.863C125.061 131.371 125.599 121.471 125.33 120.401C125.115 119.545 123.985 118.439 123.447 117.993C121.027 116.655 115.594 114.033 113.227 114.247C110.861 114.461 110.448 113.266 110.538 112.642C111.165 107.915 112.474 98.1403 112.69 96.856C112.905 95.5717 113.855 96.1425 114.303 96.5885L145.77 124.95C148.998 128.071 156.152 133.726 158.949 131.371C157.873 124.415 162.714 113.98 162.983 112.374C163.198 111.09 162.535 111.126 162.176 111.304C161.907 111.572 161.1 112.428 160.024 113.712C158.949 114.996 157.604 114.247 157.066 113.712L140.66 98.1938L155.99 88.0266C158.68 85.8861 158.68 84.5483 158.142 81.0701C157.484 76.8178 151.149 71.2596 147.384 69.0299C147.814 67.1035 147.922 64.6598 147.922 63.6788H146.039C145.179 68.1737 143.17 71.6163 142.274 72.7757L135.281 81.0701L143.619 88.0266C144.425 88.8293 145.77 90.4346 143.619 92.5751C141.467 94.7155 138.24 95.2507 136.895 95.2507L119.413 79.4647C107.848 70.3677 105.876 48.6955 106.504 37.7256L101.932 47.6252C101.842 52.5305 101.555 63.9463 101.125 70.3677Z" fill="#202020"/>
<path d="M34.6944 84.2811C38.5672 79.358 35.9495 69.5654 34.1565 65.2845C34.5868 64.4283 35.2323 65.1061 35.5012 65.552L37.1149 70.3681C38.1907 70.4681 45.273 72.907 48.6797 74.1139C55.4034 78.6624 52.9829 82.4082 49.7555 92.0403C47.1736 99.746 38.2804 111.126 34.1565 115.853C42.7628 133.512 50.8313 157.057 50.5623 158.127C50.3472 158.983 49.2176 159.733 48.6797 160L32.2738 126.288L18.5575 95.251L9.9511 97.9266C8.8753 92.5754 5.37897 86.4216 3.76528 84.0135L9.4132 81.6055C8.12225 77.5386 4.39283 74.0247 2.68949 72.7761L1.61369 73.0436L0 70.1005L3.22738 68.4952L4.57213 71.1707L3.76528 72.241L4.03423 72.5085C6.83129 74.863 9.50285 79.3759 10.489 81.338C11.2958 81.0704 12.8557 80.4818 12.6406 80.2677C12.4254 80.0537 9.32355 71.2599 7.79951 66.8898L6.45477 66.6222L5.11002 63.9467L8.60636 62.3413L10.22 65.552L8.87533 66.6222C8.66018 67.2644 12.0131 75.9868 13.7164 80.2677L15.868 79.4651C14.7922 78.1808 15.0612 71.4383 15.3301 68.2276L14.5233 68.4952L13.4475 65.0169L16.6748 63.9467L17.7506 67.4249L16.4059 67.96C15.1149 74.3814 16.0473 78.1273 16.6748 79.1975L21.247 77.8597C21.6773 81.0704 25.9087 88.6512 27.9707 92.0403C26.4466 92.5754 23.2372 93.6992 22.5917 93.9132C21.9462 94.1273 21.9641 94.5375 22.0538 94.7159C22.9144 96.4283 29.2257 107.559 32.2738 112.91C34.8737 110.323 40.7188 103.759 43.3007 98.1941C46.5281 91.2376 44.9144 89.3647 43.8386 87.7594C42.978 86.4751 37.3839 84.9054 34.6944 84.2811Z" fill="#202020"/>
<path d="M69.0079 145.928V158.144H68.2395V147.732C68.2395 147.583 68.2481 147.424 68.2654 147.258L63.4567 155.796C63.3761 155.945 63.261 156.02 63.1114 156.02H62.9732C62.8236 156.02 62.7085 155.945 62.6279 155.796L57.6897 147.24C57.707 147.413 57.7156 147.577 57.7156 147.732V158.144H56.9386V145.928H57.5516C57.6322 145.928 57.6955 145.937 57.7415 145.954C57.7876 145.971 57.8336 146.017 57.8796 146.092L62.8092 154.587C62.8955 154.748 62.9704 154.921 63.0337 155.105C63.0682 155.013 63.1056 154.924 63.1459 154.838C63.1862 154.745 63.2294 154.659 63.2754 154.579L68.0668 146.092C68.1129 146.017 68.1589 145.971 68.205 145.954C68.2568 145.937 68.323 145.928 68.4035 145.928H69.0079ZM75.8734 153.991C75.0562 154.02 74.3511 154.086 73.7583 154.19C73.1712 154.288 72.6849 154.423 72.2993 154.596C71.9194 154.768 71.6374 154.976 71.4532 155.217C71.269 155.453 71.177 155.724 71.177 156.029C71.177 156.317 71.223 156.567 71.3151 156.78C71.4129 156.987 71.5396 157.16 71.695 157.298C71.8561 157.43 72.0403 157.528 72.2475 157.592C72.4547 157.655 72.6705 157.686 72.895 157.686C73.2288 157.686 73.5338 157.652 73.8101 157.583C74.0921 157.508 74.3511 157.407 74.5871 157.281C74.8288 157.148 75.0533 156.993 75.2605 156.815C75.4677 156.636 75.672 156.443 75.8734 156.236V153.991ZM70.823 150.771C71.2719 150.322 71.7439 149.983 72.2388 149.753C72.7338 149.522 73.295 149.407 73.9223 149.407C74.3828 149.407 74.7856 149.482 75.131 149.632C75.4763 149.776 75.7612 149.986 75.9857 150.262C76.2159 150.532 76.3885 150.863 76.5037 151.255C76.6188 151.64 76.6763 152.072 76.6763 152.55V158.144H76.3483C76.1756 158.144 76.0691 158.063 76.0288 157.902L75.908 156.797C75.672 157.027 75.436 157.235 75.2 157.419C74.9698 157.603 74.7281 157.758 74.4748 157.885C74.2216 158.012 73.9482 158.11 73.6547 158.179C73.3612 158.248 73.0389 158.282 72.6878 158.282C72.3942 158.282 72.1093 158.239 71.8331 158.153C71.5568 158.066 71.3093 157.934 71.0906 157.756C70.8777 157.577 70.705 157.35 70.5726 157.074C70.446 156.792 70.3827 156.455 70.3827 156.063C70.3827 155.701 70.4863 155.364 70.6935 155.053C70.9007 154.743 71.2259 154.472 71.6691 154.242C72.1122 154.012 72.6791 153.827 73.3698 153.689C74.0662 153.551 74.9008 153.471 75.8734 153.448V152.55C75.8734 151.755 75.7008 151.145 75.3554 150.719C75.0159 150.288 74.5094 150.072 73.836 150.072C73.4216 150.072 73.0676 150.13 72.7741 150.245C72.4863 150.36 72.2417 150.486 72.0403 150.625C71.8388 150.763 71.6748 150.889 71.5482 151.004C71.4216 151.119 71.3151 151.177 71.2288 151.177C71.1654 151.177 71.1136 151.163 71.0734 151.134C71.0331 151.105 70.9985 151.068 70.9698 151.022L70.823 150.771ZM84.3405 150.702C84.3117 150.731 84.2829 150.757 84.2541 150.78C84.2311 150.797 84.1966 150.806 84.1505 150.806C84.093 150.806 84.0153 150.768 83.9174 150.694C83.8196 150.613 83.6872 150.527 83.5203 150.435C83.3534 150.342 83.1433 150.259 82.8901 150.184C82.6426 150.104 82.3404 150.063 81.9836 150.063C81.4886 150.063 81.0483 150.153 80.6627 150.331C80.2828 150.504 79.9605 150.754 79.6958 151.082C79.431 151.41 79.2296 151.807 79.0915 152.273C78.9591 152.74 78.8929 153.263 78.8929 153.845C78.8929 154.449 78.962 154.984 79.1001 155.45C79.244 155.917 79.4454 156.311 79.7044 156.633C79.9634 156.95 80.2771 157.192 80.6454 157.358C81.0138 157.525 81.4224 157.609 81.8714 157.609C82.2858 157.609 82.6311 157.56 82.9073 157.462C83.1894 157.364 83.4196 157.258 83.598 157.143C83.7822 157.027 83.9261 156.921 84.0297 156.823C84.1333 156.725 84.2196 156.676 84.2887 156.676C84.3577 156.676 84.4153 156.705 84.4613 156.763L84.6772 157.039C84.5448 157.212 84.3779 157.373 84.1764 157.522C83.975 157.672 83.7476 157.802 83.4944 157.911C83.2412 158.02 82.9649 158.104 82.6656 158.161C82.3721 158.225 82.0642 158.256 81.7419 158.256C81.1951 158.256 80.6944 158.158 80.2397 157.963C79.7908 157.761 79.4023 157.474 79.0742 157.099C78.7519 156.72 78.4986 156.256 78.3145 155.709C78.1361 155.163 78.0468 154.541 78.0468 153.845C78.0468 153.189 78.1332 152.59 78.3058 152.049C78.4785 151.508 78.7317 151.042 79.0656 150.65C79.3994 150.259 79.8051 149.957 80.2828 149.744C80.7663 149.525 81.3188 149.416 81.9404 149.416C82.4987 149.416 82.9937 149.505 83.4253 149.683C83.857 149.862 84.234 150.104 84.5563 150.409L84.3405 150.702ZM86.6745 151.004C87.0717 150.521 87.5235 150.135 88.0299 149.848C88.5422 149.56 89.1149 149.416 89.748 149.416C90.2199 149.416 90.6343 149.491 90.9911 149.64C91.3537 149.79 91.653 150.006 91.889 150.288C92.125 150.57 92.3034 150.909 92.4243 151.307C92.5451 151.704 92.6056 152.153 92.6056 152.653V158.144H91.7768V152.653C91.7768 151.848 91.5926 151.217 91.2242 150.763C90.8559 150.302 90.2947 150.072 89.5408 150.072C88.9825 150.072 88.4587 150.216 87.9695 150.504C87.4861 150.786 87.0544 151.18 86.6745 151.686V158.144H85.8457V145.583H86.6745V151.004ZM97.8771 149.416C98.4929 149.416 99.0426 149.522 99.526 149.735C100.015 149.942 100.427 150.239 100.761 150.625C101.094 151.01 101.348 151.476 101.52 152.023C101.699 152.564 101.788 153.171 101.788 153.845C101.788 154.518 101.699 155.125 101.52 155.666C101.348 156.207 101.094 156.671 100.761 157.056C100.427 157.442 100.015 157.738 99.526 157.945C99.0426 158.153 98.4929 158.256 97.8771 158.256C97.2612 158.256 96.7087 158.153 96.2195 157.945C95.736 157.738 95.3245 157.442 94.985 157.056C94.6511 156.671 94.395 156.207 94.2166 155.666C94.0439 155.125 93.9576 154.518 93.9576 153.845C93.9576 153.171 94.0439 152.564 94.2166 152.023C94.395 151.476 94.6511 151.01 94.985 150.625C95.3245 150.239 95.736 149.942 96.2195 149.735C96.7087 149.522 97.2612 149.416 97.8771 149.416ZM97.8771 157.609C98.3893 157.609 98.8354 157.522 99.2152 157.35C99.6008 157.171 99.9203 156.918 100.174 156.59C100.433 156.262 100.625 155.868 100.752 155.407C100.879 154.941 100.942 154.42 100.942 153.845C100.942 153.275 100.879 152.757 100.752 152.291C100.625 151.825 100.433 151.427 100.174 151.099C99.9203 150.766 99.6008 150.509 99.2152 150.331C98.8354 150.153 98.3893 150.063 97.8771 150.063C97.3648 150.063 96.9159 150.153 96.5303 150.331C96.1504 150.509 95.831 150.766 95.572 151.099C95.3188 151.427 95.126 151.825 94.9936 152.291C94.867 152.757 94.8037 153.275 94.8037 153.845C94.8037 154.42 94.867 154.941 94.9936 155.407C95.126 155.868 95.3188 156.262 95.572 156.59C95.831 156.918 96.1504 157.171 96.5303 157.35C96.9159 157.522 97.3648 157.609 97.8771 157.609ZM104.026 151.056C104.423 150.561 104.881 150.164 105.399 149.865C105.922 149.565 106.504 149.416 107.143 149.416C107.614 149.416 108.029 149.491 108.386 149.64C108.748 149.79 109.048 150.006 109.284 150.288C109.52 150.57 109.698 150.909 109.819 151.307C109.94 151.704 110 152.153 110 152.653V158.144H109.171V152.653C109.171 151.848 108.987 151.217 108.619 150.763C108.25 150.302 107.689 150.072 106.935 150.072C106.377 150.072 105.853 150.216 105.364 150.504C104.881 150.786 104.449 151.18 104.069 151.686V158.144H103.24V149.554H103.698C103.842 149.554 103.925 149.626 103.948 149.77L104.026 151.056ZM123.931 146.23C123.931 146.34 123.89 146.458 123.81 146.584L116.057 157.41H123.87V158.144H114.874V157.825C114.874 157.761 114.883 157.707 114.9 157.661C114.923 157.609 114.949 157.56 114.978 157.514L122.748 146.662H115.099V145.928H123.931V146.23ZM125.998 149.554V158.144H125.178V149.554H125.998ZM126.352 146.593C126.352 146.696 126.329 146.794 126.283 146.886C126.243 146.973 126.188 147.05 126.119 147.119C126.05 147.188 125.969 147.243 125.877 147.283C125.785 147.324 125.687 147.344 125.584 147.344C125.48 147.344 125.382 147.324 125.29 147.283C125.198 147.243 125.118 147.188 125.049 147.119C124.979 147.05 124.925 146.973 124.884 146.886C124.844 146.794 124.824 146.696 124.824 146.593C124.824 146.489 124.844 146.391 124.884 146.299C124.925 146.201 124.979 146.118 125.049 146.049C125.118 145.98 125.198 145.925 125.29 145.885C125.382 145.845 125.48 145.824 125.584 145.824C125.687 145.824 125.785 145.845 125.877 145.885C125.969 145.925 126.05 145.98 126.119 146.049C126.188 146.118 126.243 146.201 126.283 146.299C126.329 146.391 126.352 146.489 126.352 146.593ZM128.064 158.144V149.554H128.522C128.666 149.554 128.749 149.626 128.772 149.77L128.85 151.013C129.184 150.535 129.566 150.15 129.998 149.856C130.43 149.563 130.916 149.416 131.457 149.416C132.084 149.416 132.585 149.597 132.959 149.96C133.339 150.322 133.595 150.826 133.728 151.471C133.831 151.119 133.975 150.814 134.159 150.555C134.349 150.296 134.565 150.083 134.807 149.917C135.048 149.744 135.31 149.617 135.592 149.537C135.88 149.456 136.174 149.416 136.473 149.416C136.899 149.416 137.282 149.488 137.621 149.632C137.961 149.77 138.249 149.977 138.485 150.253C138.72 150.53 138.902 150.869 139.028 151.272C139.155 151.675 139.218 152.135 139.218 152.653V158.144H138.398V152.653C138.398 151.813 138.217 151.174 137.854 150.737C137.492 150.294 136.974 150.072 136.3 150.072C136.001 150.072 135.713 150.127 135.437 150.236C135.166 150.345 134.925 150.509 134.712 150.728C134.505 150.941 134.338 151.209 134.211 151.531C134.09 151.853 134.03 152.227 134.03 152.653V158.144H133.201V152.653C133.201 151.819 133.034 151.18 132.7 150.737C132.372 150.294 131.889 150.072 131.25 150.072C130.784 150.072 130.352 150.21 129.955 150.486C129.558 150.763 129.204 151.145 128.893 151.635V158.144H128.064ZM141.881 151.626C142.013 151.275 142.163 150.964 142.33 150.694C142.502 150.417 142.698 150.184 142.917 149.994C143.141 149.804 143.389 149.66 143.659 149.563C143.935 149.459 144.24 149.407 144.574 149.407C144.753 149.407 144.928 149.424 145.101 149.459C145.273 149.488 145.426 149.542 145.558 149.623L145.489 150.193C145.461 150.285 145.406 150.331 145.325 150.331C145.256 150.331 145.15 150.311 145.006 150.271C144.868 150.23 144.684 150.21 144.453 150.21C144.119 150.21 143.823 150.262 143.564 150.366C143.311 150.463 143.081 150.613 142.873 150.814C142.672 151.016 142.494 151.266 142.338 151.566C142.189 151.859 142.05 152.199 141.924 152.584V158.144H141.095V149.554H141.535C141.633 149.554 141.702 149.574 141.742 149.614C141.783 149.655 141.809 149.724 141.82 149.822L141.881 151.626ZM150.959 153.991C150.142 154.02 149.437 154.086 148.844 154.19C148.257 154.288 147.77 154.423 147.385 154.596C147.005 154.768 146.723 154.976 146.539 155.217C146.354 155.453 146.262 155.724 146.262 156.029C146.262 156.317 146.308 156.567 146.4 156.78C146.498 156.987 146.625 157.16 146.78 157.298C146.942 157.43 147.126 157.528 147.333 157.592C147.54 157.655 147.756 157.686 147.98 157.686C148.314 157.686 148.619 157.652 148.895 157.583C149.178 157.508 149.437 157.407 149.672 157.281C149.914 157.148 150.139 156.993 150.346 156.815C150.553 156.636 150.757 156.443 150.959 156.236V153.991ZM145.908 150.771C146.357 150.322 146.829 149.983 147.324 149.753C147.819 149.522 148.38 149.407 149.008 149.407C149.468 149.407 149.871 149.482 150.216 149.632C150.562 149.776 150.847 149.986 151.071 150.262C151.301 150.532 151.474 150.863 151.589 151.255C151.704 151.64 151.762 152.072 151.762 152.55V158.144H151.434C151.261 158.144 151.155 158.063 151.114 157.902L150.993 156.797C150.757 157.027 150.521 157.235 150.285 157.419C150.055 157.603 149.813 157.758 149.56 157.885C149.307 158.012 149.034 158.11 148.74 158.179C148.447 158.248 148.124 158.282 147.773 158.282C147.48 158.282 147.195 158.239 146.918 158.153C146.642 158.066 146.395 157.934 146.176 157.756C145.963 157.577 145.79 157.35 145.658 157.074C145.531 156.792 145.468 156.455 145.468 156.063C145.468 155.701 145.572 155.364 145.779 155.053C145.986 154.743 146.311 154.472 146.754 154.242C147.198 154.012 147.765 153.827 148.455 153.689C149.152 153.551 149.986 153.471 150.959 153.448V152.55C150.959 151.755 150.786 151.145 150.441 150.719C150.101 150.288 149.595 150.072 148.921 150.072C148.507 150.072 148.153 150.13 147.86 150.245C147.572 150.36 147.327 150.486 147.126 150.625C146.924 150.763 146.76 150.889 146.634 151.004C146.507 151.119 146.4 151.177 146.314 151.177C146.251 151.177 146.199 151.163 146.159 151.134C146.118 151.105 146.084 151.068 146.055 151.022L145.908 150.771ZM155.897 158.282C155.316 158.282 154.861 158.121 154.533 157.799C154.211 157.476 154.05 156.979 154.05 156.305V150.435H152.815C152.752 150.435 152.7 150.417 152.66 150.383C152.62 150.348 152.599 150.299 152.599 150.236V149.917L154.067 149.813L154.274 146.74C154.286 146.688 154.309 146.642 154.343 146.601C154.378 146.561 154.427 146.541 154.49 146.541H154.879V149.822H157.589V150.435H154.879V156.262C154.879 156.498 154.907 156.702 154.965 156.875C155.028 157.042 155.112 157.18 155.215 157.289C155.325 157.399 155.451 157.479 155.595 157.531C155.739 157.583 155.894 157.609 156.061 157.609C156.269 157.609 156.447 157.58 156.597 157.522C156.746 157.459 156.876 157.393 156.985 157.324C157.094 157.249 157.184 157.183 157.253 157.125C157.322 157.062 157.376 157.03 157.417 157.03C157.463 157.03 157.509 157.059 157.555 157.117L157.779 157.479C157.561 157.721 157.282 157.917 156.942 158.066C156.608 158.21 156.26 158.282 155.897 158.282ZM172.244 145.928V158.144H171.355V152.291H163.706V158.144H162.817V145.928H163.706V151.626H171.355V145.928H172.244ZM179.104 153.991C178.287 154.02 177.582 154.086 176.989 154.19C176.402 154.288 175.916 154.423 175.53 154.596C175.15 154.768 174.868 154.976 174.684 155.217C174.5 155.453 174.408 155.724 174.408 156.029C174.408 156.317 174.454 156.567 174.546 156.78C174.644 156.987 174.771 157.16 174.926 157.298C175.087 157.43 175.271 157.528 175.479 157.592C175.686 157.655 175.902 157.686 176.126 157.686C176.46 157.686 176.765 157.652 177.041 157.583C177.323 157.508 177.582 157.407 177.818 157.281C178.06 157.148 178.284 156.993 178.492 156.815C178.699 156.636 178.903 156.443 179.104 156.236V153.991ZM174.054 150.771C174.503 150.322 174.975 149.983 175.47 149.753C175.965 149.522 176.526 149.407 177.153 149.407C177.614 149.407 178.017 149.482 178.362 149.632C178.707 149.776 178.992 149.986 179.217 150.262C179.447 150.532 179.62 150.863 179.735 151.255C179.85 151.64 179.907 152.072 179.907 152.55V158.144H179.579C179.407 158.144 179.3 158.063 179.26 157.902L179.139 156.797C178.903 157.027 178.667 157.235 178.431 157.419C178.201 157.603 177.959 157.758 177.706 157.885C177.453 158.012 177.179 158.11 176.886 158.179C176.592 158.248 176.27 158.282 175.919 158.282C175.625 158.282 175.34 158.239 175.064 158.153C174.788 158.066 174.54 157.934 174.322 157.756C174.109 157.577 173.936 157.35 173.804 157.074C173.677 156.792 173.614 156.455 173.614 156.063C173.614 155.701 173.717 155.364 173.925 155.053C174.132 154.743 174.457 154.472 174.9 154.242C175.343 154.012 175.91 153.827 176.601 153.689C177.297 153.551 178.132 153.471 179.104 153.448V152.55C179.104 151.755 178.932 151.145 178.586 150.719C178.247 150.288 177.74 150.072 177.067 150.072C176.653 150.072 176.299 150.13 176.005 150.245C175.717 150.36 175.473 150.486 175.271 150.625C175.07 150.763 174.906 150.889 174.779 151.004C174.653 151.119 174.546 151.177 174.46 151.177C174.396 151.177 174.345 151.163 174.304 151.134C174.264 151.105 174.23 151.068 174.201 151.022L174.054 150.771ZM182.113 145.099C182.309 145.45 182.441 145.827 182.51 146.23C182.585 146.627 182.597 147.024 182.545 147.422C182.499 147.819 182.389 148.201 182.217 148.57C182.044 148.932 181.817 149.252 181.535 149.528L181.302 149.373C181.256 149.338 181.233 149.298 181.233 149.252C181.238 149.206 181.256 149.168 181.284 149.14C181.469 148.898 181.61 148.627 181.707 148.328C181.811 148.029 181.871 147.724 181.889 147.413C181.906 147.102 181.88 146.794 181.811 146.489C181.748 146.184 181.644 145.905 181.5 145.652C181.408 145.491 181.434 145.378 181.578 145.315L182.113 145.099ZM188.54 153.991C187.723 154.02 187.018 154.086 186.425 154.19C185.838 154.288 185.352 154.423 184.966 154.596C184.586 154.768 184.304 154.976 184.12 155.217C183.936 155.453 183.844 155.724 183.844 156.029C183.844 156.317 183.89 156.567 183.982 156.78C184.08 156.987 184.206 157.16 184.362 157.298C184.523 157.43 184.707 157.528 184.914 157.592C185.122 157.655 185.337 157.686 185.562 157.686C185.896 157.686 186.201 157.652 186.477 157.583C186.759 157.508 187.018 157.407 187.254 157.281C187.496 157.148 187.72 156.993 187.927 156.815C188.135 156.636 188.339 156.443 188.54 156.236V153.991ZM183.49 150.771C183.939 150.322 184.411 149.983 184.906 149.753C185.401 149.522 185.962 149.407 186.589 149.407C187.05 149.407 187.453 149.482 187.798 149.632C188.143 149.776 188.428 149.986 188.653 150.262C188.883 150.532 189.055 150.863 189.171 151.255C189.286 151.64 189.343 152.072 189.343 152.55V158.144H189.015C188.842 158.144 188.736 158.063 188.696 157.902L188.575 156.797C188.339 157.027 188.103 157.235 187.867 157.419C187.637 157.603 187.395 157.758 187.142 157.885C186.889 158.012 186.615 158.11 186.322 158.179C186.028 158.248 185.706 158.282 185.355 158.282C185.061 158.282 184.776 158.239 184.5 158.153C184.224 158.066 183.976 157.934 183.758 157.756C183.545 157.577 183.372 157.35 183.24 157.074C183.113 156.792 183.05 156.455 183.05 156.063C183.05 155.701 183.153 155.364 183.36 155.053C183.568 154.743 183.893 154.472 184.336 154.242C184.779 154.012 185.346 153.827 186.037 153.689C186.733 153.551 187.568 153.471 188.54 153.448V152.55C188.54 151.755 188.368 151.145 188.022 150.719C187.683 150.288 187.176 150.072 186.503 150.072C186.088 150.072 185.735 150.13 185.441 150.245C185.153 150.36 184.909 150.486 184.707 150.625C184.506 150.763 184.342 150.889 184.215 151.004C184.088 151.119 183.982 151.177 183.896 151.177C183.832 151.177 183.781 151.163 183.74 151.134C183.7 151.105 183.665 151.068 183.637 151.022L183.49 150.771ZM192.017 151.626C192.15 151.275 192.299 150.964 192.466 150.694C192.639 150.417 192.835 150.184 193.053 149.994C193.278 149.804 193.525 149.66 193.796 149.563C194.072 149.459 194.377 149.407 194.711 149.407C194.889 149.407 195.065 149.424 195.238 149.459C195.41 149.488 195.563 149.542 195.695 149.623L195.626 150.193C195.597 150.285 195.543 150.331 195.462 150.331C195.393 150.331 195.286 150.311 195.143 150.271C195.004 150.23 194.82 150.21 194.59 150.21C194.256 150.21 193.96 150.262 193.701 150.366C193.448 150.463 193.217 150.613 193.01 150.814C192.809 151.016 192.63 151.266 192.475 151.566C192.325 151.859 192.187 152.199 192.061 152.584V158.144H191.232V149.554H191.672C191.77 149.554 191.839 149.574 191.879 149.614C191.92 149.655 191.945 149.724 191.957 149.822L192.017 151.626ZM202.009 152.981C202.009 152.521 201.943 152.109 201.811 151.747C201.684 151.378 201.503 151.068 201.267 150.814C201.031 150.561 200.749 150.368 200.421 150.236C200.099 150.098 199.742 150.029 199.35 150.029C198.907 150.029 198.51 150.098 198.159 150.236C197.808 150.374 197.503 150.573 197.244 150.832C196.991 151.091 196.786 151.401 196.631 151.764C196.475 152.127 196.372 152.532 196.32 152.981H202.009ZM196.277 153.508V153.672C196.277 154.317 196.352 154.884 196.501 155.373C196.651 155.862 196.864 156.274 197.14 156.607C197.416 156.935 197.75 157.183 198.142 157.35C198.533 157.517 198.97 157.6 199.454 157.6C199.886 157.6 200.26 157.554 200.576 157.462C200.893 157.364 201.158 157.258 201.37 157.143C201.589 157.022 201.762 156.915 201.888 156.823C202.015 156.725 202.107 156.676 202.165 156.676C202.24 156.676 202.297 156.705 202.337 156.763L202.562 157.039C202.424 157.212 202.24 157.373 202.009 157.522C201.785 157.672 201.532 157.802 201.25 157.911C200.973 158.015 200.674 158.098 200.352 158.161C200.035 158.225 199.716 158.256 199.393 158.256C198.806 158.256 198.271 158.156 197.788 157.954C197.304 157.747 196.89 157.448 196.545 157.056C196.199 156.665 195.932 156.187 195.742 155.623C195.557 155.053 195.465 154.403 195.465 153.672C195.465 153.056 195.552 152.489 195.724 151.971C195.903 151.448 196.156 150.999 196.484 150.625C196.818 150.245 197.224 149.948 197.701 149.735C198.185 149.522 198.732 149.416 199.342 149.416C199.825 149.416 200.274 149.499 200.688 149.666C201.103 149.833 201.463 150.078 201.768 150.4C202.073 150.717 202.312 151.108 202.484 151.574C202.663 152.04 202.752 152.576 202.752 153.18C202.752 153.307 202.735 153.393 202.7 153.439C202.665 153.485 202.608 153.508 202.527 153.508H196.277ZM206.439 158.282C205.857 158.282 205.403 158.121 205.075 157.799C204.752 157.476 204.591 156.979 204.591 156.305V150.435H203.357C203.293 150.435 203.242 150.417 203.201 150.383C203.161 150.348 203.141 150.299 203.141 150.236V149.917L204.608 149.813L204.816 146.74C204.827 146.688 204.85 146.642 204.885 146.601C204.919 146.561 204.968 146.541 205.032 146.541H205.42V149.822H208.131V150.435H205.42V156.262C205.42 156.498 205.449 156.702 205.506 156.875C205.57 157.042 205.653 157.18 205.757 157.289C205.866 157.399 205.993 157.479 206.137 157.531C206.28 157.583 206.436 157.609 206.603 157.609C206.81 157.609 206.988 157.58 207.138 157.522C207.288 157.459 207.417 157.393 207.527 157.324C207.636 157.249 207.725 157.183 207.794 157.125C207.863 157.062 207.918 157.03 207.958 157.03C208.004 157.03 208.05 157.059 208.096 157.117L208.321 157.479C208.102 157.721 207.823 157.917 207.483 158.066C207.15 158.21 206.801 158.282 206.439 158.282ZM214.783 149.554V149.899C214.783 150.02 214.743 150.13 214.662 150.227L209.284 157.497H214.567V158.144H208.291V157.816C208.291 157.718 208.334 157.612 208.42 157.497L213.816 150.201H208.576V149.554H214.783Z" fill="#202020"/>
<path d="M70.4651 101.404V98.1937V96.5884C70.5547 96.4101 70.734 96.1603 70.734 96.5884C70.734 97.0165 70.9133 97.837 71.003 98.1937C71.8098 97.837 73.4235 97.6586 73.4235 99.7991C73.4235 102.475 72.0788 103.545 71.8098 103.545C71.5947 103.545 71.5409 103.367 71.5409 103.277C72.4015 102.635 72.4374 101.226 72.3477 100.602H71.003V101.404H70.4651Z" fill="#202020"/>
<path d="M57.5549 113.979C57.9192 113.456 57.6899 112.043 57.5549 111.439L63.4084 111.439C65.3918 111.761 65.4829 114.258 65.2805 115.466L64.8165 118.796C64.6707 119.105 64.5041 119.229 64.0097 119.331L63.7407 116.12C63.7407 114.227 63.1891 113.939 62.8012 113.905L57.5549 113.979Z" fill="#202020"/>
<path d="M73.9609 113.394C74.3667 112.715 74.3451 111.54 74.2837 111.037C74.4988 111.084 75.0859 111.216 75.7129 111.367C76.34 111.518 76.466 111.964 76.4506 112.168V113.347C77.594 113.234 77.5725 111.98 77.4188 111.367H79.4475C81.0151 111.319 81.5069 113.3 81.6144 114.101L82.0294 118.91H76.5428C76.9117 118.118 76.8195 117.04 76.7273 116.6H81.1534C81.4853 114.375 80.1852 113.63 79.4475 113.63H76.4045C76.0664 115.138 75.381 118.175 75.3441 118.25C75.298 118.344 74.9753 118.91 74.9292 119.004C74.8923 119.08 74.7294 119.067 74.6525 119.051C74.6986 118.061 75.6668 113.724 75.4363 113.724C75.2519 113.724 74.3759 113.504 73.9609 113.394Z" fill="#202020"/>
<path d="M64.3455 124.684H57.9189H57.1906C57.1906 124.558 57.0192 124.052 56.9335 123.926C56.865 123.825 56.8478 123.912 56.8478 123.968C57.0877 124.608 56.9478 126.201 56.8478 126.917L62.9316 126.959C63.2744 128.611 63.3886 129.894 63.4029 130.33V131.551C63.4029 131.804 63.3172 132.141 63.3172 132.31C63.3172 132.444 63.4029 132.45 63.4458 132.436C64.4055 131.796 64.474 130.933 64.3883 130.582C64.1884 129.698 63.7714 127.861 63.7028 127.591C63.6343 127.322 63.6457 127.058 63.66 126.959H64.3883V125.78C64.3883 125.544 64.474 125.035 64.5168 124.811C64.6168 124.656 64.8168 124.322 64.8168 124.221C64.8168 124.12 64.7596 124.122 64.7311 124.137L64.3455 124.684Z" fill="#202020"/>
<path d="M56.9335 130.203L57.8761 128.518C58.0474 128.484 58.1188 128.616 58.1331 128.687C58.0332 128.869 57.8675 129.318 58.0046 129.655C58.3131 129.959 59.1328 130.091 59.5041 130.119C59.1271 130.591 58.9472 131.776 58.9043 132.31C58.4616 132.282 57.4648 132.15 57.0192 131.846C56.5736 131.543 56.7764 130.624 56.9335 130.203Z" fill="#202020"/>
<path d="M73.4519 111.381H66.4187H65.7247C65.7247 111.243 65.5396 110.69 65.447 110.552C65.373 110.442 65.3545 110.537 65.3545 110.598C65.6136 111.298 65.4625 113.038 65.3545 113.821L71.9249 113.867C72.2951 115.671 72.4185 117.073 72.4339 117.549V118.884C72.4339 119.16 72.3414 119.528 72.3414 119.713C72.3414 119.86 72.4339 119.866 72.4802 119.851C73.5166 119.151 73.5907 118.209 73.4981 117.825C73.2822 116.859 72.8318 114.852 72.7578 114.557C72.6838 114.262 72.6961 113.974 72.7115 113.867H73.4981V112.578C73.4981 112.32 73.5907 111.764 73.6369 111.519C73.7449 111.35 73.9608 110.985 73.9608 110.874C73.9608 110.764 73.8992 110.767 73.8683 110.782L73.4519 111.381Z" fill="#202020"/>
<path d="M61.8579 105.953V103.545H63.2027C63.8481 103.331 63.4716 101.672 63.2027 100.869H62.3958V98.1938H69.9264V100.869H69.1195C69.2092 101.315 69.4423 102.314 69.6574 102.742C69.9264 103.277 69.6574 104.615 69.3885 105.685C69.1733 106.542 68.9402 106.042 68.8506 105.685C69.2809 105.257 68.6713 102.296 68.3127 100.869H64.0095C64.0095 100.959 64.1171 101.565 64.5474 103.277C64.9777 104.99 64.3681 105.775 64.0095 105.953H61.8579Z" fill="#202020"/>
<path d="M74.4992 100.602C74.9295 100.388 74.4992 98.3722 74.2302 97.3911C74.3199 97.3911 74.553 97.4446 74.7681 97.6587C74.9833 97.8727 75.0371 98.1046 75.0371 98.1938H80.685L81.2229 97.6587C81.438 97.4446 81.3125 98.283 81.2229 98.7289V103.545C81.4918 103.367 82.0297 102.956 82.0297 102.742C82.0297 102.475 82.2987 102.742 82.2987 103.01C82.2987 103.277 81.2229 105.953 81.4918 105.953H74.4992V103.545H80.416V100.602H74.4992Z" fill="#202020"/>
<path d="M69.3886 127.09C69.8189 126.876 69.3886 124.86 69.1196 123.879C69.2093 123.879 69.4424 123.933 69.6575 124.147C69.8727 124.361 69.9265 124.593 69.9265 124.682H75.5744L76.1123 124.147C76.3274 123.933 76.2019 124.771 76.1123 125.217V130.033C76.3812 129.855 76.9191 129.445 76.9191 129.231C76.9191 128.963 77.1881 129.231 77.1881 129.498C77.1881 129.766 76.1123 132.441 76.3812 132.441H69.3886V130.033H75.3054V127.09H69.3886Z" fill="#202020"/>
<path d="M47.0659 113.98V111.572H50.0244V113.98H48.9486L49.7554 116.388L50.5622 116.12C51.1001 115.763 52.2297 114.943 52.4449 114.515C52.66 114.087 51.4587 113.801 50.8312 113.712V110.234H51.3691C51.1898 110.591 51.1001 111.358 52.1759 111.572C54.3275 111.839 53.5207 113.712 53.5207 114.515C53.5207 115.157 51.7277 116.209 50.8312 116.655H53.5207C53.7896 116.566 54.5965 116.174 55.6723 115.318C56.7481 114.461 55.224 114.069 54.3275 113.98L54.5965 111.304C56.2102 111.839 57.5549 110.769 56.7481 114.782C56.1026 117.993 51.638 119.331 49.4865 119.598L49.2175 116.655L48.4107 113.98H47.0659Z" fill="#202020"/>
<path d="M77.995 127.358V124.95H80.6845V127.358H80.1466C80.4156 127.893 82.0293 130.568 82.2982 131.639C82.5671 132.709 81.2224 132.976 81.4914 132.709C81.7065 132.495 81.4017 131.193 81.2224 130.568H80.6845C80.6845 130.925 80.6307 131.799 80.4156 132.441C80.2004 133.083 78.5329 132.709 77.7261 132.441C78.1564 132.441 78.264 130.836 78.264 130.033C78.5329 130.123 79.286 130.247 80.1466 130.033C81.0072 129.819 79.9673 128.16 79.3398 127.358H77.995Z" fill="#202020"/>
<path d="M65.3545 124.682V127.357H67.2371C67.6674 127.999 67.775 131.192 67.775 132.708C68.5819 132.173 68.3129 127.625 68.3129 126.287C68.3129 125.217 67.775 124.771 67.5061 124.682H65.3545Z" fill="#202020"/>
</svg>
