<svg width="1160" height="875" viewBox="0 0 1160 875" fill="none" xmlns="http://www.w3.org/2000/svg">
<g opacity="0.3">
<circle cx="580.5" cy="439.5" r="337" stroke="#C4C4C4"/>
<circle cx="579.5" cy="436.5" r="6.5" fill="#C4C4C4"/>
<line x1="4.37114e-08" y1="436.5" x2="1160" y2="436.5" stroke="#C4C4C4"/>
<path d="M1076.38 435.633C1076.38 439.249 1073.32 442.221 1069.5 442.221C1065.68 442.221 1062.62 439.249 1062.62 435.633C1062.62 432.018 1065.68 429.046 1069.5 429.046C1073.32 429.046 1076.38 432.018 1076.38 435.633Z" stroke="#C4C4C4" stroke-width="1.25"/>
<line y1="-0.625" x2="24.5255" y2="-0.625" transform="matrix(0.720788 -0.693156 0.720788 0.693156 1060.75 445.25)" stroke="#C4C4C4" stroke-width="1.25"/>
<line y1="-0.625" x2="24.5255" y2="-0.625" transform="matrix(0.720788 0.693156 -0.720788 0.693156 1060.75 428.25)" stroke="#C4C4C4" stroke-width="1.25"/>
<line x1="1057" y1="436.21" x2="1082" y2="436.21" stroke="#C4C4C4" stroke-width="1.25"/>
<rect x="91.5" y="430.552" width="12" height="12.2243" stroke="#C4C4C4"/>
<path d="M97.5 440.099C95.638 440.099 94.125 438.563 94.125 436.664C94.125 434.765 95.638 433.229 97.5 433.229C99.362 433.229 100.875 434.765 100.875 436.664C100.875 438.563 99.362 440.099 97.5 440.099Z" fill="#C4C4C4" stroke="#C4C4C4" stroke-width="0.25"/>
<line y1="-0.5" x2="25.2166" y2="-0.5" transform="matrix(-0.701032 0.71313 -0.700575 -0.713579 106.678 427)" stroke="#C4C4C4"/>
<line y1="-0.5" x2="25.2166" y2="-0.5" transform="matrix(0.701032 0.71313 -0.701489 0.71268 88 428.017)" stroke="#C4C4C4"/>
<line x1="85" y1="436.682" x2="110" y2="436.682" stroke="#C4C4C4"/>
<line x1="361.434" y1="57.5643" x2="798.934" y2="815.336" stroke="#C4C4C4" stroke-width="0.868891"/>
<line x1="360.682" y1="816.001" x2="798.182" y2="58.2291" stroke="#C4C4C4" stroke-width="0.868891"/>
<line x1="580.5" y1="-2.18557e-08" x2="580.5" y2="875" stroke="#C4C4C4"/>
<line x1="200.864" y1="655.817" x2="958.636" y2="218.317" stroke="#C4C4C4"/>
<line x1="201.364" y1="218.317" x2="959.136" y2="655.817" stroke="#C4C4C4"/>
</g>
</svg>
