<svg width="82" height="60" viewBox="0 0 82 60" fill="none" xmlns="http://www.w3.org/2000/svg">
<path d="M21.0513 31.3041C21.9334 29.5382 21.6862 27.2907 21.4522 26.3877C24.1254 26.6887 30.2337 27.5315 33.2811 28.4947C36.3285 29.4579 36.4221 33.3777 36.0879 35.2171C35.3528 38.3609 33.8425 44.6887 33.6821 44.8492C33.5217 45.0098 33.0138 45.1837 32.7799 45.2506C32.8801 42.8425 33.0606 37.5449 32.9804 35.6185C32.9002 33.692 30.9421 32.9429 29.973 32.8091L21.0513 31.3041Z" fill="#202020"/>
<path d="M15.9391 7.72559H31.7777C31.477 8.59515 31.0559 10.7758 31.7777 12.5416H29.5723C30.0401 14.2139 31.0559 17.9597 31.3767 19.565C31.7777 21.5717 30.8755 22.6754 30.274 23.6788C29.7929 24.4814 29.3384 24.4814 29.1713 24.3811C29.7327 21.9731 29.0711 15.4848 28.6701 12.5416H18.8462C18.766 14.8694 19.5479 16.4547 19.9488 16.9564C20.4167 17.6587 21.2119 19.6252 20.6506 21.8727C20.0892 24.1202 16.34 24.147 14.5356 23.8794C15.2574 23.3978 15.2374 20.4681 15.1371 19.0634C16.9415 19.3644 19.1469 19.0634 18.4452 17.157C17.8838 15.6319 17.7435 13.4446 17.7435 12.5416H15.5381C15.9391 12.0734 16.5806 10.4547 15.9391 7.72559Z" fill="#202020"/>
<path d="M33.4817 11.9398C34.2034 10.8963 33.8493 8.22745 33.5819 7.02344L45.6113 7.82611C49.5409 8.46825 49.7213 13.4448 49.3203 15.8529L48.1174 24.6823L47.1149 25.184L46.714 17.6589C46.714 13.8863 45.1769 12.8094 44.4083 12.7425L33.4817 11.9398Z" fill="#202020"/>
<path d="M50.4231 11.9396C51.3052 10.4948 51.2585 7.99309 51.1248 6.92285C51.5926 7.02319 52.8691 7.30412 54.2324 7.62519C55.5957 7.94626 55.8697 8.8961 55.8363 9.33088V11.8392C58.3224 11.5984 58.2756 8.92954 57.9414 7.62519H62.3522C65.7605 7.52486 66.8298 11.7389 67.0637 13.4446L67.9659 23.6787H56.0368C56.8387 21.9931 56.6383 19.6988 56.4378 18.7623H66.0612C66.783 14.0265 63.9561 12.4412 62.3522 12.4412H55.7361C55.0009 15.6519 53.5106 22.1135 53.4304 22.274C53.3302 22.4747 52.6285 23.6787 52.5282 23.8794C52.448 24.0399 52.0938 24.0132 51.9268 23.9797C52.027 21.8727 54.1321 12.6419 53.6309 12.6419C53.2299 12.6419 51.3253 12.1737 50.4231 11.9396Z" fill="#202020"/>
<path d="M70.4719 12.8428C71.5145 10.9967 71.9756 7.79264 72.0758 6.4214L74.7824 7.42475C75.1032 6.62207 74.9829 3.74582 74.8827 2.40803L74.2812 1.90635L74.7824 0.702341L76.1858 1.20401L75.7849 2.40803H75.2836C75.444 4.65552 75.2836 6.68896 75.1834 7.42475C75.5175 7.55853 76.1658 7.80602 76.0856 7.72575C76.0054 7.64548 77.4556 3.67893 78.1907 1.70569L77.7898 1.20401L78.291 0L79.6944 0.702341L79.0929 2.00669L78.5917 1.90635C78.2709 2.06689 76.9878 5.98662 76.3863 7.92642L77.3888 8.32776C77.068 7.68562 79.1932 5.31773 80.2959 4.21405L79.8949 3.91304L80.5966 2.70903L82 3.51171L81.1981 4.71572L80.6968 4.41472C78.6118 5.9398 77.8232 7.72575 77.6895 8.42809L79.6944 9.3311C79.0528 10.1338 78.0905 13.8127 77.6895 15.5518C76.921 15.1839 75.3237 14.5084 75.0832 14.7492C74.7824 15.0502 74.5819 16.5552 73.9805 20.6689C73.4993 23.9599 73.1785 25.2508 73.0783 25.4849C72.1761 26.9565 70.3516 29.9197 70.2714 30C70.1712 30.1003 69.8704 29.8997 69.7702 29.5987C69.69 29.3579 70.0041 27.6923 70.1712 26.8896C70.8061 24.214 72.2362 18.4415 72.8778 16.7559C73.5193 15.0702 73.4792 14.1806 73.379 13.9465L70.4719 12.8428Z" fill="#202020"/>
<path d="M64.5575 26.2881H62.9536V27.8934H63.7555V32.2078H62.2519C62.2519 31.9068 61.8509 30.7028 61.6504 30.4018C61.49 30.161 61.4499 30.3684 61.4499 30.5021C62.0113 32.0272 61.6838 35.8199 61.4499 37.5255L75.6846 37.6259C76.4866 41.559 76.7539 44.6158 76.7873 45.6526V48.5623C76.7873 49.1643 76.5868 49.967 76.5868 50.3683C76.5868 50.6894 76.7873 50.7028 76.8876 50.6694C79.133 49.1443 79.2934 47.0908 79.093 46.2546C78.6251 44.1476 77.6494 39.773 77.489 39.1309C77.3286 38.4888 77.3554 37.86 77.3888 37.6259H79.093V34.8165C79.093 34.2546 79.2934 33.0439 79.3937 32.5088C79.6276 32.1409 80.0954 31.3449 80.0954 31.1041C80.0954 30.8633 79.9617 30.87 79.8949 30.9035L78.9927 32.2078H63.956V27.8934H64.5575V26.2881Z" fill="#202020"/>
<path d="M61.6504 45.3516L63.8558 41.3383C64.2568 41.258 64.4238 41.5724 64.4572 41.7396C64.2233 42.1744 63.8357 43.2446 64.1565 44.0473C64.8783 44.7697 66.7963 45.0841 67.6651 45.151C66.7829 46.2747 66.3619 49.0974 66.2616 50.3683C65.2258 50.3015 62.8934 49.9871 61.8509 49.2647C60.8084 48.5423 61.2828 46.355 61.6504 45.3516Z" fill="#202020"/>
<path d="M37.6918 26.3883C37.5916 28.5956 37.1906 31.3381 36.8899 32.4083L40.6992 34.9167C40.3984 36.4217 39.7569 40.0538 39.5965 42.5421C39.4361 45.0304 38.1931 48.1943 37.5916 49.4652C37.832 49.6727 38.2451 49.8567 38.6943 50.0672C39.2958 49.4652 41.3006 48.9635 43.0048 49.2645C44.3681 49.5053 44.5085 50.1675 44.4082 50.4685L43.8068 51.8732L44.5085 52.0739C46.6136 49.2645 46.8141 45.5521 46.7139 45.1508C46.6337 44.8297 46.2126 44.415 46.0121 44.2478C45.1099 43.7461 43.085 42.7628 42.2028 42.8431C41.3207 42.9234 41.167 42.4752 41.2004 42.2411C41.4343 40.4685 41.9222 36.803 42.0024 36.3214C42.0826 35.8398 42.4368 36.0538 42.6038 36.221L54.3324 46.8565C55.5354 48.0271 58.2019 50.1475 59.2444 49.2645C58.8434 46.6558 60.6478 42.7428 60.7481 42.1408C60.8283 41.6592 60.581 41.6725 60.4473 41.7394C60.3471 41.8398 60.0464 42.1608 59.6454 42.6424C59.2444 43.124 58.7432 42.8431 58.5427 42.6424L52.4278 36.823L58.1417 33.0103C59.1442 32.2077 59.1442 31.706 58.9437 30.4016C58.6986 28.807 56.3373 26.7227 54.9339 25.8866C55.0943 25.1642 55.1344 24.2478 55.1344 23.8799H54.4327C54.1119 25.5655 53.3634 26.8565 53.0293 27.2913L50.4229 30.4016L53.5305 33.0103C53.8312 33.3113 54.3324 33.9133 53.5305 34.716C52.7285 35.5187 51.5256 35.7194 51.0244 35.7194L44.5085 29.7996C40.198 26.3883 39.4628 18.2612 39.6967 14.1475L37.9926 17.8598C37.9592 19.6993 37.8522 23.9802 37.6918 26.3883Z" fill="url(#paint0_linear_501_488)"/>
<path d="M12.9315 31.6054C14.3751 29.7592 13.3993 26.087 12.731 24.4816C12.8914 24.1605 13.132 24.4147 13.2323 24.5819L13.8337 26.388C14.2347 26.4255 16.8745 27.3401 18.1443 27.7926C20.6504 29.4983 19.7482 30.903 18.5452 34.5151C17.5829 37.4047 14.2681 41.6722 12.731 43.4448C15.9389 50.0669 18.9462 58.8963 18.846 59.2977C18.7658 59.6187 18.3447 59.8997 18.1443 60L12.0293 47.3579L6.91687 35.7191L3.70905 36.7224C3.30807 34.7157 2.00489 32.408 1.40342 31.505L3.50856 30.602C3.02738 29.0769 1.63733 27.7592 1.00244 27.291L0.601467 27.3913L0 26.2876L1.20293 25.6856L1.70416 26.689L1.40342 27.0903L1.50367 27.1906C2.54621 28.0736 3.54197 29.7659 3.90953 30.5017C4.21027 30.4013 4.79169 30.1806 4.71149 30.1003C4.6313 30.0201 3.47514 26.7224 2.90709 25.0836L2.40587 24.9833L1.90465 23.9799L3.20782 23.3779L3.80929 24.5819L3.30808 24.9833C3.22788 25.2241 4.4776 28.495 5.11248 30.1003L5.91444 29.7993C5.51346 29.3177 5.6137 26.7893 5.71395 25.5853L5.41321 25.6856L5.01224 24.3813L6.21517 23.9799L6.61615 25.2843L6.11492 25.485C5.63375 27.893 5.98126 29.2977 6.21517 29.699L7.91932 29.1973C8.07971 30.4013 9.65689 33.2441 10.4254 34.5151C9.85738 34.7157 8.66112 35.1371 8.42054 35.2174C8.17995 35.2977 8.18663 35.4515 8.22005 35.5184C8.54083 36.1605 10.8932 40.3344 12.0293 42.3411C12.9984 41.3712 15.177 38.9097 16.1394 36.8227C17.3423 34.214 16.7408 33.5117 16.3399 32.9097C16.0191 32.4281 13.934 31.8395 12.9315 31.6054Z" fill="#202020"/>
<path d="M25.7217 54.125V58.6787H25.4353V54.7976C25.4353 54.7418 25.4385 54.6828 25.4449 54.6206L23.6524 57.8034C23.6224 57.8591 23.5794 57.887 23.5237 57.887H23.4722C23.4164 57.887 23.3735 57.8591 23.3434 57.8034L21.5026 54.6141C21.5091 54.6785 21.5123 54.7396 21.5123 54.7976V58.6787H21.2227V54.125H21.4511C21.4812 54.125 21.5048 54.1282 21.5219 54.1346C21.5391 54.1411 21.5563 54.1582 21.5734 54.1861L23.411 57.3528C23.4432 57.4129 23.4711 57.4773 23.4947 57.5459C23.5076 57.5116 23.5215 57.4783 23.5365 57.4461C23.5516 57.4118 23.5676 57.3796 23.5848 57.3496L25.3709 54.1861C25.3881 54.1582 25.4052 54.1411 25.4224 54.1346C25.4417 54.1282 25.4664 54.125 25.4964 54.125H25.7217ZM28.281 57.1308C27.9763 57.1415 27.7135 57.1662 27.4925 57.2048C27.2737 57.2413 27.0924 57.2917 26.9486 57.356C26.807 57.4204 26.7019 57.4976 26.6332 57.5877C26.5646 57.6757 26.5303 57.7765 26.5303 57.8903C26.5303 57.9975 26.5474 58.0909 26.5817 58.1702C26.6182 58.2475 26.6654 58.3118 26.7233 58.3633C26.7834 58.4127 26.8521 58.4491 26.9293 58.4727C27.0065 58.4963 27.087 58.5081 27.1707 58.5081C27.2951 58.5081 27.4088 58.4953 27.5118 58.4695C27.6169 58.4416 27.7135 58.4041 27.8014 58.3569C27.8916 58.3075 27.9752 58.2496 28.0525 58.1831C28.1297 58.1166 28.2059 58.0447 28.281 57.9675V57.1308ZM26.3983 55.9304C26.5657 55.763 26.7416 55.6364 26.9261 55.5506C27.1106 55.4648 27.3198 55.4219 27.5536 55.4219C27.7253 55.4219 27.8755 55.4498 28.0042 55.5056C28.1329 55.5592 28.2391 55.6375 28.3228 55.7405C28.4086 55.8413 28.473 55.9647 28.5159 56.1106C28.5588 56.2543 28.5802 56.4152 28.5802 56.5933V58.6787H28.458C28.3936 58.6787 28.3539 58.6487 28.3389 58.5886L28.2938 58.1767C28.2059 58.2625 28.1179 58.3397 28.0299 58.4084C27.9441 58.477 27.854 58.535 27.7596 58.5822C27.6652 58.6294 27.5633 58.6658 27.4539 58.6916C27.3445 58.7173 27.2243 58.7302 27.0934 58.7302C26.984 58.7302 26.8778 58.7141 26.7748 58.6819C26.6719 58.6497 26.5796 58.6004 26.4981 58.5339C26.4187 58.4674 26.3543 58.3826 26.305 58.2797C26.2578 58.1745 26.2342 58.049 26.2342 57.9031C26.2342 57.768 26.2728 57.6425 26.35 57.5266C26.4273 57.4107 26.5485 57.3099 26.7137 57.2241C26.8789 57.1383 27.0902 57.0696 27.3477 57.0181C27.6073 56.9666 27.9184 56.9366 28.281 56.928V56.5933C28.281 56.2972 28.2166 56.0698 28.0879 55.9111C27.9613 55.7502 27.7725 55.6697 27.5215 55.6697C27.367 55.6697 27.235 55.6912 27.1256 55.7341C27.0183 55.777 26.9272 55.8242 26.8521 55.8757C26.777 55.9272 26.7158 55.9744 26.6686 56.0173C26.6214 56.0602 26.5817 56.0816 26.5496 56.0816C26.526 56.0816 26.5067 56.0763 26.4916 56.0655C26.4766 56.0548 26.4637 56.0409 26.453 56.0237L26.3983 55.9304ZM31.4372 55.9046C31.4265 55.9154 31.4157 55.925 31.405 55.9336C31.3964 55.94 31.3836 55.9432 31.3664 55.9432C31.3449 55.9432 31.316 55.9293 31.2795 55.9014C31.243 55.8714 31.1937 55.8392 31.1315 55.8049C31.0692 55.7705 30.9909 55.7394 30.8965 55.7115C30.8043 55.6815 30.6916 55.6665 30.5586 55.6665C30.3741 55.6665 30.21 55.6997 30.0662 55.7662C29.9246 55.8306 29.8045 55.9239 29.7058 56.0462C29.6071 56.1685 29.532 56.3166 29.4805 56.4903C29.4312 56.6641 29.4065 56.8594 29.4065 57.0761C29.4065 57.3013 29.4323 57.5009 29.4838 57.6746C29.5374 57.8484 29.6125 57.9954 29.709 58.1155C29.8056 58.2335 29.9225 58.3236 30.0598 58.3859C30.1971 58.4481 30.3494 58.4792 30.5168 58.4792C30.6713 58.4792 30.8 58.4609 30.903 58.4245C31.0081 58.388 31.0939 58.3483 31.1604 58.3054C31.2291 58.2625 31.2827 58.2228 31.3213 58.1863C31.36 58.1499 31.3921 58.1316 31.4179 58.1316C31.4436 58.1316 31.4651 58.1423 31.4823 58.1638L31.5627 58.2668C31.5134 58.3311 31.4511 58.3912 31.3761 58.447C31.301 58.5028 31.2162 58.5511 31.1218 58.5918C31.0274 58.6326 30.9244 58.6637 30.8129 58.6851C30.7034 58.7087 30.5887 58.7205 30.4685 58.7205C30.2647 58.7205 30.078 58.6841 29.9086 58.6111C29.7412 58.536 29.5964 58.4288 29.4741 58.2893C29.354 58.1477 29.2596 57.975 29.1909 57.7712C29.1244 57.5674 29.0911 57.3357 29.0911 57.0761C29.0911 56.8315 29.1233 56.6083 29.1877 56.4067C29.252 56.205 29.3464 56.0312 29.4709 55.8853C29.5953 55.7394 29.7466 55.6268 29.9246 55.5474C30.1049 55.4659 30.3108 55.4251 30.5425 55.4251C30.7506 55.4251 30.9352 55.4584 31.0961 55.5249C31.257 55.5914 31.3975 55.6815 31.5177 55.7952L31.4372 55.9046ZM32.3073 56.0173C32.4553 55.837 32.6237 55.6933 32.8125 55.586C33.0035 55.4788 33.2169 55.4251 33.4529 55.4251C33.6289 55.4251 33.7833 55.453 33.9164 55.5088C34.0515 55.5646 34.1631 55.645 34.2511 55.7502C34.339 55.8553 34.4055 55.9819 34.4506 56.1299C34.4956 56.2779 34.5182 56.4453 34.5182 56.6319V58.6787H34.2092V56.6319C34.2092 56.3316 34.1406 56.0966 34.0033 55.9272C33.8659 55.7555 33.6568 55.6697 33.3757 55.6697C33.1676 55.6697 32.9724 55.7233 32.79 55.8306C32.6098 55.9357 32.4489 56.0827 32.3073 56.2715V58.6787H31.9983V53.9962H32.3073V56.0173ZM36.4832 55.4251C36.7128 55.4251 36.9177 55.4648 37.0979 55.5442C37.2803 55.6214 37.4337 55.7319 37.5581 55.8757C37.6825 56.0194 37.7769 56.1932 37.8413 56.397C37.9078 56.5987 37.9411 56.825 37.9411 57.0761C37.9411 57.3271 37.9078 57.5534 37.8413 57.7551C37.7769 57.9568 37.6825 58.1295 37.5581 58.2732C37.4337 58.417 37.2803 58.5275 37.0979 58.6047C36.9177 58.6819 36.7128 58.7205 36.4832 58.7205C36.2537 58.7205 36.0477 58.6819 35.8653 58.6047C35.6851 58.5275 35.5317 58.417 35.4051 58.2732C35.2807 58.1295 35.1852 57.9568 35.1187 57.7551C35.0543 57.5534 35.0222 57.3271 35.0222 57.0761C35.0222 56.825 35.0543 56.5987 35.1187 56.397C35.1852 56.1932 35.2807 56.0194 35.4051 55.8757C35.5317 55.7319 35.6851 55.6214 35.8653 55.5442C36.0477 55.4648 36.2537 55.4251 36.4832 55.4251ZM36.4832 58.4792C36.6742 58.4792 36.8404 58.447 36.982 58.3826C37.1258 58.3161 37.2449 58.2217 37.3393 58.0994C37.4358 57.9771 37.5077 57.8302 37.5549 57.6585C37.6021 57.4848 37.6257 57.2906 37.6257 57.0761C37.6257 56.8636 37.6021 56.6706 37.5549 56.4968C37.5077 56.323 37.4358 56.175 37.3393 56.0527C37.2449 55.9282 37.1258 55.8328 36.982 55.7662C36.8404 55.6997 36.6742 55.6665 36.4832 55.6665C36.2923 55.6665 36.1249 55.6997 35.9812 55.7662C35.8396 55.8328 35.7205 55.9282 35.624 56.0527C35.5296 56.175 35.4577 56.323 35.4083 56.4968C35.3611 56.6706 35.3375 56.8636 35.3375 57.0761C35.3375 57.2906 35.3611 57.4848 35.4083 57.6585C35.4577 57.8302 35.5296 57.9771 35.624 58.0994C35.7205 58.2217 35.8396 58.3161 35.9812 58.3826C36.1249 58.447 36.2923 58.4792 36.4832 58.4792ZM38.7753 56.0366C38.9234 55.8521 39.0939 55.704 39.287 55.5925C39.4823 55.4809 39.699 55.4251 39.9371 55.4251C40.113 55.4251 40.2675 55.453 40.4005 55.5088C40.5357 55.5646 40.6472 55.645 40.7352 55.7502C40.8232 55.8553 40.8897 55.9819 40.9347 56.1299C40.9798 56.2779 41.0023 56.4453 41.0023 56.6319V58.6787H40.6934V56.6319C40.6934 56.3316 40.6247 56.0966 40.4874 55.9272C40.3501 55.7555 40.1409 55.6697 39.8599 55.6697C39.6518 55.6697 39.4565 55.7233 39.2742 55.8306C39.0939 55.9357 38.933 56.0827 38.7914 56.2715V58.6787H38.4825V55.4766H38.653C38.7067 55.4766 38.7378 55.5034 38.7464 55.5571L38.7753 56.0366ZM46.1951 54.2376C46.1951 54.2784 46.1801 54.3223 46.1501 54.3695L43.2601 58.4052H46.1726V58.6787H42.8192V58.5596C42.8192 58.536 42.8225 58.5157 42.8289 58.4985C42.8375 58.4792 42.8471 58.4609 42.8579 58.4438L45.7542 54.3985H42.9029V54.125H46.1951V54.2376ZM46.9659 55.4766V58.6787H46.6602V55.4766H46.9659ZM47.0978 54.3728C47.0978 54.4114 47.0892 54.4479 47.0721 54.4822C47.0571 54.5144 47.0367 54.5433 47.0109 54.5691C46.9852 54.5948 46.9552 54.6152 46.9208 54.6302C46.8865 54.6452 46.85 54.6528 46.8114 54.6528C46.7728 54.6528 46.7363 54.6452 46.702 54.6302C46.6677 54.6152 46.6376 54.5948 46.6119 54.5691C46.5861 54.5433 46.5658 54.5144 46.5507 54.4822C46.5357 54.4479 46.5282 54.4114 46.5282 54.3728C46.5282 54.3341 46.5357 54.2977 46.5507 54.2633C46.5658 54.2269 46.5861 54.1958 46.6119 54.17C46.6376 54.1443 46.6677 54.1239 46.702 54.1089C46.7363 54.0939 46.7728 54.0863 46.8114 54.0863C46.85 54.0863 46.8865 54.0939 46.9208 54.1089C46.9552 54.1239 46.9852 54.1443 47.0109 54.17C47.0367 54.1958 47.0571 54.2269 47.0721 54.2633C47.0892 54.2977 47.0978 54.3341 47.0978 54.3728ZM47.736 58.6787V55.4766H47.9066C47.9602 55.4766 47.9913 55.5034 47.9999 55.5571L48.0289 56.0205C48.1533 55.8424 48.296 55.6987 48.4569 55.5892C48.6178 55.4798 48.7991 55.4251 49.0008 55.4251C49.2346 55.4251 49.4213 55.4927 49.5608 55.6279C49.7024 55.763 49.7978 55.9508 49.8472 56.191C49.8858 56.0602 49.9394 55.9465 50.0081 55.8499C50.0789 55.7534 50.1593 55.674 50.2494 55.6118C50.3396 55.5474 50.4372 55.5002 50.5423 55.4702C50.6496 55.4401 50.759 55.4251 50.8706 55.4251C51.0293 55.4251 51.172 55.4519 51.2986 55.5056C51.4252 55.5571 51.5324 55.6343 51.6204 55.7373C51.7084 55.8403 51.7759 55.9668 51.8231 56.117C51.8703 56.2672 51.8939 56.4388 51.8939 56.6319V58.6787H51.5882V56.6319C51.5882 56.3187 51.5206 56.0806 51.3855 55.9175C51.2503 55.7523 51.0572 55.6697 50.8062 55.6697C50.6946 55.6697 50.5874 55.6901 50.4844 55.7308C50.3835 55.7716 50.2934 55.8328 50.214 55.9143C50.1368 55.9937 50.0746 56.0934 50.0274 56.2136C49.9823 56.3337 49.9598 56.4732 49.9598 56.6319V58.6787H49.6509V56.6319C49.6509 56.3208 49.5886 56.0827 49.4642 55.9175C49.3419 55.7523 49.1617 55.6697 48.9236 55.6697C48.7498 55.6697 48.5889 55.7212 48.4408 55.8242C48.2928 55.9272 48.1608 56.0698 48.045 56.2522V58.6787H47.736ZM52.8864 56.249C52.9357 56.1181 52.9915 56.0022 53.0537 55.9014C53.1181 55.7984 53.191 55.7115 53.2725 55.6407C53.3562 55.5699 53.4485 55.5163 53.5493 55.4798C53.6523 55.4412 53.766 55.4219 53.8904 55.4219C53.9569 55.4219 54.0224 55.4283 54.0867 55.4412C54.1511 55.4519 54.208 55.4723 54.2573 55.5024L54.2316 55.7148C54.2208 55.7491 54.2004 55.7662 54.1704 55.7662C54.1447 55.7662 54.105 55.7587 54.0513 55.7437C53.9998 55.7287 53.9312 55.7212 53.8454 55.7212C53.7209 55.7212 53.6104 55.7405 53.5139 55.7791C53.4195 55.8156 53.3337 55.8714 53.2564 55.9465C53.1814 56.0216 53.1148 56.1149 53.0569 56.2264C53.0011 56.3359 52.9496 56.4624 52.9024 56.6062V58.6787H52.5935V55.4766H52.7576C52.7941 55.4766 52.8198 55.4841 52.8349 55.4991C52.8499 55.5142 52.8595 55.5399 52.8638 55.5764L52.8864 56.249ZM56.2704 57.1308C55.9658 57.1415 55.703 57.1662 55.482 57.2048C55.2631 57.2413 55.0819 57.2917 54.9381 57.356C54.7965 57.4204 54.6914 57.4976 54.6227 57.5877C54.5541 57.6757 54.5197 57.7765 54.5197 57.8903C54.5197 57.9975 54.5369 58.0909 54.5712 58.1702C54.6077 58.2475 54.6549 58.3118 54.7128 58.3633C54.7729 58.4127 54.8416 58.4491 54.9188 58.4727C54.996 58.4963 55.0765 58.5081 55.1602 58.5081C55.2846 58.5081 55.3983 58.4953 55.5013 58.4695C55.6064 58.4416 55.703 58.4041 55.7909 58.3569C55.881 58.3075 55.9647 58.2496 56.0419 58.1831C56.1192 58.1166 56.1953 58.0447 56.2704 57.9675V57.1308ZM54.3878 55.9304C54.5551 55.763 54.7311 55.6364 54.9156 55.5506C55.1001 55.4648 55.3093 55.4219 55.5431 55.4219C55.7148 55.4219 55.8649 55.4498 55.9937 55.5056C56.1224 55.5592 56.2286 55.6375 56.3123 55.7405C56.3981 55.8413 56.4625 55.9647 56.5054 56.1106C56.5483 56.2543 56.5697 56.4152 56.5697 56.5933V58.6787H56.4474C56.3831 58.6787 56.3434 58.6487 56.3284 58.5886L56.2833 58.1767C56.1953 58.2625 56.1074 58.3397 56.0194 58.4084C55.9336 58.477 55.8435 58.535 55.7491 58.5822C55.6547 58.6294 55.5528 58.6658 55.4434 58.6916C55.3339 58.7173 55.2138 58.7302 55.0829 58.7302C54.9735 58.7302 54.8673 58.7141 54.7643 58.6819C54.6613 58.6497 54.5691 58.6004 54.4876 58.5339C54.4082 58.4674 54.3438 58.3826 54.2945 58.2797C54.2473 58.1745 54.2237 58.049 54.2237 57.9031C54.2237 57.768 54.2623 57.6425 54.3395 57.5266C54.4168 57.4107 54.538 57.3099 54.7032 57.2241C54.8684 57.1383 55.0797 57.0696 55.3372 57.0181C55.5968 56.9666 55.9079 56.9366 56.2704 56.928V56.5933C56.2704 56.2972 56.2061 56.0698 56.0773 55.9111C55.9508 55.7502 55.762 55.6697 55.5109 55.6697C55.3565 55.6697 55.2245 55.6912 55.1151 55.7341C55.0078 55.777 54.9166 55.8242 54.8416 55.8757C54.7665 55.9272 54.7053 55.9744 54.6581 56.0173C54.6109 56.0602 54.5712 56.0816 54.539 56.0816C54.5154 56.0816 54.4961 56.0763 54.4811 56.0655C54.4661 56.0548 54.4532 56.0409 54.4425 56.0237L54.3878 55.9304ZM58.1113 58.7302C57.8947 58.7302 57.7252 58.6701 57.6029 58.55C57.4827 58.4298 57.4226 58.2443 57.4226 57.9932V55.8049H56.9624C56.9388 55.8049 56.9195 55.7984 56.9045 55.7856C56.8895 55.7727 56.882 55.7544 56.882 55.7308V55.6118L57.4291 55.5732L57.5063 54.4275C57.5106 54.4082 57.5192 54.391 57.5321 54.376C57.5449 54.361 57.5632 54.3535 57.5868 54.3535H57.7316V55.5764H58.7421V55.8049H57.7316V57.9771C57.7316 58.0651 57.7423 58.1413 57.7638 58.2056C57.7874 58.2679 57.8185 58.3193 57.8571 58.3601C57.8979 58.4009 57.9451 58.4309 57.9987 58.4502C58.0523 58.4695 58.1103 58.4792 58.1725 58.4792C58.2497 58.4792 58.3162 58.4685 58.372 58.447C58.4278 58.4234 58.4761 58.3987 58.5168 58.373C58.5576 58.3451 58.5909 58.3204 58.6166 58.299C58.6423 58.2754 58.6627 58.2636 58.6777 58.2636C58.6949 58.2636 58.7121 58.2743 58.7292 58.2957L58.8129 58.4309C58.7314 58.521 58.6273 58.594 58.5007 58.6497C58.3763 58.7034 58.2465 58.7302 58.1113 58.7302ZM64.205 54.125V58.6787H63.8736V56.4968H61.0222V58.6787H60.6908V54.125H61.0222V56.249H63.8736V54.125H64.205ZM66.7622 57.1308C66.4576 57.1415 66.1948 57.1662 65.9738 57.2048C65.755 57.2413 65.5737 57.2917 65.4299 57.356C65.2883 57.4204 65.1832 57.4976 65.1145 57.5877C65.0459 57.6757 65.0115 57.7765 65.0115 57.8903C65.0115 57.9975 65.0287 58.0909 65.063 58.1702C65.0995 58.2475 65.1467 58.3118 65.2046 58.3633C65.2647 58.4127 65.3334 58.4491 65.4106 58.4727C65.4878 58.4963 65.5683 58.5081 65.652 58.5081C65.7764 58.5081 65.8901 58.4953 65.9931 58.4695C66.0982 58.4416 66.1948 58.4041 66.2827 58.3569C66.3728 58.3075 66.4565 58.2496 66.5338 58.1831C66.611 58.1166 66.6872 58.0447 66.7622 57.9675V57.1308ZM64.8796 55.9304C65.0469 55.763 65.2229 55.6364 65.4074 55.5506C65.5919 55.4648 65.8011 55.4219 66.0349 55.4219C66.2066 55.4219 66.3568 55.4498 66.4855 55.5056C66.6142 55.5592 66.7204 55.6375 66.8041 55.7405C66.8899 55.8413 66.9543 55.9647 66.9972 56.1106C67.0401 56.2543 67.0615 56.4152 67.0615 56.5933V58.6787H66.9392C66.8749 58.6787 66.8352 58.6487 66.8202 58.5886L66.7751 58.1767C66.6872 58.2625 66.5992 58.3397 66.5112 58.4084C66.4254 58.477 66.3353 58.535 66.2409 58.5822C66.1465 58.6294 66.0446 58.6658 65.9352 58.6916C65.8258 58.7173 65.7056 58.7302 65.5747 58.7302C65.4653 58.7302 65.3591 58.7141 65.2561 58.6819C65.1531 58.6497 65.0609 58.6004 64.9794 58.5339C64.9 58.4674 64.8356 58.3826 64.7863 58.2797C64.7391 58.1745 64.7155 58.049 64.7155 57.9031C64.7155 57.768 64.7541 57.6425 64.8313 57.5266C64.9086 57.4107 65.0298 57.3099 65.195 57.2241C65.3602 57.1383 65.5715 57.0696 65.829 57.0181C66.0886 56.9666 66.3997 56.9366 66.7622 56.928V56.5933C66.7622 56.2972 66.6979 56.0698 66.5692 55.9111C66.4426 55.7502 66.2538 55.6697 66.0028 55.6697C65.8483 55.6697 65.7163 55.6912 65.6069 55.7341C65.4996 55.777 65.4085 55.8242 65.3334 55.8757C65.2583 55.9272 65.1971 55.9744 65.1499 56.0173C65.1027 56.0602 65.063 56.0816 65.0309 56.0816C65.0073 56.0816 64.9879 56.0763 64.9729 56.0655C64.9579 56.0548 64.945 56.0409 64.9343 56.0237L64.8796 55.9304ZM67.8838 53.816C67.9567 53.9469 68.0061 54.0874 68.0318 54.2376C68.0597 54.3856 68.064 54.5337 68.0447 54.6817C68.0275 54.8298 67.9868 54.9724 67.9224 55.1097C67.858 55.2449 67.7733 55.364 67.6682 55.467L67.5813 55.409C67.5641 55.3962 67.5555 55.3811 67.5555 55.364C67.5577 55.3468 67.5641 55.3329 67.5748 55.3221C67.6435 55.232 67.6961 55.1312 67.7325 55.0196C67.7712 54.9081 67.7937 54.7944 67.8001 54.6785C67.8066 54.5626 67.7969 54.4479 67.7712 54.3341C67.7476 54.2204 67.7089 54.1164 67.6553 54.022C67.621 53.9619 67.6306 53.9201 67.6843 53.8965L67.8838 53.816ZM70.2796 57.1308C69.975 57.1415 69.7122 57.1662 69.4912 57.2048C69.2723 57.2413 69.091 57.2917 68.9473 57.356C68.8057 57.4204 68.7006 57.4976 68.6319 57.5877C68.5633 57.6757 68.5289 57.7765 68.5289 57.8903C68.5289 57.9975 68.5461 58.0909 68.5804 58.1702C68.6169 58.2475 68.6641 58.3118 68.722 58.3633C68.7821 58.4127 68.8508 58.4491 68.928 58.4727C69.0052 58.4963 69.0857 58.5081 69.1694 58.5081C69.2938 58.5081 69.4075 58.4953 69.5105 58.4695C69.6156 58.4416 69.7122 58.4041 69.8001 58.3569C69.8902 58.3075 69.9739 58.2496 70.0511 58.1831C70.1284 58.1166 70.2045 58.0447 70.2796 57.9675V57.1308ZM68.397 55.9304C68.5643 55.763 68.7403 55.6364 68.9248 55.5506C69.1093 55.4648 69.3185 55.4219 69.5523 55.4219C69.724 55.4219 69.8741 55.4498 70.0029 55.5056C70.1316 55.5592 70.2378 55.6375 70.3215 55.7405C70.4073 55.8413 70.4717 55.9647 70.5146 56.1106C70.5575 56.2543 70.5789 56.4152 70.5789 56.5933V58.6787H70.4566C70.3923 58.6787 70.3526 58.6487 70.3376 58.5886L70.2925 58.1767C70.2045 58.2625 70.1166 58.3397 70.0286 58.4084C69.9428 58.477 69.8527 58.535 69.7583 58.5822C69.6639 58.6294 69.562 58.6658 69.4526 58.6916C69.3431 58.7173 69.223 58.7302 69.0921 58.7302C68.9827 58.7302 68.8765 58.7141 68.7735 58.6819C68.6705 58.6497 68.5783 58.6004 68.4968 58.5339C68.4174 58.4674 68.353 58.3826 68.3037 58.2797C68.2565 58.1745 68.2329 58.049 68.2329 57.9031C68.2329 57.768 68.2715 57.6425 68.3487 57.5266C68.426 57.4107 68.5472 57.3099 68.7124 57.2241C68.8776 57.1383 69.0889 57.0696 69.3464 57.0181C69.606 56.9666 69.9171 56.9366 70.2796 56.928V56.5933C70.2796 56.2972 70.2153 56.0698 70.0865 55.9111C69.96 55.7502 69.7712 55.6697 69.5201 55.6697C69.3657 55.6697 69.2337 55.6912 69.1243 55.7341C69.017 55.777 68.9258 55.8242 68.8508 55.8757C68.7757 55.9272 68.7145 55.9744 68.6673 56.0173C68.6201 56.0602 68.5804 56.0816 68.5482 56.0816C68.5246 56.0816 68.5053 56.0763 68.4903 56.0655C68.4753 56.0548 68.4624 56.0409 68.4517 56.0237L68.397 55.9304ZM71.5758 56.249C71.6251 56.1181 71.6809 56.0022 71.7431 55.9014C71.8075 55.7984 71.8804 55.7115 71.9619 55.6407C72.0456 55.5699 72.1379 55.5163 72.2387 55.4798C72.3417 55.4412 72.4554 55.4219 72.5798 55.4219C72.6463 55.4219 72.7118 55.4283 72.7761 55.4412C72.8405 55.4519 72.8974 55.4723 72.9467 55.5024L72.921 55.7148C72.9102 55.7491 72.8899 55.7662 72.8598 55.7662C72.8341 55.7662 72.7944 55.7587 72.7407 55.7437C72.6893 55.7287 72.6206 55.7212 72.5348 55.7212C72.4103 55.7212 72.2999 55.7405 72.2033 55.7791C72.1089 55.8156 72.0231 55.8714 71.9459 55.9465C71.8708 56.0216 71.8043 56.1149 71.7463 56.2264C71.6905 56.3359 71.639 56.4624 71.5918 56.6062V58.6787H71.2829V55.4766H71.447C71.4835 55.4766 71.5092 55.4841 71.5243 55.4991C71.5393 55.5142 71.5489 55.5399 71.5532 55.5764L71.5758 56.249ZM75.3005 56.7542C75.3005 56.5826 75.2758 56.4292 75.2264 56.294C75.1792 56.1567 75.1117 56.0409 75.0237 55.9465C74.9357 55.8521 74.8306 55.7802 74.7083 55.7308C74.5882 55.6794 74.4552 55.6536 74.3093 55.6536C74.1441 55.6536 73.996 55.6794 73.8652 55.7308C73.7343 55.7823 73.6206 55.8564 73.524 55.9529C73.4296 56.0494 73.3535 56.1653 73.2955 56.3005C73.2376 56.4356 73.199 56.5869 73.1797 56.7542H75.3005ZM73.1636 56.9505V57.0117C73.1636 57.252 73.1915 57.4633 73.2473 57.6457C73.303 57.828 73.3824 57.9814 73.4854 58.1059C73.5884 58.2282 73.7128 58.3204 73.8587 58.3826C74.0046 58.4449 74.1677 58.476 74.3479 58.476C74.5088 58.476 74.6482 58.4588 74.7662 58.4245C74.8842 58.388 74.9829 58.3483 75.0623 58.3054C75.1438 58.2603 75.2082 58.2207 75.2554 58.1863C75.3026 58.1499 75.3369 58.1316 75.3584 58.1316C75.3863 58.1316 75.4077 58.1423 75.4228 58.1638L75.5064 58.2668C75.4549 58.3311 75.3863 58.3912 75.3005 58.447C75.2168 58.5028 75.1224 58.5511 75.0173 58.5918C74.9143 58.6304 74.8027 58.6615 74.6826 58.6851C74.5646 58.7087 74.4455 58.7205 74.3254 58.7205C74.1065 58.7205 73.907 58.683 73.7268 58.6079C73.5465 58.5307 73.3921 58.4191 73.2633 58.2732C73.1346 58.1273 73.0349 57.9493 72.9641 57.739C72.8954 57.5266 72.8611 57.2842 72.8611 57.0117C72.8611 56.7821 72.8933 56.5708 72.9576 56.3777C73.0241 56.1825 73.1185 56.0151 73.2408 55.8757C73.3653 55.7341 73.5165 55.6236 73.6946 55.5442C73.8748 55.4648 74.0786 55.4251 74.306 55.4251C74.4863 55.4251 74.6536 55.4562 74.8081 55.5184C74.9626 55.5807 75.0966 55.6718 75.2104 55.792C75.3241 55.91 75.4131 56.0559 75.4775 56.2297C75.544 56.4034 75.5772 56.603 75.5772 56.8282C75.5772 56.8754 75.5708 56.9076 75.5579 56.9248C75.545 56.942 75.5236 56.9505 75.4936 56.9505H73.1636ZM76.9516 58.7302C76.7349 58.7302 76.5654 58.6701 76.4431 58.55C76.323 58.4298 76.2629 58.2443 76.2629 57.9932V55.8049H75.8027C75.7791 55.8049 75.7598 55.7984 75.7448 55.7856C75.7298 55.7727 75.7223 55.7544 75.7223 55.7308V55.6118L76.2693 55.5732L76.3466 54.4275C76.3509 54.4082 76.3595 54.391 76.3723 54.376C76.3852 54.361 76.4034 54.3535 76.427 54.3535H76.5719V55.5764H77.5824V55.8049H76.5719V57.9771C76.5719 58.0651 76.5826 58.1413 76.604 58.2056C76.6276 58.2679 76.6587 58.3193 76.6974 58.3601C76.7381 58.4009 76.7853 58.4309 76.839 58.4502C76.8926 58.4695 76.9505 58.4792 77.0127 58.4792C77.09 58.4792 77.1565 58.4685 77.2123 58.447C77.2681 58.4234 77.3163 58.3987 77.3571 58.373C77.3979 58.3451 77.4311 58.3204 77.4569 58.299C77.4826 58.2754 77.503 58.2636 77.518 58.2636C77.5352 58.2636 77.5523 58.2743 77.5695 58.2957L77.6532 58.4309C77.5716 58.521 77.4676 58.594 77.341 58.6497C77.2166 58.7034 77.0868 58.7302 76.9516 58.7302ZM80.0621 55.4766V55.6053C80.0621 55.6504 80.0471 55.6912 80.0171 55.7276L78.0121 58.4373H79.9817V58.6787H77.6421V58.5564C77.6421 58.5199 77.6581 58.4803 77.6903 58.4373L79.7017 55.718H77.7483V55.4766H80.0621Z" fill="#202020"/>
<path d="M26.2642 38.0265V36.8225V36.2205C26.2976 36.1536 26.3644 36.0599 26.3644 36.2205C26.3644 36.381 26.4312 36.6887 26.4646 36.8225C26.7654 36.6887 27.3669 36.6218 27.3669 37.4245C27.3669 38.4278 26.8656 38.8292 26.7654 38.8292C26.6852 38.8292 26.6651 38.7623 26.6651 38.7288C26.9859 38.488 26.9993 37.9596 26.9659 37.7255H26.4646V38.0265H26.2642Z" fill="#202020"/>
<path d="M21.4521 42.7417C21.5879 42.5454 21.5024 42.0156 21.4521 41.7891L23.6339 41.7891C24.3732 41.9099 24.4071 42.8461 24.3317 43.2992L24.1588 44.5478C24.1044 44.6639 24.0423 44.7103 23.858 44.7484L23.7578 43.5444C23.7578 42.8347 23.5522 42.7266 23.4076 42.714L21.4521 42.7417Z" fill="#202020"/>
<path d="M27.5671 42.5227C27.7184 42.2681 27.7103 41.8273 27.6874 41.6387C27.7676 41.6564 27.9864 41.7059 28.2202 41.7624C28.4539 41.819 28.5008 41.9864 28.4951 42.063V42.505C28.9213 42.4626 28.9133 41.9923 28.856 41.7624H29.6121C30.1964 41.7448 30.3797 42.4873 30.4198 42.7879L30.5745 44.5912H28.5295C28.667 44.2942 28.6326 43.8899 28.5982 43.7249H30.248C30.3717 42.8904 29.8871 42.6111 29.6121 42.6111H28.4779C28.3519 43.1768 28.0964 44.3154 28.0827 44.3437C28.0655 44.379 27.9452 44.5912 27.928 44.6266C27.9143 44.6548 27.8536 44.6501 27.8249 44.6442C27.8421 44.273 28.203 42.6464 28.1171 42.6464C28.0483 42.6464 27.7218 42.5639 27.5671 42.5227Z" fill="#202020"/>
<path d="M23.9833 46.7559H21.5879H21.3165C21.3165 46.7085 21.2526 46.5189 21.2206 46.4715C21.1951 46.4336 21.1887 46.4663 21.1887 46.4873C21.2781 46.7275 21.226 47.3247 21.1887 47.5932L23.4563 47.609C23.5841 48.2283 23.6266 48.7097 23.632 48.8729V49.3311C23.632 49.4259 23.6 49.5522 23.6 49.6154C23.6 49.666 23.632 49.6681 23.6479 49.6628C24.0056 49.4227 24.0312 49.0994 23.9993 48.9677C23.9247 48.6359 23.7693 47.9471 23.7438 47.846C23.7182 47.7449 23.7225 47.6459 23.7278 47.609H23.9993V47.1667C23.9993 47.0782 24.0312 46.8876 24.0472 46.8033C24.0844 46.7454 24.1589 46.62 24.1589 46.5821C24.1589 46.5442 24.1377 46.5453 24.127 46.5505L23.9833 46.7559Z" fill="#202020"/>
<path d="M21.2206 48.8255L21.572 48.1936C21.6358 48.1809 21.6625 48.2304 21.6678 48.2568C21.6305 48.3252 21.5688 48.4937 21.6199 48.6201C21.7348 48.7339 22.0404 48.7834 22.1788 48.7939C22.0383 48.9709 21.9712 49.4153 21.9552 49.6154C21.7902 49.6049 21.4187 49.5554 21.2526 49.4417C21.0865 49.3279 21.1621 48.9835 21.2206 48.8255Z" fill="#202020"/>
<path d="M27.3775 41.7673H24.756H24.4973C24.4973 41.7155 24.4284 41.5083 24.3939 41.4566C24.3663 41.4151 24.3594 41.4508 24.3594 41.4738C24.456 41.7362 24.3996 42.3887 24.3594 42.6821L26.8084 42.6994C26.9463 43.3761 26.9923 43.902 26.9981 44.0804V44.5809C26.9981 44.6845 26.9636 44.8226 26.9636 44.8917C26.9636 44.9469 26.9981 44.9492 27.0153 44.9434C27.4016 44.6811 27.4292 44.3278 27.3947 44.1839C27.3143 43.8214 27.1464 43.0688 27.1188 42.9583C27.0912 42.8479 27.0958 42.7397 27.1015 42.6994H27.3947V42.2161C27.3947 42.1194 27.4292 41.9111 27.4465 41.8191C27.4867 41.7558 27.5672 41.6188 27.5672 41.5774C27.5672 41.536 27.5442 41.5371 27.5327 41.5429L27.3775 41.7673Z" fill="#202020"/>
<path d="M23.0562 39.732V38.829H23.5574C23.798 38.7487 23.6576 38.1266 23.5574 37.8256H23.2566V36.8223H26.0635V37.8256H25.7628C25.7962 37.9928 25.883 38.3674 25.9632 38.528C26.0635 38.7286 25.9632 39.2303 25.863 39.6316C25.7828 39.9527 25.6959 39.7654 25.6625 39.6316C25.8229 39.4711 25.5957 38.3607 25.462 37.8256H23.8581C23.8581 37.8591 23.8982 38.0865 24.0586 38.7286C24.219 39.3708 23.9918 39.6651 23.8581 39.732H23.0562Z" fill="#202020"/>
<path d="M27.7677 37.7255C27.9281 37.6452 27.7677 36.8894 27.6675 36.5215C27.7009 36.5215 27.7878 36.5416 27.868 36.6218C27.9482 36.7021 27.9682 36.789 27.9682 36.8225H30.0733L30.2738 36.6218C30.354 36.5416 30.3073 36.8559 30.2738 37.0232V38.8292C30.3741 38.7623 30.5746 38.6084 30.5746 38.5282C30.5746 38.4278 30.6748 38.5282 30.6748 38.6285C30.6748 38.7288 30.2738 39.7322 30.3741 39.7322H27.7677V38.8292H29.9731V37.7255H27.7677Z" fill="#202020"/>
<path d="M25.8632 47.6581C26.0236 47.5778 25.8632 46.822 25.7629 46.4541C25.7964 46.4541 25.8832 46.4742 25.9634 46.5544C26.0436 46.6347 26.0637 46.7217 26.0637 46.7551H28.1688L28.3693 46.5544C28.4495 46.4742 28.4027 46.7885 28.3693 46.9558V48.7618C28.4695 48.6949 28.67 48.5411 28.67 48.4608C28.67 48.3605 28.7703 48.4608 28.7703 48.5611C28.7703 48.6615 28.3693 49.6648 28.4695 49.6648H25.8632V48.7618H28.0686V47.6581H25.8632Z" fill="#202020"/>
<path d="M17.5427 42.7426V41.8396H18.6454V42.7426H18.2444L18.5452 43.6456L18.8459 43.5452C19.0464 43.4115 19.4674 43.1038 19.5476 42.9432C19.6278 42.7827 19.1801 42.6757 18.9461 42.6422V41.3379H19.1466C19.0798 41.4717 19.0464 41.7593 19.4474 41.8396C20.2493 41.9399 19.9486 42.6422 19.9486 42.9432C19.9486 43.184 19.2803 43.5787 18.9461 43.7459H19.9486C20.0488 43.7125 20.3496 43.5653 20.7505 43.2442C21.1515 42.9232 20.5835 42.776 20.2493 42.7426L20.3496 41.7392C20.951 41.9399 21.4523 41.5386 21.1515 43.0436C20.9109 44.2476 19.2469 44.7493 18.4449 44.8496L18.3447 43.7459L18.0439 42.7426H17.5427Z" fill="#202020"/>
<path d="M29.0709 47.7585V46.8555H30.0734V47.7585H29.8729C29.9731 47.9591 30.5746 48.9625 30.6749 49.3638C30.7751 49.7652 30.2739 49.8655 30.3741 49.7652C30.4543 49.6849 30.3407 49.1966 30.2739 48.9625H30.0734C30.0734 49.0963 30.0533 49.424 29.9731 49.6648C29.893 49.9056 29.2714 49.7652 28.9707 49.6648C29.1311 49.6648 29.1712 49.0628 29.1712 48.7618C29.2714 48.7953 29.5521 48.8421 29.8729 48.7618C30.1937 48.6816 29.8061 48.0595 29.5722 47.7585H29.0709Z" fill="#202020"/>
<path d="M24.3594 46.7559V47.7592H25.0611C25.2215 48 25.2616 49.1973 25.2616 49.7659C25.5623 49.5652 25.4621 47.8595 25.4621 47.3579C25.4621 46.9565 25.2616 46.7893 25.1613 46.7559H24.3594Z" fill="#202020"/>
<defs>
<linearGradient id="paint0_linear_501_488" x1="36.9" y1="24.053" x2="58.5873" y2="48.3411" gradientUnits="userSpaceOnUse">
<stop stop-color="#BD22C0"/>
<stop offset="1" stop-color="#643793"/>
</linearGradient>
</defs>
</svg>
