<svg width="15" height="30" viewBox="0 0 15 30" fill="none" xmlns="http://www.w3.org/2000/svg">
<g clip-path="url(#clip0_242_1490)">
<path d="M14.548 14.352L2.59395 14.352C2.59395 14.352 2.58796 14.346 2.59395 14.344L13.652 9.73799C13.904 9.63199 14.016 9.33199 13.888 9.08399C13.774 8.86399 13.498 8.78399 13.27 8.87799L2.25796 13.466C2.25796 13.466 2.24995 13.462 2.25395 13.458L10.686 5.02199C10.862 4.84599 10.89 4.56199 10.732 4.37199C10.552 4.15799 10.232 4.14799 10.038 4.33999L1.50995 12.868C1.50995 12.868 1.49995 12.868 1.50196 12.864L5.93995 1.64999C6.03595 1.40799 5.91795 1.13599 5.67595 1.03999C5.43395 0.943991 5.16195 1.06199 5.06595 1.30399L0.699954 12.334C0.699954 12.334 0.691955 12.338 0.691955 12.334L0.691955 0.493991C0.691955 0.245991 0.511954 0.0239916 0.263954 0.00199158C-0.0140457 -0.0220084 -0.248045 0.195991 -0.248045 0.469991L-0.248045 12.448C-0.248045 12.448 -0.254045 12.454 -0.256045 12.448L-4.86405 1.39399C-4.96404 1.15399 -5.24004 1.03999 -5.47804 1.13999C-5.71805 1.23999 -5.83004 1.51599 -5.73205 1.75399L-1.13605 12.788C-1.13605 12.788 -1.14005 12.796 -1.14405 12.792L-9.59404 4.34199C-9.78804 4.14799 -10.108 4.15799 -10.288 4.37399C-10.448 4.56399 -10.418 4.84999 -10.242 5.02399L-1.73205 13.534C-1.73205 13.534 -1.73205 13.544 -1.73605 13.542L-12.95 9.10199C-13.192 9.00599 -13.464 9.12399 -13.56 9.36599C-13.656 9.60799 -13.538 9.87999 -13.296 9.97599L-2.26605 14.342C-2.26605 14.342 -2.26204 14.35 -2.26605 14.35L-14.106 14.35C-14.354 14.35 -14.576 14.53 -14.598 14.778C-14.622 15.056 -14.404 15.29 -14.13 15.29L-2.15204 15.29C-2.15204 15.29 -2.14604 15.296 -2.15204 15.298L-13.206 19.906C-13.446 20.006 -13.558 20.282 -13.46 20.52C-13.384 20.7 -13.21 20.81 -13.026 20.81C-12.966 20.81 -12.904 20.798 -12.846 20.774L-1.81205 16.178C-1.81205 16.178 -1.80404 16.182 -1.80805 16.186L-10.24 24.618C-10.432 24.81 -10.444 25.134 -10.244 25.316C-10.154 25.398 -10.04 25.438 -9.92604 25.438C-9.80604 25.438 -9.68604 25.392 -9.59404 25.3L-1.06605 16.772C-1.06605 16.772 -1.05605 16.772 -1.05805 16.776L-5.49605 27.99C-5.59204 28.232 -5.47404 28.504 -5.23205 28.6C-5.17604 28.622 -5.11604 28.634 -5.06004 28.634C-4.87204 28.634 -4.69604 28.522 -4.62204 28.336L-0.256045 17.306C-0.256045 17.306 -0.248045 17.302 -0.248045 17.306L-0.248045 29.144C-0.248045 29.392 -0.0680456 29.614 0.179955 29.636C0.457954 29.66 0.691955 29.442 0.691955 29.168L0.691955 17.19C0.691955 17.19 0.697954 17.184 0.699954 17.19L5.30595 28.248C5.38195 28.428 5.55595 28.538 5.73995 28.538C5.79995 28.538 5.86195 28.526 5.91995 28.502C6.15995 28.402 6.27196 28.126 6.17396 27.888L1.57796 16.854C1.57796 16.854 1.58195 16.846 1.58595 16.85L10.038 25.302C10.13 25.394 10.25 25.44 10.37 25.44C10.484 25.44 10.598 25.398 10.688 25.318C10.888 25.136 10.876 24.81 10.684 24.62L2.17595 16.112C2.17595 16.112 2.17595 16.102 2.17995 16.104L13.394 20.542C13.45 20.564 13.51 20.576 13.566 20.576C13.754 20.576 13.93 20.464 14.004 20.278C14.1 20.036 13.982 19.764 13.74 19.668L2.70996 15.302C2.70996 15.302 2.70596 15.294 2.70996 15.294L14.574 15.294C14.848 15.294 15.066 15.06 15.042 14.782C15.02 14.536 14.798 14.354 14.55 14.354L14.548 14.352Z" fill="#C4C4C4"/>
</g>
<defs>
<clipPath id="clip0_242_1490">
<rect width="15" height="29.6" fill="white"/>
</clipPath>
</defs>
</svg>
