<svg width="1160" height="536" viewBox="0 0 1160 536" fill="none" xmlns="http://www.w3.org/2000/svg">
<path d="M271 91L183.5 204.5M271 91L584 320.5M271 91H946.5" stroke="#C4C4C4"/>
<path d="M118.791 143C134.865 165.753 152.929 187.257 172.869 207.238C265.908 300.472 392.174 352.928 523.888 353.065C655.603 353.203 781.978 301.012 875.212 207.972C929.534 153.763 970.014 88.2744 994.367 17" stroke="#C4C4C4"/>
<g clip-path="url(#clip0_218_96)">
<path d="M284.106 88.0507L272.493 90.8819C272.493 90.8819 272.485 90.8775 272.491 90.8741L282.143 83.7802C282.363 83.6176 282.401 83.2996 282.218 83.0889C282.055 82.9022 281.768 82.8898 281.568 83.0352L271.956 90.1007C271.956 90.1007 271.948 90.0987 271.951 90.0938L278.145 79.9008C278.274 79.6882 278.234 79.4056 278.035 79.2584C277.81 79.0932 277.497 79.1592 277.354 79.3917L271.088 89.6968C271.088 89.6968 271.078 89.6992 271.079 89.6948L272.735 77.7488C272.771 77.491 272.592 77.2546 272.334 77.2187C272.076 77.1827 271.84 77.3618 271.804 77.6196L270.175 89.3699C270.175 89.3699 270.168 89.3756 270.167 89.3718L267.363 77.8686C267.304 77.6277 267.076 77.4546 266.83 77.492C266.554 77.5345 266.379 77.8017 266.444 78.0679L269.28 89.7051C269.28 89.7051 269.276 89.7124 269.273 89.707L262.178 80.0589C262.024 79.8494 261.729 79.804 261.521 79.9575C261.312 80.1115 261.268 80.4062 261.42 80.6142L268.498 90.2458C268.498 90.2458 268.496 90.2545 268.491 90.2516L258.281 84.0432C258.046 83.9007 257.738 83.9862 257.614 84.2387C257.503 84.4612 257.6 84.7319 257.813 84.8593L268.096 91.1117C268.096 91.1117 268.098 91.1214 268.094 91.1204L256.147 89.4626C255.89 89.4267 255.653 89.6057 255.617 89.8636C255.581 90.1214 255.76 90.3577 256.018 90.3937L267.768 92.0232C267.768 92.0232 267.774 92.03 267.77 92.031L256.267 94.8351C256.026 94.8938 255.853 95.1213 255.891 95.3674C255.933 95.6432 256.2 95.8189 256.467 95.754L268.104 92.9172C268.104 92.9172 268.111 92.9216 268.106 92.925L258.457 100.02C258.248 100.174 258.205 100.469 258.356 100.677C258.473 100.833 258.668 100.899 258.846 100.856C258.905 100.841 258.962 100.815 259.013 100.778L268.644 93.6994C268.644 93.6994 268.653 93.7014 268.65 93.7062L262.455 103.895C262.314 104.127 262.379 104.445 262.616 104.574C262.723 104.633 262.844 104.645 262.954 104.618C263.071 104.589 263.177 104.516 263.244 104.405L269.51 94.0998C269.51 94.0998 269.52 94.0975 269.519 94.1018L267.863 106.048C267.827 106.306 268.006 106.542 268.264 106.578C268.323 106.586 268.384 106.584 268.439 106.57C268.621 106.526 268.766 106.375 268.794 106.177L270.423 94.4268C270.423 94.4268 270.43 94.421 270.431 94.4249L273.235 105.926C273.293 106.167 273.521 106.34 273.767 106.303C274.043 106.26 274.219 105.993 274.154 105.727L271.317 94.0896C271.317 94.0896 271.321 94.0823 271.325 94.0877L278.418 103.74C278.535 103.897 278.73 103.963 278.909 103.919C278.967 103.905 279.025 103.879 279.075 103.842C279.285 103.688 279.328 103.393 279.177 103.185L272.098 93.5533C272.098 93.5533 272.1 93.5446 272.105 93.5475L282.318 99.7573C282.429 99.8249 282.557 99.8412 282.673 99.8128C282.784 99.7858 282.885 99.718 282.953 99.6189C283.105 99.3947 283.016 99.0809 282.784 98.9417L272.503 92.6908C272.503 92.6908 272.501 92.6811 272.505 92.6821L284.451 94.3379C284.511 94.3461 284.572 94.3435 284.626 94.3302C284.809 94.2857 284.954 94.1352 284.981 93.937C285.017 93.6791 284.838 93.4428 284.58 93.4069L272.83 91.7774C272.83 91.7774 272.824 91.7706 272.828 91.7696L284.355 88.9598C284.621 88.8949 284.777 88.6159 284.688 88.3515C284.609 88.1177 284.35 87.9935 284.109 88.0522L284.106 88.0507Z" fill="#606060"/>
</g>
<defs>
<clipPath id="clip0_218_96">
<rect width="30" height="30" fill="white" transform="translate(252 81.105) rotate(-13.6999)"/>
</clipPath>
</defs>
</svg>
