<svg width="360" height="562" viewBox="0 0 360 562" fill="none" xmlns="http://www.w3.org/2000/svg">
<path d="M332.5 14L122 113" stroke="#C4C4C4"/>
<path d="M332.5 13L272 267.501" stroke="#C4C4C4"/>
<path d="M333 13.5L106.5 381.499" stroke="#C4C4C4"/>
<g clip-path="url(#clip0_374_2177)">
<path d="M344.623 12.9601H334.662C334.662 12.9601 334.657 12.9551 334.662 12.9534L343.877 9.11508C344.087 9.02675 344.18 8.77675 344.073 8.57008C343.978 8.38675 343.748 8.32008 343.558 8.39841L334.382 12.2217C334.382 12.2217 334.375 12.2184 334.378 12.2151L341.405 5.18508C341.552 5.03842 341.575 4.80175 341.443 4.64342C341.293 4.46508 341.027 4.45675 340.865 4.61675L333.758 11.7234C333.758 11.7234 333.75 11.7234 333.752 11.7201L337.45 2.37508C337.53 2.17342 337.432 1.94675 337.23 1.86675C337.028 1.78675 336.802 1.88508 336.722 2.08675L333.083 11.2784C333.083 11.2784 333.077 11.2817 333.077 11.2784V1.41175C333.077 1.20508 332.927 1.02008 332.72 1.00175C332.488 0.981751 332.293 1.16342 332.293 1.39175V11.3734C332.293 11.3734 332.288 11.3784 332.287 11.3734L328.447 2.16175C328.363 1.96175 328.133 1.86675 327.935 1.95008C327.735 2.03342 327.642 2.26342 327.723 2.46175L331.553 11.6567C331.553 11.6567 331.55 11.6634 331.547 11.6601L324.505 4.61842C324.343 4.45675 324.077 4.46508 323.927 4.64508C323.793 4.80342 323.818 5.04175 323.965 5.18675L331.057 12.2784C331.057 12.2784 331.057 12.2867 331.053 12.2851L321.708 8.58508C321.507 8.50508 321.28 8.60341 321.2 8.80508C321.12 9.00675 321.218 9.23341 321.42 9.31341L330.612 12.9517C330.612 12.9517 330.615 12.9584 330.612 12.9584H320.745C320.538 12.9584 320.353 13.1084 320.335 13.3151C320.315 13.5467 320.497 13.7417 320.725 13.7417H330.707C330.707 13.7417 330.712 13.7467 330.707 13.7484L321.495 17.5884C321.295 17.6717 321.202 17.9017 321.283 18.1001C321.347 18.2501 321.492 18.3417 321.645 18.3417C321.695 18.3417 321.747 18.3317 321.795 18.3117L330.99 14.4817C330.99 14.4817 330.997 14.4851 330.993 14.4884L323.967 21.5151C323.807 21.6751 323.797 21.9451 323.963 22.0967C324.038 22.1651 324.133 22.1984 324.228 22.1984C324.328 22.1984 324.428 22.1601 324.505 22.0834L331.612 14.9767C331.612 14.9767 331.62 14.9767 331.618 14.9801L327.92 24.3251C327.84 24.5267 327.938 24.7534 328.14 24.8334C328.187 24.8517 328.237 24.8617 328.283 24.8617C328.44 24.8617 328.587 24.7684 328.648 24.6134L332.287 15.4217C332.287 15.4217 332.293 15.4184 332.293 15.4217V25.2867C332.293 25.4934 332.443 25.6784 332.65 25.6967C332.882 25.7167 333.077 25.5351 333.077 25.3067V15.3251C333.077 15.3251 333.082 15.3201 333.083 15.3251L336.922 24.5401C336.985 24.6901 337.13 24.7817 337.283 24.7817C337.333 24.7817 337.385 24.7717 337.433 24.7517C337.633 24.6684 337.727 24.4384 337.645 24.2401L333.815 15.0451C333.815 15.0451 333.818 15.0384 333.822 15.0417L340.865 22.0851C340.942 22.1617 341.042 22.2001 341.142 22.2001C341.237 22.2001 341.332 22.1651 341.407 22.0984C341.573 21.9467 341.563 21.6751 341.403 21.5167L334.313 14.4267C334.313 14.4267 334.313 14.4184 334.317 14.4201L343.662 18.1184C343.708 18.1367 343.758 18.1467 343.805 18.1467C343.962 18.1467 344.108 18.0534 344.17 17.8984C344.25 17.6967 344.152 17.4701 343.95 17.3901L334.758 13.7517C334.758 13.7517 334.755 13.7451 334.758 13.7451H344.645C344.873 13.7451 345.055 13.5501 345.035 13.3184C345.017 13.1134 344.832 12.9617 344.625 12.9617L344.623 12.9601Z" fill="#202020"/>
</g>
<defs>
<clipPath id="clip0_374_2177">
<rect width="25" height="25" fill="white" transform="translate(320 1)"/>
</clipPath>
</defs>
</svg>
