<svg width="60" height="44" viewBox="0 0 60 44" fill="none" xmlns="http://www.w3.org/2000/svg">
<path d="M15.4038 22.9564C16.0493 21.6614 15.8684 20.0133 15.6972 19.3511C17.6532 19.5718 22.1226 20.1899 24.3525 20.8962C26.5823 21.6026 26.6508 24.477 26.4063 25.826C25.8684 28.1315 24.7632 32.7718 24.6459 32.8895C24.5285 33.0073 24.1569 33.1348 23.9857 33.1838C24.0591 31.418 24.1911 27.533 24.1324 26.1203C24.0737 24.7076 22.641 24.1582 21.9319 24.0601L15.4038 22.9564Z" fill="white"/>
<path d="M11.6629 5.66553H23.2521C23.0321 6.30321 22.724 7.90232 23.2521 9.1973H21.6384C21.9807 10.4236 22.724 13.1705 22.9587 14.3478C23.2521 15.8194 22.592 16.6287 22.1519 17.3645C21.7998 17.9532 21.4673 17.9532 21.345 17.8796C21.7558 16.1137 21.2717 11.3556 20.9783 9.1973H13.79C13.7313 10.9043 14.3035 12.0669 14.5969 12.4348C14.9392 12.9498 15.5211 14.3919 15.1103 16.0401C14.6996 17.6883 11.9563 17.7079 10.636 17.5117C11.1641 17.1585 11.1494 15.01 11.0761 13.9799C12.3964 14.2006 14.0101 13.9799 13.4966 12.5819C13.0859 11.4635 12.9832 9.85951 12.9832 9.1973H11.3695C11.6629 8.85393 12.1323 7.66686 11.6629 5.66553Z" fill="white"/>
<path d="M24.4987 8.75574C25.0268 7.99052 24.7676 6.03333 24.572 5.15039L33.374 5.73902C36.2493 6.20992 36.3813 9.85942 36.0879 11.6253L35.2077 18.1002L34.4742 18.4681L34.1808 12.9497C34.1808 10.1832 33.0561 9.39342 32.4938 9.34437L24.4987 8.75574Z" fill="white"/>
<path d="M36.8953 8.75608C37.5407 7.69655 37.5065 5.86199 37.4087 5.07715C37.751 5.15073 38.685 5.35675 39.6825 5.5922C40.6801 5.82765 40.8806 6.52419 40.8561 6.84303V8.6825C42.6752 8.50591 42.641 6.54872 42.3965 5.5922H45.6239C48.1178 5.51862 48.9002 8.60892 49.0713 9.85976L49.7315 17.3648H41.0028C41.5896 16.1287 41.4429 14.4462 41.2962 13.7594H48.3378C48.8659 10.2865 46.7975 9.12397 45.6239 9.12397H40.7828C40.2449 11.4785 39.1544 16.2169 39.0958 16.3347C39.0224 16.4818 38.509 17.3648 38.4356 17.5119C38.3769 17.6297 38.1178 17.61 37.9955 17.5855C38.0689 16.0404 39.6092 9.27113 39.2425 9.27113C38.9491 9.27113 37.5554 8.92776 36.8953 8.75608Z" fill="white"/>
<path d="M51.5646 9.41806C52.3275 8.06421 52.6649 5.7146 52.7382 4.70903L54.7186 5.44482C54.9534 4.85619 54.8653 2.74693 54.792 1.76589L54.3519 1.39799L54.7186 0.51505L55.7455 0.882943L55.4521 1.76589H55.0854C55.2028 3.41405 55.0854 4.90524 55.012 5.44482C55.2565 5.54292 55.7309 5.72441 55.6722 5.66555C55.6135 5.60669 56.6746 2.69788 57.2125 1.25084L56.9191 0.882943L57.2859 0L58.3128 0.51505L57.8727 1.47157L57.5059 1.39799C57.2712 1.51572 56.3323 4.39019 55.8922 5.81271L56.6257 6.10702C56.391 5.63612 57.946 3.89967 58.7529 3.0903L58.4595 2.86957L58.9729 1.98662L59.9998 2.57525L59.413 3.45819L59.0463 3.23746C57.5206 4.35585 56.9436 5.66555 56.8458 6.1806L58.3128 6.84281C57.8433 7.43144 57.1392 10.1293 56.8458 11.4047C56.2834 11.1349 55.1147 10.6395 54.9387 10.8161C54.7186 11.0368 54.5719 12.1405 54.1319 15.1572C53.7798 17.5706 53.5451 18.5173 53.4717 18.689C52.8116 19.7681 51.4766 21.9411 51.4179 22C51.3446 22.0736 51.1245 21.9264 51.0512 21.7057C50.9925 21.5291 51.2223 20.3077 51.3446 19.7191C51.8091 17.757 52.8556 13.5237 53.325 12.2876C53.7944 11.0515 53.7651 10.3991 53.6918 10.2274L51.5646 9.41806Z" fill="white"/>
<path d="M47.237 19.2778H46.0634V20.4551H46.6502V23.619H45.5499C45.5499 23.3982 45.2565 22.5153 45.1098 22.2946C44.9925 22.118 44.9631 22.27 44.9631 22.3681C45.3739 23.4865 45.1343 26.2678 44.9631 27.5186L55.3788 27.5922C55.9656 30.4765 56.1612 32.7182 56.1856 33.4785V35.6123C56.1856 36.0538 56.0389 36.6424 56.0389 36.9367C56.0389 37.1721 56.1856 37.182 56.259 37.1574C57.902 36.039 58.0194 34.5331 57.8727 33.92C57.5304 32.3748 56.8164 29.1668 56.6991 28.6959C56.5817 28.225 56.6013 27.7639 56.6257 27.5922H57.8727V25.532C57.8727 25.12 58.0194 24.2321 58.0927 23.8397C58.2639 23.5699 58.6062 22.9862 58.6062 22.8096C58.6062 22.633 58.5084 22.6379 58.4595 22.6624L57.7993 23.619H46.7969V20.4551H47.237V19.2778Z" fill="white"/>
<path d="M45.1098 33.2578L46.7235 30.3146C47.0169 30.2558 47.1392 30.4863 47.1636 30.6089C46.9925 30.9278 46.7088 31.7126 46.9436 32.3012C47.4717 32.831 48.8751 33.0616 49.5108 33.1106C48.8653 33.9347 48.5572 36.0047 48.4839 36.9367C47.726 36.8876 46.0194 36.6571 45.2565 36.1273C44.4937 35.5976 44.8409 33.9935 45.1098 33.2578Z" fill="white"/>
<path d="M27.5796 19.3511C27.5062 20.9698 27.2128 22.981 26.9928 23.7658L29.7801 25.6053C29.56 26.709 29.0906 29.3725 28.9732 31.1973C28.8559 33.022 27.9463 35.3422 27.5062 36.2742C27.6821 36.4264 27.9844 36.5613 28.3131 36.7156C28.7532 36.2742 30.2202 35.9063 31.4671 36.127C32.4647 36.3036 32.5674 36.7892 32.494 37.01L32.0539 38.0401L32.5674 38.1872C34.1077 36.127 34.2544 33.4046 34.1811 33.1103C34.1224 32.8748 33.8143 32.5707 33.6676 32.4481C33.0075 32.0802 31.5258 31.3591 30.8803 31.418C30.2349 31.4769 30.1224 31.1482 30.1468 30.9765C30.318 29.6766 30.6749 26.9886 30.7336 26.6354C30.7923 26.2822 31.0515 26.4392 31.1737 26.5618L39.7556 34.3611C40.6358 35.2195 42.5869 36.7745 43.3498 36.127C43.0564 34.214 44.3767 31.3444 44.45 30.9029C44.5087 30.5498 44.3278 30.5596 44.23 30.6086C44.1566 30.6822 43.9366 30.9177 43.6432 31.2708C43.3498 31.624 42.983 31.418 42.8363 31.2708L38.362 27.0033L42.5429 24.2073C43.2764 23.6187 43.2764 23.2508 43.1297 22.2942C42.9504 21.1249 41.2226 19.5964 40.1957 18.9832C40.3131 18.4534 40.3424 17.7814 40.3424 17.5116H39.829C39.5943 18.7478 39.0466 19.6945 38.8021 20.0133L36.895 22.2942L39.1688 24.2073C39.3889 24.428 39.7556 24.8695 39.1688 25.4581C38.582 26.0468 37.7018 26.1939 37.3351 26.1939L32.5674 21.8528C29.4133 19.3511 28.8754 13.3912 29.0466 10.3745L27.7996 13.0969C27.7752 14.4459 27.697 17.5852 27.5796 19.3511Z" fill="white"/>
<path d="M9.4621 23.1775C10.5183 21.8236 9.8044 19.1307 9.3154 17.9534C9.43276 17.718 9.6088 17.9044 9.68215 18.027L10.1222 19.3514C10.4156 19.3789 12.3472 20.0496 13.2763 20.3815C15.11 21.6323 14.4499 22.6624 13.5697 25.3113C12.8655 27.4303 10.4401 30.5599 9.3154 31.8598C11.6626 36.7159 13.8631 43.1909 13.7897 43.4852C13.7311 43.7206 13.423 43.9266 13.2763 44.0002L8.80196 34.7293L5.06112 26.1942L2.71394 26.93C2.42054 25.4584 1.46699 23.7661 1.02689 23.1039L2.56724 22.4417C2.21516 21.3233 1.19804 20.357 0.733496 20.0136L0.440098 20.0872L0 19.2778L0.880196 18.8364L1.24694 19.5721L1.02689 19.8665L1.10024 19.94C1.86308 20.5875 2.59169 21.8285 2.86064 22.3681C3.08068 22.2945 3.50611 22.1327 3.44743 22.0738C3.38875 22.0149 2.54279 19.5967 2.12714 18.3949L1.76039 18.3213L1.39364 17.5855L2.34719 17.144L2.78729 18.027L2.42055 18.3213C2.36187 18.4979 3.27629 20.8966 3.74084 22.0738L4.32764 21.8531C4.03424 21.4999 4.10759 19.6457 4.18094 18.7628L3.96089 18.8364L3.66749 17.8798L4.54768 17.5855L4.84108 18.542L4.47433 18.6892C4.12226 20.4551 4.37653 21.4852 4.54768 21.7795L5.79463 21.4116C5.91199 22.2945 7.06602 24.3793 7.62837 25.3113C7.21272 25.4584 6.33741 25.7675 6.16137 25.8263C5.98533 25.8852 5.99022 25.998 6.01467 26.0471C6.24939 26.518 7.97066 29.5788 8.80196 31.0504C9.511 30.3391 11.1051 28.534 11.8093 27.0036C12.6895 25.0905 12.2494 24.5755 11.956 24.134C11.7213 23.7808 10.1956 23.3492 9.4621 23.1775Z" fill="white"/>
<path d="M18.8159 40.037V43.3647H18.6066V40.5285C18.6066 40.4878 18.6089 40.4446 18.6136 40.3992L17.3037 42.7251C17.2818 42.7658 17.2504 42.7862 17.2096 42.7862H17.172C17.1313 42.7862 17.0999 42.7658 17.0779 42.7251L15.7327 40.3945C15.7374 40.4415 15.7398 40.4862 15.7398 40.5285V43.3647H15.5281V40.037H15.6951C15.7171 40.037 15.7343 40.0394 15.7469 40.0441C15.7594 40.0488 15.7719 40.0613 15.7845 40.0817L17.1273 42.3958C17.1509 42.4397 17.1712 42.4868 17.1885 42.5369C17.1979 42.5118 17.2081 42.4875 17.2191 42.464C17.23 42.4389 17.2418 42.4154 17.2543 42.3935L18.5596 40.0817C18.5721 40.0613 18.5846 40.0488 18.5972 40.0441C18.6113 40.0394 18.6293 40.037 18.6513 40.037H18.8159ZM20.6861 42.2336C20.4635 42.2414 20.2714 42.2594 20.1099 42.2876C19.95 42.3143 19.8175 42.3511 19.7125 42.3982C19.609 42.4452 19.5322 42.5017 19.482 42.5675C19.4319 42.6318 19.4068 42.7055 19.4068 42.7886C19.4068 42.867 19.4193 42.9352 19.4444 42.9932C19.4711 43.0496 19.5055 43.0966 19.5479 43.1343C19.5918 43.1703 19.6419 43.197 19.6984 43.2142C19.7548 43.2315 19.8136 43.2401 19.8748 43.2401C19.9657 43.2401 20.0488 43.2307 20.1241 43.2119C20.2009 43.1915 20.2714 43.1641 20.3357 43.1296C20.4016 43.0935 20.4627 43.0512 20.5192 43.0026C20.5756 42.954 20.6313 42.9014 20.6861 42.845V42.2336ZM19.3104 41.3563C19.4326 41.2341 19.5612 41.1416 19.696 41.0788C19.8309 41.0161 19.9837 40.9848 20.1546 40.9848C20.2801 40.9848 20.3898 41.0051 20.4839 41.0459C20.5779 41.0851 20.6556 41.1423 20.7167 41.2176C20.7794 41.2913 20.8265 41.3814 20.8578 41.488C20.8892 41.5931 20.9048 41.7107 20.9048 41.8408V43.3647H20.8155C20.7684 43.3647 20.7394 43.3428 20.7285 43.2989L20.6955 42.9979C20.6313 43.0606 20.567 43.117 20.5027 43.1672C20.44 43.2174 20.3741 43.2597 20.3051 43.2942C20.2362 43.3287 20.1617 43.3553 20.0817 43.3742C20.0018 43.393 19.914 43.4024 19.8183 43.4024C19.7384 43.4024 19.6608 43.3906 19.5855 43.3671C19.5103 43.3436 19.4428 43.3075 19.3833 43.2589C19.3252 43.2103 19.2782 43.1484 19.2422 43.0731C19.2077 42.9963 19.1904 42.9046 19.1904 42.798C19.1904 42.6992 19.2186 42.6075 19.2751 42.5228C19.3315 42.4382 19.4201 42.3645 19.5408 42.3018C19.6615 42.239 19.816 42.1889 20.0041 42.1512C20.1938 42.1136 20.4212 42.0917 20.6861 42.0854V41.8408C20.6861 41.6244 20.6391 41.4583 20.545 41.3422C20.4525 41.2246 20.3146 41.1659 20.1311 41.1659C20.0182 41.1659 19.9218 41.1815 19.8418 41.2129C19.7635 41.2442 19.6968 41.2787 19.6419 41.3164C19.5871 41.354 19.5424 41.3885 19.5079 41.4198C19.4734 41.4512 19.4444 41.4669 19.4209 41.4669C19.4036 41.4669 19.3895 41.463 19.3786 41.4551C19.3676 41.4473 19.3582 41.4371 19.3503 41.4245L19.3104 41.3563ZM22.9926 41.3375C22.9848 41.3454 22.9769 41.3524 22.9691 41.3587C22.9628 41.3634 22.9534 41.3658 22.9409 41.3658C22.9252 41.3658 22.904 41.3556 22.8774 41.3352C22.8507 41.3132 22.8147 41.2897 22.7692 41.2646C22.7237 41.2395 22.6665 41.2168 22.5975 41.1964C22.5301 41.1745 22.4478 41.1635 22.3506 41.1635C22.2158 41.1635 22.0958 41.1878 21.9908 41.2364C21.8873 41.2834 21.7995 41.3516 21.7274 41.441C21.6552 41.5304 21.6004 41.6386 21.5627 41.7656C21.5267 41.8925 21.5087 42.0352 21.5087 42.1936C21.5087 42.3582 21.5275 42.504 21.5651 42.631C21.6043 42.758 21.6592 42.8654 21.7297 42.9532C21.8003 43.0394 21.8857 43.1053 21.9861 43.1507C22.0864 43.1962 22.1977 43.2189 22.32 43.2189C22.4329 43.2189 22.527 43.2056 22.6022 43.179C22.679 43.1523 22.7418 43.1233 22.7904 43.0919C22.8405 43.0606 22.8797 43.0316 22.908 43.0049C22.9362 42.9783 22.9597 42.9649 22.9785 42.9649C22.9973 42.9649 23.013 42.9728 23.0255 42.9885L23.0843 43.0637C23.0483 43.1108 23.0028 43.1547 22.9479 43.1954C22.8931 43.2362 22.8311 43.2715 22.7621 43.3012C22.6932 43.331 22.6179 43.3538 22.5364 43.3694C22.4564 43.3867 22.3725 43.3953 22.2847 43.3953C22.1358 43.3953 21.9994 43.3687 21.8755 43.3154C21.7532 43.2605 21.6474 43.1821 21.558 43.0802C21.4702 42.9767 21.4013 42.8505 21.3511 42.7016C21.3025 42.5526 21.2782 42.3833 21.2782 42.1936C21.2782 42.0148 21.3017 41.8518 21.3487 41.7044C21.3958 41.557 21.4648 41.43 21.5557 41.3234C21.6466 41.2168 21.7572 41.1345 21.8873 41.0765C22.019 41.0169 22.1695 40.9871 22.3388 40.9871C22.4909 40.9871 22.6257 41.0114 22.7433 41.06C22.8609 41.1086 22.9636 41.1745 23.0514 41.2576L22.9926 41.3375ZM23.6284 41.4198C23.7366 41.2881 23.8597 41.1831 23.9977 41.1047C24.1372 41.0263 24.2932 40.9871 24.4657 40.9871C24.5942 40.9871 24.7071 41.0075 24.8043 41.0483C24.9031 41.089 24.9846 41.1478 25.0489 41.2246C25.1132 41.3015 25.1618 41.394 25.1947 41.5022C25.2276 41.6103 25.2441 41.7326 25.2441 41.869V43.3647H25.0183V41.869C25.0183 41.6495 24.9682 41.4779 24.8678 41.354C24.7675 41.2286 24.6146 41.1659 24.4092 41.1659C24.2571 41.1659 24.1145 41.205 23.9812 41.2834C23.8495 41.3603 23.7319 41.4677 23.6284 41.6056V43.3647H23.4027V39.9429H23.6284V41.4198ZM26.6801 40.9871C26.8479 40.9871 26.9976 41.0161 27.1293 41.0741C27.2625 41.1306 27.3746 41.2113 27.4656 41.3164C27.5565 41.4214 27.6255 41.5484 27.6725 41.6974C27.7211 41.8447 27.7454 42.0101 27.7454 42.1936C27.7454 42.377 27.7211 42.5424 27.6725 42.6898C27.6255 42.8372 27.5565 42.9634 27.4656 43.0684C27.3746 43.1735 27.2625 43.2542 27.1293 43.3107C26.9976 43.3671 26.8479 43.3953 26.6801 43.3953C26.5123 43.3953 26.3618 43.3671 26.2286 43.3107C26.0969 43.2542 25.9848 43.1735 25.8923 43.0684C25.8013 42.9634 25.7316 42.8372 25.683 42.6898C25.6359 42.5424 25.6124 42.377 25.6124 42.1936C25.6124 42.0101 25.6359 41.8447 25.683 41.6974C25.7316 41.5484 25.8013 41.4214 25.8923 41.3164C25.9848 41.2113 26.0969 41.1306 26.2286 41.0741C26.3618 41.0161 26.5123 40.9871 26.6801 40.9871ZM26.6801 43.2189C26.8196 43.2189 26.9411 43.1954 27.0446 43.1484C27.1497 43.0998 27.2367 43.0308 27.3057 42.9414C27.3762 42.8521 27.4287 42.7447 27.4632 42.6192C27.4977 42.4922 27.515 42.3504 27.515 42.1936C27.515 42.0384 27.4977 41.8972 27.4632 41.7703C27.4287 41.6433 27.3762 41.5351 27.3057 41.4457C27.2367 41.3548 27.1497 41.285 27.0446 41.2364C26.9411 41.1878 26.8196 41.1635 26.6801 41.1635C26.5406 41.1635 26.4183 41.1878 26.3132 41.2364C26.2097 41.285 26.1227 41.3548 26.0522 41.4457C25.9832 41.5351 25.9307 41.6433 25.8946 41.7703C25.8601 41.8972 25.8429 42.0384 25.8429 42.1936C25.8429 42.3504 25.8601 42.4922 25.8946 42.6192C25.9307 42.7447 25.9832 42.8521 26.0522 42.9414C26.1227 43.0308 26.2097 43.0998 26.3132 43.1484C26.4183 43.1954 26.5406 43.2189 26.6801 43.2189ZM28.3551 41.434C28.4633 41.2991 28.5879 41.1909 28.729 41.1094C28.8717 41.0279 29.0301 40.9871 29.2041 40.9871C29.3326 40.9871 29.4455 41.0075 29.5427 41.0483C29.6415 41.089 29.723 41.1478 29.7873 41.2246C29.8516 41.3015 29.9002 41.394 29.9331 41.5022C29.9661 41.6103 29.9825 41.7326 29.9825 41.869V43.3647H29.7567V41.869C29.7567 41.6495 29.7066 41.4779 29.6062 41.354C29.5059 41.2286 29.353 41.1659 29.1476 41.1659C28.9956 41.1659 28.8529 41.205 28.7196 41.2834C28.5879 41.3603 28.4703 41.4677 28.3669 41.6056V43.3647H28.1411V41.0247H28.2657C28.3049 41.0247 28.3277 41.0443 28.3339 41.0835L28.3551 41.434ZM33.7773 40.1193C33.7773 40.1491 33.7663 40.1813 33.7443 40.2157L31.6325 43.1648H33.7608V43.3647H31.3103V43.2777C31.3103 43.2605 31.3126 43.2456 31.3173 43.233C31.3236 43.2189 31.3306 43.2056 31.3385 43.1931L33.4551 40.2369H31.3714V40.037H33.7773V40.1193ZM34.3405 41.0247V43.3647H34.1171V41.0247H34.3405ZM34.4369 40.2181C34.4369 40.2463 34.4307 40.273 34.4181 40.2981C34.4071 40.3216 34.3922 40.3427 34.3734 40.3616C34.3546 40.3804 34.3327 40.3953 34.3076 40.4062C34.2825 40.4172 34.2558 40.4227 34.2276 40.4227C34.1994 40.4227 34.1727 40.4172 34.1477 40.4062C34.1226 40.3953 34.1006 40.3804 34.0818 40.3616C34.063 40.3427 34.0481 40.3216 34.0371 40.2981C34.0262 40.273 34.0207 40.2463 34.0207 40.2181C34.0207 40.1899 34.0262 40.1632 34.0371 40.1381C34.0481 40.1115 34.063 40.0887 34.0818 40.0699C34.1006 40.0511 34.1226 40.0362 34.1477 40.0253C34.1727 40.0143 34.1994 40.0088 34.2276 40.0088C34.2558 40.0088 34.2825 40.0143 34.3076 40.0253C34.3327 40.0362 34.3546 40.0511 34.3734 40.0699C34.3922 40.0887 34.4071 40.1115 34.4181 40.1381C34.4307 40.1632 34.4369 40.1899 34.4369 40.2181ZM34.9033 43.3647V41.0247H35.028C35.0671 41.0247 35.0899 41.0443 35.0962 41.0835L35.1173 41.4222C35.2083 41.2921 35.3125 41.187 35.4301 41.1071C35.5477 41.0271 35.6802 40.9871 35.8275 40.9871C35.9984 40.9871 36.1348 41.0365 36.2368 41.1353C36.3402 41.2341 36.41 41.3712 36.4461 41.5468C36.4743 41.4512 36.5135 41.3681 36.5636 41.2976C36.6154 41.227 36.6742 41.169 36.74 41.1235C36.8059 41.0765 36.8772 41.042 36.954 41.02C37.0324 40.9981 37.1124 40.9871 37.1939 40.9871C37.3099 40.9871 37.4142 41.0067 37.5067 41.0459C37.5992 41.0835 37.6776 41.14 37.7419 41.2152C37.8062 41.2905 37.8555 41.383 37.89 41.4927C37.9245 41.6025 37.9418 41.7279 37.9418 41.869V43.3647H37.7184V41.869C37.7184 41.6401 37.669 41.4661 37.5702 41.3469C37.4714 41.2262 37.3303 41.1659 37.1469 41.1659C37.0654 41.1659 36.987 41.1807 36.9117 41.2105C36.838 41.2403 36.7722 41.285 36.7142 41.3446C36.6577 41.4026 36.6123 41.4755 36.5778 41.5633C36.5448 41.6511 36.5284 41.753 36.5284 41.869V43.3647H36.3026V41.869C36.3026 41.6417 36.2571 41.4677 36.1662 41.3469C36.0768 41.2262 35.9451 41.1659 35.7711 41.1659C35.6441 41.1659 35.5265 41.2035 35.4183 41.2787C35.3102 41.354 35.2137 41.4583 35.1291 41.5915V43.3647H34.9033ZM38.667 41.5892C38.7031 41.4935 38.7438 41.4089 38.7893 41.3352C38.8363 41.2599 38.8896 41.1964 38.9492 41.1447C39.0104 41.0929 39.0778 41.0538 39.1515 41.0271C39.2267 40.9989 39.3098 40.9848 39.4007 40.9848C39.4494 40.9848 39.4972 40.9895 39.5442 40.9989C39.5912 41.0067 39.6328 41.0216 39.6688 41.0436L39.65 41.1988C39.6422 41.2239 39.6273 41.2364 39.6054 41.2364C39.5865 41.2364 39.5575 41.2309 39.5183 41.2199C39.4807 41.209 39.4305 41.2035 39.3678 41.2035C39.2769 41.2035 39.1961 41.2176 39.1256 41.2458C39.0566 41.2725 38.9939 41.3132 38.9375 41.3681C38.8826 41.423 38.834 41.4912 38.7916 41.5727C38.7509 41.6527 38.7133 41.7452 38.6788 41.8502V43.3647H38.453V41.0247H38.5729C38.5996 41.0247 38.6184 41.0302 38.6294 41.0412C38.6403 41.0522 38.6474 41.071 38.6505 41.0977L38.667 41.5892ZM41.14 42.2336C40.9174 42.2414 40.7253 42.2594 40.5638 42.2876C40.4039 42.3143 40.2714 42.3511 40.1664 42.3982C40.0629 42.4452 39.9861 42.5017 39.9359 42.5675C39.8857 42.6318 39.8606 42.7055 39.8606 42.7886C39.8606 42.867 39.8732 42.9352 39.8983 42.9932C39.9249 43.0496 39.9594 43.0966 40.0017 43.1343C40.0456 43.1703 40.0958 43.197 40.1522 43.2142C40.2087 43.2315 40.2675 43.2401 40.3286 43.2401C40.4196 43.2401 40.5027 43.2307 40.5779 43.2119C40.6547 43.1915 40.7253 43.1641 40.7896 43.1296C40.8554 43.0935 40.9166 43.0512 40.973 43.0026C41.0295 42.954 41.0851 42.9014 41.14 42.845V42.2336ZM39.7642 41.3563C39.8865 41.2341 40.0151 41.1416 40.1499 41.0788C40.2847 41.0161 40.4376 40.9848 40.6085 40.9848C40.7339 40.9848 40.8437 41.0051 40.9377 41.0459C41.0318 41.0851 41.1094 41.1423 41.1706 41.2176C41.2333 41.2913 41.2803 41.3814 41.3117 41.488C41.343 41.5931 41.3587 41.7107 41.3587 41.8408V43.3647H41.2693C41.2223 43.3647 41.1933 43.3428 41.1823 43.2989L41.1494 42.9979C41.0851 43.0606 41.0208 43.117 40.9565 43.1672C40.8938 43.2174 40.828 43.2597 40.759 43.2942C40.69 43.3287 40.6155 43.3553 40.5356 43.3742C40.4556 43.393 40.3678 43.4024 40.2722 43.4024C40.1922 43.4024 40.1146 43.3906 40.0394 43.3671C39.9641 43.3436 39.8967 43.3075 39.8371 43.2589C39.7791 43.2103 39.7321 43.1484 39.696 43.0731C39.6615 42.9963 39.6443 42.9046 39.6443 42.798C39.6443 42.6992 39.6725 42.6075 39.7289 42.5228C39.7854 42.4382 39.874 42.3645 39.9947 42.3018C40.1154 42.239 40.2698 42.1889 40.458 42.1512C40.6477 42.1136 40.875 42.0917 41.14 42.0854V41.8408C41.14 41.6244 41.0929 41.4583 40.9989 41.3422C40.9064 41.2246 40.7684 41.1659 40.585 41.1659C40.4721 41.1659 40.3757 41.1815 40.2957 41.2129C40.2173 41.2442 40.1507 41.2787 40.0958 41.3164C40.0409 41.354 39.9962 41.3885 39.9618 41.4198C39.9273 41.4512 39.8983 41.4669 39.8747 41.4669C39.8575 41.4669 39.8434 41.463 39.8324 41.4551C39.8214 41.4473 39.812 41.4371 39.8042 41.4245L39.7642 41.3563ZM42.4853 43.4024C42.3269 43.4024 42.2031 43.3585 42.1137 43.2707C42.0259 43.1829 41.982 43.0473 41.982 42.8638V41.2646H41.6457C41.6284 41.2646 41.6143 41.2599 41.6034 41.2505C41.5924 41.2411 41.5869 41.2278 41.5869 41.2105V41.1235L41.9867 41.0953L42.0431 40.2581C42.0463 40.244 42.0525 40.2314 42.0619 40.2204C42.0714 40.2095 42.0847 40.204 42.1019 40.204H42.2078V41.0977H42.9462V41.2646H42.2078V42.8521C42.2078 42.9163 42.2156 42.972 42.2313 43.019C42.2485 43.0645 42.2713 43.1021 42.2995 43.1319C42.3293 43.1617 42.3638 43.1837 42.403 43.1978C42.4421 43.2119 42.4845 43.2189 42.5299 43.2189C42.5864 43.2189 42.635 43.2111 42.6758 43.1954C42.7165 43.1782 42.7518 43.1601 42.7816 43.1413C42.8114 43.1209 42.8357 43.1029 42.8545 43.0872C42.8733 43.07 42.8882 43.0614 42.8992 43.0614C42.9117 43.0614 42.9243 43.0692 42.9368 43.0849L42.9979 43.1837C42.9384 43.2495 42.8623 43.3028 42.7698 43.3436C42.6789 43.3828 42.584 43.4024 42.4853 43.4024ZM46.9383 40.037V43.3647H46.6961V41.7703H44.6125V43.3647H44.3702V40.037H44.6125V41.5892H46.6961V40.037H46.9383ZM48.8071 42.2336C48.5844 42.2414 48.3924 42.2594 48.2309 42.2876C48.071 42.3143 47.9385 42.3511 47.8335 42.3982C47.73 42.4452 47.6531 42.5017 47.603 42.5675C47.5528 42.6318 47.5277 42.7055 47.5277 42.7886C47.5277 42.867 47.5403 42.9352 47.5654 42.9932C47.592 43.0496 47.6265 43.0966 47.6688 43.1343C47.7127 43.1703 47.7629 43.197 47.8193 43.2142C47.8758 43.2315 47.9346 43.2401 47.9957 43.2401C48.0867 43.2401 48.1698 43.2307 48.245 43.2119C48.3218 43.1915 48.3924 43.1641 48.4567 43.1296C48.5225 43.0935 48.5837 43.0512 48.6401 43.0026C48.6965 42.954 48.7522 42.9014 48.8071 42.845V42.2336ZM47.4313 41.3563C47.5536 41.2341 47.6822 41.1416 47.817 41.0788C47.9518 41.0161 48.1047 40.9848 48.2756 40.9848C48.401 40.9848 48.5108 41.0051 48.6048 41.0459C48.6989 41.0851 48.7765 41.1423 48.8377 41.2176C48.9004 41.2913 48.9474 41.3814 48.9788 41.488C49.0101 41.5931 49.0258 41.7107 49.0258 41.8408V43.3647H48.9364C48.8894 43.3647 48.8604 43.3428 48.8494 43.2989L48.8165 42.9979C48.7522 43.0606 48.6879 43.117 48.6236 43.1672C48.5609 43.2174 48.4951 43.2597 48.4261 43.2942C48.3571 43.3287 48.2826 43.3553 48.2027 43.3742C48.1227 43.393 48.0349 43.4024 47.9393 43.4024C47.8593 43.4024 47.7817 43.3906 47.7065 43.3671C47.6312 43.3436 47.5638 43.3075 47.5042 43.2589C47.4462 43.2103 47.3992 43.1484 47.3631 43.0731C47.3286 42.9963 47.3114 42.9046 47.3114 42.798C47.3114 42.6992 47.3396 42.6075 47.396 42.5228C47.4525 42.4382 47.541 42.3645 47.6618 42.3018C47.7825 42.239 47.9369 42.1889 48.1251 42.1512C48.3148 42.1136 48.5421 42.0917 48.8071 42.0854V41.8408C48.8071 41.6244 48.76 41.4583 48.666 41.3422C48.5735 41.2246 48.4355 41.1659 48.2521 41.1659C48.1392 41.1659 48.0428 41.1815 47.9628 41.2129C47.8844 41.2442 47.8178 41.2787 47.7629 41.3164C47.708 41.354 47.6633 41.3885 47.6288 41.4198C47.5944 41.4512 47.5654 41.4669 47.5418 41.4669C47.5246 41.4669 47.5105 41.463 47.4995 41.4551C47.4885 41.4473 47.4791 41.4371 47.4713 41.4245L47.4313 41.3563ZM49.6267 39.8112C49.68 39.9069 49.716 40.0096 49.7348 40.1193C49.7552 40.2275 49.7584 40.3357 49.7443 40.4439C49.7317 40.552 49.7019 40.6563 49.6549 40.7566C49.6079 40.8554 49.5459 40.9424 49.4691 41.0177L49.4056 40.9754C49.3931 40.966 49.3868 40.955 49.3868 40.9424C49.3884 40.9299 49.3931 40.9197 49.4009 40.9119C49.4511 40.846 49.4895 40.7723 49.5161 40.6908C49.5444 40.6093 49.5608 40.5262 49.5655 40.4415C49.5702 40.3568 49.5632 40.273 49.5444 40.1899C49.5271 40.1068 49.4989 40.0307 49.4597 39.9618C49.4346 39.9179 49.4417 39.8873 49.4809 39.87L49.6267 39.8112ZM51.3775 42.2336C51.1548 42.2414 50.9628 42.2594 50.8013 42.2876C50.6414 42.3143 50.5089 42.3511 50.4038 42.3982C50.3004 42.4452 50.2235 42.5017 50.1734 42.5675C50.1232 42.6318 50.0981 42.7055 50.0981 42.7886C50.0981 42.867 50.1107 42.9352 50.1357 42.9932C50.1624 43.0496 50.1969 43.0966 50.2392 43.1343C50.2831 43.1703 50.3333 43.197 50.3897 43.2142C50.4462 43.2315 50.505 43.2401 50.5661 43.2401C50.6571 43.2401 50.7401 43.2307 50.8154 43.2119C50.8922 43.1915 50.9628 43.1641 51.0271 43.1296C51.0929 43.0935 51.1541 43.0512 51.2105 43.0026C51.2669 42.954 51.3226 42.9014 51.3775 42.845V42.2336ZM50.0017 41.3563C50.124 41.2341 50.2526 41.1416 50.3874 41.0788C50.5222 41.0161 50.6751 40.9848 50.846 40.9848C50.9714 40.9848 51.0812 41.0051 51.1752 41.0459C51.2693 41.0851 51.3469 41.1423 51.408 41.2176C51.4708 41.2913 51.5178 41.3814 51.5492 41.488C51.5805 41.5931 51.5962 41.7107 51.5962 41.8408V43.3647H51.5068C51.4598 43.3647 51.4308 43.3428 51.4198 43.2989L51.3869 42.9979C51.3226 43.0606 51.2583 43.117 51.194 43.1672C51.1313 43.2174 51.0655 43.2597 50.9965 43.2942C50.9275 43.3287 50.853 43.3553 50.7731 43.3742C50.6931 43.393 50.6053 43.4024 50.5097 43.4024C50.4297 43.4024 50.3521 43.3906 50.2769 43.3671C50.2016 43.3436 50.1342 43.3075 50.0746 43.2589C50.0166 43.2103 49.9696 43.1484 49.9335 43.0731C49.899 42.9963 49.8818 42.9046 49.8818 42.798C49.8818 42.6992 49.91 42.6075 49.9664 42.5228C50.0229 42.4382 50.1114 42.3645 50.2322 42.3018C50.3529 42.239 50.5073 42.1889 50.6955 42.1512C50.8852 42.1136 51.1125 42.0917 51.3775 42.0854V41.8408C51.3775 41.6244 51.3304 41.4583 51.2364 41.3422C51.1439 41.2246 51.0059 41.1659 50.8225 41.1659C50.7096 41.1659 50.6132 41.1815 50.5332 41.2129C50.4548 41.2442 50.3882 41.2787 50.3333 41.3164C50.2784 41.354 50.2337 41.3885 50.1992 41.4198C50.1648 41.4512 50.1357 41.4669 50.1122 41.4669C50.095 41.4669 50.0809 41.463 50.0699 41.4551C50.0589 41.4473 50.0495 41.4371 50.0417 41.4245L50.0017 41.3563ZM52.3246 41.5892C52.3607 41.4935 52.4015 41.4089 52.4469 41.3352C52.494 41.2599 52.5473 41.1964 52.6069 41.1447C52.668 41.0929 52.7354 41.0538 52.8091 41.0271C52.8844 40.9989 52.9675 40.9848 53.0584 40.9848C53.107 40.9848 53.1548 40.9895 53.2018 40.9989C53.2489 41.0067 53.2904 41.0216 53.3265 41.0436L53.3077 41.1988C53.2998 41.2239 53.2849 41.2364 53.263 41.2364C53.2442 41.2364 53.2152 41.2309 53.176 41.2199C53.1384 41.209 53.0882 41.2035 53.0255 41.2035C52.9345 41.2035 52.8538 41.2176 52.7832 41.2458C52.7143 41.2725 52.6515 41.3132 52.5951 41.3681C52.5402 41.423 52.4916 41.4912 52.4493 41.5727C52.4085 41.6527 52.3709 41.7452 52.3364 41.8502V43.3647H52.1106V41.0247H52.2306C52.2572 41.0247 52.276 41.0302 52.287 41.0412C52.298 41.0522 52.305 41.071 52.3082 41.0977L52.3246 41.5892ZM55.0465 41.9584C55.0465 41.833 55.0285 41.7209 54.9925 41.6221C54.958 41.5218 54.9086 41.4371 54.8443 41.3681C54.78 41.2991 54.7032 41.2466 54.6138 41.2105C54.526 41.1729 54.4288 41.1541 54.3222 41.1541C54.2015 41.1541 54.0933 41.1729 53.9977 41.2105C53.902 41.2482 53.8189 41.3023 53.7484 41.3728C53.6794 41.4434 53.6237 41.528 53.5814 41.6268C53.5391 41.7256 53.5109 41.8361 53.4967 41.9584H55.0465ZM53.485 42.1019V42.1465C53.485 42.3221 53.5054 42.4766 53.5461 42.6098C53.5869 42.7431 53.6449 42.8552 53.7202 42.9461C53.7954 43.0355 53.8863 43.1029 53.993 43.1484C54.0996 43.1939 54.2187 43.2166 54.3504 43.2166C54.468 43.2166 54.5699 43.204 54.6562 43.179C54.7424 43.1523 54.8145 43.1233 54.8725 43.0919C54.9321 43.059 54.9791 43.03 55.0136 43.0049C55.0481 42.9783 55.0732 42.9649 55.0889 42.9649C55.1093 42.9649 55.1249 42.9728 55.1359 42.9885L55.1971 43.0637C55.1594 43.1108 55.1093 43.1547 55.0465 43.1954C54.9854 43.2362 54.9164 43.2715 54.8396 43.3012C54.7643 43.3295 54.6828 43.3522 54.595 43.3694C54.5088 43.3867 54.4218 43.3953 54.334 43.3953C54.174 43.3953 54.0282 43.3679 53.8965 43.313C53.7648 43.2566 53.652 43.175 53.5579 43.0684C53.4638 42.9618 53.3909 42.8317 53.3392 42.678C53.289 42.5228 53.2639 42.3457 53.2639 42.1465C53.2639 41.9788 53.2874 41.8243 53.3345 41.6832C53.3831 41.5406 53.4521 41.4183 53.5414 41.3164C53.6324 41.2129 53.7429 41.1321 53.873 41.0741C54.0047 41.0161 54.1537 40.9871 54.3199 40.9871C54.4516 40.9871 54.5738 41.0099 54.6867 41.0553C54.7996 41.1008 54.8976 41.1674 54.9807 41.2552C55.0638 41.3415 55.1289 41.4481 55.1759 41.5751C55.2245 41.7021 55.2488 41.8479 55.2488 42.0125C55.2488 42.047 55.2441 42.0705 55.2347 42.083C55.2253 42.0956 55.2096 42.1019 55.1877 42.1019H53.485ZM56.2531 43.4024C56.0948 43.4024 55.9709 43.3585 55.8816 43.2707C55.7938 43.1829 55.7499 43.0473 55.7499 42.8638V41.2646H55.4136C55.3963 41.2646 55.3822 41.2599 55.3712 41.2505C55.3603 41.2411 55.3548 41.2278 55.3548 41.2105V41.1235L55.7546 41.0953L55.811 40.2581C55.8142 40.244 55.8204 40.2314 55.8298 40.2204C55.8392 40.2095 55.8526 40.204 55.8698 40.204H55.9756V41.0977H56.7141V41.2646H55.9756V42.8521C55.9756 42.9163 55.9835 42.972 55.9992 43.019C56.0164 43.0645 56.0391 43.1021 56.0674 43.1319C56.0971 43.1617 56.1316 43.1837 56.1708 43.1978C56.21 43.2119 56.2524 43.2189 56.2978 43.2189C56.3543 43.2189 56.4029 43.2111 56.4436 43.1954C56.4844 43.1782 56.5197 43.1601 56.5495 43.1413C56.5793 43.1209 56.6036 43.1029 56.6224 43.0872C56.6412 43.07 56.6561 43.0614 56.6671 43.0614C56.6796 43.0614 56.6921 43.0692 56.7047 43.0849L56.7658 43.1837C56.7063 43.2495 56.6302 43.3028 56.5377 43.3436C56.4468 43.3828 56.3519 43.4024 56.2531 43.4024ZM58.5262 41.0247V41.1188C58.5262 41.1517 58.5153 41.1815 58.4933 41.2082L57.0282 43.1884H58.4674V43.3647H56.7577V43.2754C56.7577 43.2487 56.7695 43.2197 56.793 43.1884L58.2628 41.2011H56.8353V41.0247H58.5262Z" fill="white"/>
<path d="M19.2178 27.8865V27.0035V26.5621C19.2422 26.513 19.2911 26.4443 19.2911 26.5621C19.2911 26.6798 19.34 26.9054 19.3645 27.0035C19.5845 26.9054 20.0246 26.8564 20.0246 27.445C20.0246 28.1808 19.6579 28.4751 19.5845 28.4751C19.5258 28.4751 19.5112 28.4261 19.5112 28.4015C19.7459 28.2249 19.7557 27.8374 19.7312 27.6657H19.3645V27.8865H19.2178Z" fill="white"/>
<path d="M15.6965 31.3446C15.7959 31.2007 15.7333 30.8121 15.6965 30.646L17.2929 30.646C17.8339 30.7346 17.8587 31.4212 17.8035 31.7534L17.677 32.669C17.6372 32.7542 17.5918 32.7883 17.4569 32.8162L17.3836 31.9333C17.3836 31.4128 17.2331 31.3335 17.1273 31.3243L15.6965 31.3446Z" fill="white"/>
<path d="M20.1713 31.1834C20.2819 30.9967 20.276 30.6735 20.2593 30.5352C20.318 30.5481 20.4781 30.5844 20.6491 30.6259C20.8201 30.6674 20.8545 30.7901 20.8503 30.8463V31.1705C21.1621 31.1393 21.1562 30.7945 21.1143 30.6259H21.6676C22.0951 30.6129 22.2292 31.1575 22.2586 31.3779L22.3718 32.7003H20.8754C20.976 32.4825 20.9509 32.1861 20.9257 32.065H22.1328C22.2234 31.4531 21.8688 31.2482 21.6676 31.2482H20.8377C20.7455 31.6631 20.5586 32.4981 20.5485 32.5188C20.5359 32.5448 20.4479 32.7003 20.4353 32.7263C20.4253 32.747 20.3808 32.7436 20.3599 32.7392C20.3725 32.467 20.6365 31.2742 20.5736 31.2742C20.5233 31.2742 20.2844 31.2137 20.1713 31.1834Z" fill="white"/>
<path d="M17.5485 34.2882H15.7958H15.5972C15.5972 34.2535 15.5504 34.1144 15.5271 34.0797C15.5084 34.0519 15.5037 34.0758 15.5037 34.0913C15.5691 34.2674 15.531 34.7053 15.5037 34.9023L17.1629 34.9138C17.2564 35.368 17.2876 35.721 17.2915 35.8407V36.1767C17.2915 36.2462 17.2681 36.3389 17.2681 36.3852C17.2681 36.4223 17.2915 36.4238 17.3031 36.42C17.5649 36.2439 17.5836 36.0067 17.5602 35.9102C17.5057 35.6669 17.3919 35.1618 17.3733 35.0876C17.3546 35.0135 17.3577 34.9409 17.3616 34.9138H17.5602V34.5894C17.5602 34.5246 17.5836 34.3848 17.5953 34.323C17.6225 34.2805 17.6771 34.1886 17.6771 34.1608C17.6771 34.133 17.6615 34.1337 17.6537 34.1376L17.5485 34.2882Z" fill="white"/>
<path d="M15.5271 35.8059L15.7841 35.3425C15.8309 35.3332 15.8504 35.3695 15.8542 35.3889C15.827 35.4391 15.7818 35.5626 15.8192 35.6553C15.9033 35.7387 16.1269 35.775 16.2282 35.7828C16.1253 35.9125 16.0763 36.2385 16.0646 36.3852C15.9438 36.3775 15.672 36.3412 15.5504 36.2578C15.4289 36.1744 15.4842 35.9218 15.5271 35.8059Z" fill="white"/>
<path d="M20.0324 30.63H18.1142H17.9249C17.9249 30.592 17.8745 30.4401 17.8492 30.4022C17.829 30.3718 17.824 30.3979 17.824 30.4148C17.8946 30.6072 17.8534 31.0857 17.824 31.3009L19.6159 31.3136C19.7169 31.8098 19.7505 32.1955 19.7547 32.3263V32.6934C19.7547 32.7693 19.7295 32.8706 19.7295 32.9212C19.7295 32.9617 19.7547 32.9634 19.7673 32.9592C20.05 32.7668 20.0702 32.5077 20.045 32.4022C19.9861 32.1364 19.8633 31.5845 19.8431 31.5035C19.8229 31.4224 19.8262 31.3431 19.8304 31.3136H20.045V30.9591C20.045 30.8882 20.0702 30.7355 20.0828 30.668C20.1123 30.6216 20.1712 30.5211 20.1712 30.4908C20.1712 30.4604 20.1543 30.4612 20.1459 30.4654L20.0324 30.63Z" fill="white"/>
<path d="M16.8705 29.1372V28.475H17.2372C17.4133 28.4161 17.3106 27.9599 17.2372 27.7392H17.0172V27.0034H19.071V27.7392H18.8509C18.8754 27.8618 18.9389 28.1365 18.9976 28.2543C19.071 28.4014 18.9976 28.7693 18.9243 29.0636C18.8656 29.2991 18.802 29.1617 18.7776 29.0636C18.8949 28.9459 18.7287 28.1316 18.6309 27.7392H17.4573C17.4573 27.7637 17.4866 27.9305 17.604 28.4014C17.7213 28.8723 17.5551 29.0881 17.4573 29.1372H16.8705Z" fill="white"/>
<path d="M20.3179 27.6657C20.4352 27.6068 20.3179 27.0525 20.2445 26.7827C20.269 26.7827 20.3325 26.7974 20.3912 26.8563C20.4499 26.9152 20.4646 26.9789 20.4646 27.0035H22.0049L22.1516 26.8563C22.2103 26.7974 22.176 27.028 22.1516 27.1506V28.475C22.2249 28.426 22.3716 28.3132 22.3716 28.2543C22.3716 28.1807 22.445 28.2543 22.445 28.3279C22.445 28.4014 22.1516 29.1372 22.2249 29.1372H20.3179V28.475H21.9315V27.6657H20.3179Z" fill="white"/>
<path d="M18.9244 34.9498C19.0418 34.891 18.9244 34.3367 18.8511 34.0669C18.8755 34.0669 18.9391 34.0816 18.9978 34.1405C19.0565 34.1993 19.0711 34.2631 19.0711 34.2876H20.6115L20.7582 34.1405C20.8168 34.0816 20.7826 34.3122 20.7582 34.4348V35.7592C20.8315 35.7101 20.9782 35.5973 20.9782 35.5385C20.9782 35.4649 21.0516 35.5385 21.0516 35.612C21.0516 35.6856 20.7582 36.4214 20.8315 36.4214H18.9244V35.7592H20.5381V34.9498H18.9244Z" fill="white"/>
<path d="M12.8362 31.3446V30.6823H13.643V31.3446H13.3496L13.5697 32.0068L13.7897 31.9332C13.9364 31.8351 14.2445 31.6094 14.3032 31.4917C14.3619 31.374 14.0342 31.2955 13.8631 31.271V30.3145H14.0098C13.9609 30.4126 13.9364 30.6235 14.2298 30.6823C14.8166 30.7559 14.5966 31.271 14.5966 31.4917C14.5966 31.6683 14.1076 31.9577 13.8631 32.0803H14.5966C14.6699 32.0558 14.89 31.9479 15.1834 31.7124C15.4768 31.477 15.0611 31.3691 14.8166 31.3446L14.89 30.6088C15.3301 30.7559 15.6968 30.4616 15.4768 31.5653C15.3007 32.4482 14.0831 32.8161 13.4963 32.8897L13.423 32.0803L13.2029 31.3446H12.8362Z" fill="white"/>
<path d="M21.2717 35.0235V34.3613H22.0052V35.0235H21.8585C21.9319 35.1707 22.372 35.9065 22.4453 36.2008C22.5187 36.4951 22.1519 36.5687 22.2253 36.4951C22.2839 36.4362 22.2008 36.0782 22.1519 35.9065H22.0052C22.0052 36.0046 21.9905 36.2449 21.9319 36.4215C21.8732 36.5981 21.4184 36.4951 21.1984 36.4215C21.3157 36.4215 21.3451 35.9801 21.3451 35.7593C21.4184 35.7838 21.6238 35.8182 21.8585 35.7593C22.0932 35.7005 21.8096 35.2443 21.6385 35.0235H21.2717Z" fill="white"/>
<path d="M17.824 34.2876V35.0234H18.3374C18.4548 35.2 18.4841 36.078 18.4841 36.495C18.7042 36.3478 18.6308 35.097 18.6308 34.7291C18.6308 34.4348 18.4841 34.3121 18.4108 34.2876H17.824Z" fill="white"/>
</svg>
